0 机械头系统候选（设计核对）
0 Name: model.ldr
0 Author: quadcuber

1 15 -420 0 -100 1 0 0 0 0 -1 0 1 0 95658.dat
1 0 -385 0 -100 1 0 0 0 1 0 0 0 1 44294.dat
1 72 -385 0 -100 0 0 1 0 1 0 -1 0 0 32123a.dat
1 72 -375 0 -100 0 0 1 0 1 0 -1 0 0 32123a.dat
1 72 -360 0 -100 0 0 1 0 1 0 -1 0 0 3713.dat
1 14 -340 0 -100 0 0 1 1 0 0 0 1 0 3648b.dat
1 72 -325 0 -100 0 0 1 0 1 0 -1 0 0 32123a.dat
1 71 -340 0 0 0 -1 0 0 0 -1 1 0 0 18939.dat
1 72 -465.417 0 0 0 0 1 0 1 0 -1 0 0 32123a.dat
1 72 -435.417 0 0 0 0 1 0 1 0 -1 0 0 32123a.dat
1 71 -240 -20 -80 0 0 1 -1 0 0 0 -1 0 32526.dat
1 71 -240 -20 -100 0 0 1 1 0 0 0 1 0 32524.dat
1 0 -220 -20 -90 0 0 -1 0 1 0 1 0 0 2780.dat
1 0 -180 -20 -90 0 0 -1 0 1 0 1 0 0 2780.dat
1 71 -240 20 -80 0 0 1 1 0 0 0 1 0 32526.dat
1 71 -240 20 -100 0 0 1 1 0 0 0 1 0 32524.dat
1 0 -220 20 -90 0 0 -1 0 1 0 1 0 0 2780.dat
1 71 -240 -20 80 0 0 1 -1 0 0 0 -1 0 32526.dat
1 71 -240 -20 100 0 0 1 1 0 0 0 1 0 32524.dat
1 0 -220 -20 90 0 0 -1 0 1 0 1 0 0 2780.dat
1 0 -180 -20 90 0 0 -1 0 1 0 1 0 0 2780.dat
1 71 -240 20 80 0 0 1 1 0 0 0 1 0 32526.dat
1 71 -240 20 100 0 0 1 1 0 0 0 1 0 32524.dat
1 0 -220 20 90 0 0 -1 0 1 0 1 0 0 2780.dat
1 71 -260 -80 -60 1 0 0 0 0 1 0 -1 0 32140.dat
1 71 -180 80 -60 1 0 0 0 0 -1 0 1 0 32140.dat
1 71 -270 -20 -80 0 0 1 1 0 0 0 1 0 43857.dat
1 0 -280 -20 -90 0 0 -1 0 1 0 1 0 0 2780.dat
1 1 -260 -20 -80 0 0 1 0 1 0 -1 0 0 6558.dat
1 1 -240 -20 -80 0 0 1 0 1 0 -1 0 0 6558.dat
1 1 -180 20 -80 0 0 1 0 1 0 -1 0 0 6558.dat
1 71 -260 -80 60 1 0 0 0 0 1 0 -1 0 32140.dat
1 71 -180 80 60 1 0 0 0 0 -1 0 1 0 32140.dat
1 71 -270 -20 80 0 0 1 1 0 0 0 1 0 43857.dat
1 0 -280 -20 90 0 0 -1 0 1 0 1 0 0 2780.dat
1 1 -260 -20 80 0 0 -1 0 1 0 1 0 0 6558.dat
1 1 -240 -20 80 0 0 -1 0 1 0 1 0 0 6558.dat
1 1 -180 20 80 0 0 -1 0 1 0 1 0 0 6558.dat
1 0 -160 0 -40 -1 0 0 0 0 1 0 1 0 32525.dat
1 71 -160 -40 -60 -1 0 0 0 0 1 0 1 0 32523.dat
1 71 -160 50 -60 -1 0 0 0 0 1 0 1 0 43857.dat
1 1 -160 -60 -60 0 0 1 0 1 0 -1 0 0 6558.dat
1 1 -160 -20 -60 0 0 1 0 1 0 -1 0 0 6558.dat
1 1 -160 20 -60 0 0 1 0 1 0 -1 0 0 6558.dat
1 1 -160 40 -60 0 0 1 0 1 0 -1 0 0 6558.dat
1 1 -160 60 -60 0 0 1 0 1 0 -1 0 0 6558.dat
1 0 -160 0 40 -1 0 0 0 0 1 0 1 0 32525.dat
1 71 -160 -40 60 -1 0 0 0 0 1 0 1 0 32523.dat
1 71 -160 50 60 -1 0 0 0 0 1 0 1 0 43857.dat
1 1 -160 -60 60 0 0 -1 0 1 0 1 0 0 6558.dat
1 1 -160 -20 60 0 0 -1 0 1 0 1 0 0 6558.dat
1 1 -160 20 60 0 0 -1 0 1 0 1 0 0 6558.dat
1 1 -160 40 60 0 0 -1 0 1 0 1 0 0 6558.dat
1 1 -160 60 60 0 0 -1 0 1 0 1 0 0 6558.dat
1 71 -340 0 0 0 -1 0 0 0 -1 1 0 0 18938.dat
1 4 -160 80 -10 -0.067 0 0.9978 0.9978 0 0.067 0 1 0 32524.dat
1 0 -160 80 0 0 0 -1 0 1 0 1 0 0 3707.dat
1 72 -160 80 -25 1 0 0 0 1 0 0 0 1 32123a.dat
1 72 -160 80 25 1 0 0 0 1 0 0 0 1 32123a.dat
1 72 -160 80 10 1 0 0 0 1 0 0 0 1 3713.dat
1 72 -160 80 -75 1 0 0 0 1 0 0 0 1 32123a.dat
1 72 -160 80 75 1 0 0 0 1 0 0 0 1 32123a.dat
1 71 -160 120 -55 1 0 0 0 0 -1 0 1 0 32056.dat
1 71 -160 120 -65 1 0 0 0 0 -1 0 1 0 32056.dat
1 0 -160 100 -50 0 0 -1 0 1 0 1 0 0 2780.dat
1 71 -160 120 55 1 0 0 0 0 -1 0 1 0 32056.dat
1 71 -160 120 65 1 0 0 0 0 -1 0 1 0 32056.dat
1 0 -160 100 50 0 0 -1 0 1 0 1 0 0 2780.dat
1 0 -120 120 0 0 0 -1 0 1 0 1 0 0 3707.dat
1 72 -120 120 -75 1 0 0 0 1 0 0 0 1 32123a.dat
1 72 -120 120 75 1 0 0 0 1 0 0 0 1 32123a.dat
1 4 -160 -80 10 0.067 0 0.9978 0.9978 0 -0.067 0 1 0 32524.dat
1 0 -160 -80 0 0 0 -1 0 1 0 1 0 0 3707.dat
1 72 -160 -80 -25 1 0 0 0 1 0 0 0 1 32123a.dat
1 72 -160 -80 -10 1 0 0 0 1 0 0 0 1 3713.dat
1 72 -160 -80 25 1 0 0 0 1 0 0 0 1 32123a.dat
1 72 -160 -80 -75 1 0 0 0 1 0 0 0 1 32123a.dat
1 72 -160 -80 75 1 0 0 0 1 0 0 0 1 32123a.dat
1 71 -160 -120 -55 1 0 0 0 0 1 0 -1 0 32056.dat
1 71 -160 -120 -65 1 0 0 0 0 1 0 -1 0 32056.dat
1 0 -160 -100 -50 0 0 -1 0 1 0 1 0 0 2780.dat
1 71 -160 -120 55 1 0 0 0 0 1 0 -1 0 32056.dat
1 71 -160 -120 65 1 0 0 0 0 1 0 -1 0 32056.dat
1 0 -160 -100 50 0 0 -1 0 1 0 1 0 0 2780.dat
1 0 -120 -120 0 0 0 -1 0 1 0 1 0 0 3707.dat
1 72 -120 -120 -75 1 0 0 0 1 0 0 0 1 32123a.dat
1 72 -120 -120 75 1 0 0 0 1 0 0 0 1 32123a.dat
1 4 -90.1573 84.69 -25 -0.067 0 0.9978 0.9978 0 0.067 0 1 0 32449.dat
1 4 -90.1573 84.69 25 -0.067 0 0.9978 0.9978 0 0.067 0 1 0 32449.dat
1 71 -110.112 83.35 10 -0.067 0 0.9978 0.9978 0 0.067 0 1 0 43857.dat
1 0 -120.09 82.68 0 0 -0.067 -0.9978 0 0.9978 -0.067 1 0 0 3705.dat
1 72 -120.09 82.68 -35 0.9978 -0.067 0 0.067 0.9978 0 0 0 1 32123a.dat
1 72 -120.09 82.68 35 0.9978 -0.067 0 0.067 0.9978 0 0 0 1 32123a.dat
1 72 -100.135 84.02 -35 1 0 0 0 1 0 0 0 1 32123a.dat
1 72 -100.135 84.02 35 1 0 0 0 1 0 0 0 1 32123a.dat
1 4 -100.135 84.02 0 0 -0.067 -0.9978 0 0.9978 -0.067 1 0 0 3705.dat
1 72 -60.2247 86.7 -15 1 0 0 0 1 0 0 0 1 32123a.dat
1 72 -60.2247 86.7 15 1 0 0 0 1 0 0 0 1 32123a.dat
1 0 -60.2247 86.7 0 0 -0.067 -0.9978 0 0.9978 -0.067 1 0 0 4519.dat
1 71 -60.2247 86.7 0 0.9978 -0.067 0 0.067 0.9978 0 0 0 1 42610.dat
1 0 -60.2247 86.7 0 0.9978 -0.067 0 0.067 0.9978 0 0 0 1 50945_nominal.dat
1 4 -90.1573 -84.69 -25 0.067 0 0.9978 0.9978 0 -0.067 0 1 0 32449.dat
1 4 -90.1573 -84.69 25 0.067 0 0.9978 0.9978 0 -0.067 0 1 0 32449.dat
1 71 -110.112 -83.35 -10 0.067 0 0.9978 0.9978 0 -0.067 0 1 0 43857.dat
1 0 -120.09 -82.68 0 0 0.067 -0.9978 0 0.9978 0.067 1 0 0 3705.dat
1 72 -120.09 -82.68 -35 0.9978 0.067 0 -0.067 0.9978 0 0 0 1 32123a.dat
1 72 -120.09 -82.68 35 0.9978 0.067 0 -0.067 0.9978 0 0 0 1 32123a.dat
1 72 -100.135 -84.02 -35 1 0 0 0 1 0 0 0 1 32123a.dat
1 72 -100.135 -84.02 35 1 0 0 0 1 0 0 0 1 32123a.dat
1 4 -100.135 -84.02 0 0 0.067 -0.9978 0 0.9978 0.067 1 0 0 3705.dat
1 72 -60.2247 -86.7 -15 1 0 0 0 1 0 0 0 1 32123a.dat
1 72 -60.2247 -86.7 15 1 0 0 0 1 0 0 0 1 32123a.dat
1 0 -60.2247 -86.7 0 0 0.067 -0.9978 0 0.9978 0.067 1 0 0 4519.dat
1 71 -60.2247 -86.7 0 0.9978 0.067 0 -0.067 0.9978 0 0 0 1 42610.dat
1 0 -60.2247 -86.7 0 0.9978 0.067 0 -0.067 0.9978 0 0 0 1 50945_nominal.dat
1 0 -220.443 0 0 0 0 -1 0 1 0 1 0 0 3705.dat
1 25 -210.177 -38.66 -10 0.9665 0 0.2567 0.2567 0 -0.9665 0 1 0 32316.dat
1 71 -199.91 -77.32 0 0 0 -1 0 1 0 1 0 0 3673.dat
1 14 -220.443 0 -25 0 0 1 1 0 0 0 1 0 11478.dat
1 72 -220.443 0 -35 1 0 0 0 1 0 0 0 1 32123a.dat
1 25 -210.177 38.66 10 -0.9665 0 0.2567 0.2567 0 0.9665 0 1 0 32316.dat
1 71 -199.91 77.32 0 0 0 -1 0 1 0 1 0 0 3673.dat
1 14 -220.443 0 25 0 0 1 1 0 0 0 1 0 11478.dat
1 72 -220.443 0 35 1 0 0 0 1 0 0 0 1 32123a.dat
1 1 -260.222 -40.0006 -40 -1 0 -0.0055 -0.0055 0 1 0 1 0 32316.dat
1 0 -260 -80 -58 0 0 -1 0 1 0 1 0 0 24316.dat
1 72 -260 -80 -75 1 0 0 0 1 0 0 0 1 32123a.dat
1 72 -260.443 -0.0012 -55 1 0 0 0 1 0 0 0 1 32123a.dat
1 1 -180.222 40.0006 -40 1 0 -0.0055 -0.0055 0 -1 0 1 0 32316.dat
1 0 -180 80 -58 0 0 -1 0 1 0 1 0 0 24316.dat
1 72 -180 80 -75 1 0 0 0 1 0 0 0 1 32123a.dat
1 0 -180.443 0.0012 -40 0 0 -1 0 1 0 1 0 0 32062.dat
1 72 -180.443 0.0012 -55 1 0 0 0 1 0 0 0 1 32123a.dat
1 1 -260.222 -40.0006 40 -1 0 -0.0055 -0.0055 0 1 0 1 0 32316.dat
1 0 -260 -80 58 0 0 1 0 1 0 -1 0 0 24316.dat
1 72 -260 -80 75 1 0 0 0 1 0 0 0 1 32123a.dat
1 72 -260.443 -0.0012 55 1 0 0 0 1 0 0 0 1 32123a.dat
1 1 -180.222 40.0006 40 1 0 -0.0055 -0.0055 0 -1 0 1 0 32316.dat
1 0 -180 80 58 0 0 1 0 1 0 -1 0 0 24316.dat
1 72 -180 80 75 1 0 0 0 1 0 0 0 1 32123a.dat
1 0 -180.443 0.0012 40 0 0 -1 0 1 0 1 0 0 32062.dat
1 72 -180.443 0.0012 55 1 0 0 0 1 0 0 0 1 32123a.dat
1 0 -280.443 0 0 0 0 1 0 1 0 -1 0 0 32013.dat
1 0 -280.443 0 0 0 0.0001 -1 0 1 0.0001 1 0 0 4519.dat
1 72 -280.443 0 -25 1 0.0001 0 -0.0001 1 0 0 0 1 32123a.dat
1 72 -280.443 0 25 1 0.0001 0 -0.0001 1 0 0 0 1 32123a.dat
1 0 -310.443 0 0 1 0 0 0 1 0 0 0 1 32062.dat
1 0 -330.443 0 0 0 0 1 0 1 0 -1 0 0 59443.dat
1 14 -440.443 0 0 1 0 0 0 1 0 0 0 1 23948.dat
1 2 -300 -60 -80 1 0 0 0 0 1 0 -1 0 32526.dat
1 25 -300 20 -60 0 0 1 1 0 0 0 1 0 32523.dat
1 25 -310 -20 -60 0 0 1 1 0 0 0 1 0 43857.dat
1 0 -320 -20 -50 0 0 -1 0 1 0 1 0 0 2780.dat
1 0 -320 20 -50 0 0 -1 0 1 0 1 0 0 2780.dat
1 1 -300 -20 -80 0 0 1 0 1 0 -1 0 0 6558.dat
1 1 -300 20 -80 0 0 1 0 1 0 -1 0 0 6558.dat
1 1 -280 20 -80 0 0 1 0 1 0 -1 0 0 6558.dat
1 0 -260 20 -90 0 0 -1 0 1 0 1 0 0 2780.dat
1 2 -300 -60 80 1 0 0 0 0 1 0 -1 0 32526.dat
1 25 -300 20 60 0 0 1 1 0 0 0 1 0 32523.dat
1 25 -310 -20 60 0 0 1 1 0 0 0 1 0 43857.dat
1 0 -320 -20 50 0 0 -1 0 1 0 1 0 0 2780.dat
1 0 -320 20 50 0 0 -1 0 1 0 1 0 0 2780.dat
1 1 -300 -20 80 0 0 -1 0 1 0 1 0 0 6558.dat
1 1 -300 20 80 0 0 -1 0 1 0 1 0 0 6558.dat
1 1 -280 20 80 0 0 -1 0 1 0 1 0 0 6558.dat
1 0 -260 20 90 0 0 -1 0 1 0 1 0 0 2780.dat
1 0 -260.443 -0.0012 0 0 0 -1 0 1 0 1 0 0 3706.dat
1 72 -260.443 -0.0012 0 1 0 0 0 1 0 0 0 1 3713.dat
1 22 -270.443 -0.0006 -15 0.0001 0 1 1 0 -0.0001 0 1 0 32449.dat
1 22 -270.443 -0.0006 15 0.0001 0 1 1 0 -0.0001 0 1 0 32449.dat
0 STEP
