0 机械头系统候选（设计核对）
0 Name: model.ldr
0 Author: quadcuber

1 71 -260 -80 -60 1 0 0 0 0 1 0 -1 0 32140.dat
1 71 -180 80 -60 1 0 0 0 0 -1 0 1 0 32140.dat
1 71 -260 -80 60 1 0 0 0 0 1 0 -1 0 32140.dat
1 71 -180 80 60 1 0 0 0 0 -1 0 1 0 32140.dat
1 4 -160 80 -10 -0.4171 0 0.9089 0.9089 0 0.4171 0 1 0 32524.dat
1 4 -160 -80 10 0.4226 0 0.9063 0.9063 0 -0.4226 0 1 0 32524.dat
1 4 -96.3789 109.195 -25 -0.4171 0 0.9089 0.9089 0 0.4171 0 1 0 32449.dat
1 4 -96.3789 109.195 25 -0.4171 0 0.9089 0.9089 0 0.4171 0 1 0 32449.dat
1 71 -114.556 100.854 10 -0.4171 0 0.9089 0.9089 0 0.4171 0 1 0 43857.dat
1 0 -123.645 96.6829 0 0 -0.4171 -0.9089 0 0.9089 -0.4171 1 0 0 3705.dat
1 72 -123.645 96.6829 -35 0.9089 -0.4171 0 0.4171 0.9089 0 0 0 1 32123a.dat
1 72 -123.645 96.6829 35 0.9089 -0.4171 0 0.4171 0.9089 0 0 0 1 32123a.dat
1 72 -105.468 105.024 -35 1 0 0 0 1 0 0 0 1 32123a.dat
1 72 -105.468 105.024 35 1 0 0 0 1 0 0 0 1 32123a.dat
1 4 -105.468 105.024 0 0 -0.4171 -0.9089 0 0.9089 -0.4171 1 0 0 3705.dat
1 72 -69.1127 121.707 -15 1 0 0 0 1 0 0 0 1 32123a.dat
1 72 -69.1127 121.707 15 1 0 0 0 1 0 0 0 1 32123a.dat
1 0 -69.1127 121.707 0 0 -0.4171 -0.9089 0 0.9089 -0.4171 1 0 0 4519.dat
1 71 -69.1127 121.707 0 0.9089 -0.4171 0 0.4171 0.9089 0 0 0 1 42610.dat
1 0 -69.1127 121.707 0 0.9089 -0.4171 0 0.4171 0.9089 0 0 0 1 50945_nominal.dat
1 4 -96.5585 -109.583 -25 0.4226 0 0.9063 0.9063 0 -0.4226 0 1 0 32449.dat
1 4 -96.5585 -109.583 25 0.4226 0 0.9063 0.9063 0 -0.4226 0 1 0 32449.dat
1 71 -114.685 -101.131 -10 0.4226 0 0.9063 0.9063 0 -0.4226 0 1 0 43857.dat
1 0 -123.748 -96.9047 0 0 0.4226 -0.9063 0 0.9063 0.4226 1 0 0 3705.dat
1 72 -123.748 -96.9047 -35 0.9063 0.4226 0 -0.4226 0.9063 0 0 0 1 32123a.dat
1 72 -123.748 -96.9047 35 0.9063 0.4226 0 -0.4226 0.9063 0 0 0 1 32123a.dat
1 72 -105.621 -105.357 -35 1 0 0 0 1 0 0 0 1 32123a.dat
1 72 -105.621 -105.357 35 1 0 0 0 1 0 0 0 1 32123a.dat
1 4 -105.621 -105.357 0 0 0.4226 -0.9063 0 0.9063 0.4226 1 0 0 3705.dat
1 72 -69.3692 -122.262 -15 1 0 0 0 1 0 0 0 1 32123a.dat
1 72 -69.3692 -122.262 15 1 0 0 0 1 0 0 0 1 32123a.dat
1 0 -69.3692 -122.262 0 0 0.4226 -0.9063 0 0.9063 0.4226 1 0 0 4519.dat
1 71 -69.3692 -122.262 0 0.9063 0.4226 0 -0.4226 0.9063 0 0 0 1 42610.dat
1 0 -69.3692 -122.262 0 0.9063 0.4226 0 -0.4226 0.9063 0 0 0 1 50945_nominal.dat
1 0 -245.344 0.0711 0 0 -0.0012 -1 0 1 -0.0012 1 0 0 3705.dat
1 25 -220.798 -31.5121 -10 0.7896 0 0.6136 0.6136 0 -0.7896 0 1 0 32316.dat
1 71 -196.252 -63.0953 0 0 0 -1 0 1 0 1 0 0 3673.dat
1 14 -245.344 0.0711 -25 -0.103 0 0.9947 0.9947 0 0.103 0 1 0 11478.dat
1 72 -245.344 0.0711 -35 1 -0.0012 0 0.0012 1 0 0 0 1 32123a.dat
1 25 -220.85 31.6941 10 -0.7906 0 0.6124 0.6124 0 0.7906 0 1 0 32316.dat
1 71 -196.355 63.3171 0 0 0 -1 0 1 0 1 0 0 3673.dat
1 14 -245.344 0.0711 25 -0.103 0 0.9947 0.9947 0 0.103 0 1 0 11478.dat
1 72 -245.344 0.0711 35 1 -0.0012 0 0.0012 1 0 0 0 1 32123a.dat
1 1 -272.566 -42.025 -40 -0.9494 0 -0.3141 -0.3141 0 0.9494 0 1 0 32316.dat
1 0 -260 -80 -58 0 0 -1 0 1 0 1 0 0 24316.dat
1 72 -260 -80 -75 1 0 0 0 1 0 0 0 1 32123a.dat
1 72 -285.131 -4.0499 -55 0.9947 -0.103 0 0.103 0.9947 0 0 0 1 32123a.dat
1 1 -192.779 42.096 -40 0.9476 0 -0.3195 -0.3195 0 -0.9476 0 1 0 32316.dat
1 0 -180 80 -58 0 0 -1 0 1 0 1 0 0 24316.dat
1 72 -180 80 -75 1 0 0 0 1 0 0 0 1 32123a.dat
1 0 -205.557 4.1921 -40 0 -0.103 -0.9947 0 0.9947 -0.103 1 0 0 32062.dat
1 72 -205.557 4.1921 -55 0.9947 -0.103 0 0.103 0.9947 0 0 0 1 32123a.dat
1 1 -272.566 -42.025 40 -0.9494 0 -0.3141 -0.3141 0 0.9494 0 1 0 32316.dat
1 0 -260 -80 58 0 0 1 0 1 0 -1 0 0 24316.dat
1 72 -260 -80 75 1 0 0 0 1 0 0 0 1 32123a.dat
1 72 -285.131 -4.0499 55 0.9947 -0.103 0 0.103 0.9947 0 0 0 1 32123a.dat
1 1 -192.779 42.096 40 0.9476 0 -0.3195 -0.3195 0 -0.9476 0 1 0 32316.dat
1 0 -180 80 58 0 0 1 0 1 0 -1 0 0 24316.dat
1 72 -180 80 75 1 0 0 0 1 0 0 0 1 32123a.dat
1 0 -205.557 4.1921 40 0 -0.103 -0.9947 0 0.9947 -0.103 1 0 0 32062.dat
1 72 -205.557 4.1921 55 0.9947 -0.103 0 0.103 0.9947 0 0 0 1 32123a.dat
1 0 -304.717 0 0 0 0 1 0 1 0 -1 0 0 32013.dat
1 0 -304.717 0 0 0 0.2025 -0.9793 0 0.9793 0.2025 1 0 0 4519.dat
1 72 -304.717 0 -25 0.9793 0.2025 0 -0.2025 0.9793 0 0 0 1 32123a.dat
1 72 -304.717 0 25 0.9793 0.2025 0 -0.2025 0.9793 0 0 0 1 32123a.dat
1 0 -334.717 0 0 1 0 0 0 1 0 0 0 1 32062.dat
1 0 -354.717 0 0 0 0 1 0 1 0 -1 0 0 59443.dat
1 0 -285.131 -4.0499 0 0 -0.103 -0.9947 0 0.9947 -0.103 1 0 0 3706.dat
1 72 -285.131 -4.0499 0 0.9947 -0.103 0 0.103 0.9947 0 0 0 1 3713.dat
1 22 -294.924 -2.025 -15 0.2025 0 0.9793 0.9793 0 -0.2025 0 1 0 32449.dat
1 22 -294.924 -2.025 15 0.2025 0 0.9793 0.9793 0 -0.2025 0 1 0 32449.dat
0 STEP
