0 quadcuber 单臂原型 (EV3 大马达)
0 Name: model.ldr
0 Author: quadcuber

1 71 40 120 -260 0 0 1 0 1 0 -1 0 0 64179.dat
1 0 -20 140 -160 1 0 0 0 1 0 0 0 1 32278.dat
1 0 -20 130 -300 0 -1 0 1 0 0 0 0 1 2780.dat
1 0 -20 130 -220 0 -1 0 1 0 0 0 0 1 2780.dat
1 0 100 140 -160 1 0 0 0 1 0 0 0 1 32278.dat
1 0 100 130 -300 0 -1 0 1 0 0 0 0 1 2780.dat
1 0 100 130 -220 0 -1 0 1 0 0 0 0 1 2780.dat
0 STEP
1 71 520 120 -260 0 0 1 0 1 0 -1 0 0 64179.dat
1 0 460 140 -160 1 0 0 0 1 0 0 0 1 32278.dat
1 0 460 130 -300 0 -1 0 1 0 0 0 0 1 2780.dat
1 0 460 130 -220 0 -1 0 1 0 0 0 0 1 2780.dat
1 0 580 140 -160 1 0 0 0 1 0 0 0 1 32278.dat
1 0 580 130 -300 0 -1 0 1 0 0 0 0 1 2780.dat
1 0 580 130 -220 0 -1 0 1 0 0 0 0 1 2780.dat
0 STEP
1 71 40 40 -300 1 0 0 0 0 1 0 -1 0 64179.dat
1 0 20 110 -300 0 -1 0 1 0 0 0 0 1 2780.dat
1 0 60 110 -300 0 -1 0 1 0 0 0 0 1 2780.dat
1 71 520 40 -300 1 0 0 0 0 1 0 -1 0 64179.dat
1 0 500 110 -300 0 -1 0 1 0 0 0 0 1 2780.dat
1 0 540 110 -300 0 -1 0 1 0 0 0 0 1 2780.dat
0 STEP
1 0 140 -20 -280 0 0 1 1 0 0 0 1 0 32278.dat
1 0 440 -20 -280 0 0 1 1 0 0 0 1 0 32278.dat
1 0 80 -20 -290 0 0 -1 0 1 0 1 0 0 2780.dat
1 0 560 -20 -290 0 0 -1 0 1 0 1 0 0 2780.dat
1 0 0 -20 -290 0 0 -1 0 1 0 1 0 0 2780.dat
1 0 140 20 -280 0 0 1 1 0 0 0 1 0 32278.dat
1 0 440 20 -280 0 0 1 1 0 0 0 1 0 32278.dat
1 0 80 20 -290 0 0 -1 0 1 0 1 0 0 2780.dat
1 0 560 20 -290 0 0 -1 0 1 0 1 0 0 2780.dat
1 0 140 60 -280 0 0 1 1 0 0 0 1 0 32278.dat
1 0 440 60 -280 0 0 1 1 0 0 0 1 0 32278.dat
1 0 80 60 -290 0 0 -1 0 1 0 1 0 0 2780.dat
1 0 560 60 -290 0 0 -1 0 1 0 1 0 0 2780.dat
1 0 480 60 -290 0 0 -1 0 1 0 1 0 0 2780.dat
0 STEP
1 71 300 40 -260 1 0 0 0 0 1 0 -1 0 64179.dat
1 0 260 -20 -270 0 0 -1 0 1 0 1 0 0 2780.dat
1 0 260 20 -270 0 0 -1 0 1 0 1 0 0 2780.dat
1 0 260 60 -270 0 0 -1 0 1 0 1 0 0 2780.dat
1 0 340 -20 -270 0 0 -1 0 1 0 1 0 0 2780.dat
1 0 340 20 -270 0 0 -1 0 1 0 1 0 0 2780.dat
1 0 340 60 -270 0 0 -1 0 1 0 1 0 0 2780.dat
0 STEP
1 0 40 -20 -220 0 0 1 1 0 0 0 1 0 32524.dat
1 0 40 -20 -240 0 0 1 1 0 0 0 1 0 32524.dat
1 0 40 -20 -260 0 0 1 1 0 0 0 1 0 32524.dat
1 0 40 -20 -230 0 0 -1 0 1 0 1 0 0 2780.dat
1 0 80 -20 -230 0 0 -1 0 1 0 1 0 0 2780.dat
1 0 -20 -20 -250 0 0 -1 0 1 0 1 0 0 2780.dat
1 0 20 -20 -250 0 0 -1 0 1 0 1 0 0 2780.dat
0 STEP
1 0 40 -20 -270 0 0 -1 0 1 0 1 0 0 2780.dat
1 0 60 -20 -270 0 0 -1 0 1 0 1 0 0 2780.dat
0 STEP
1 15 0 0 0 1 0 0 0 1 0 0 0 1 95658.dat
1 71 0 40 -200 0 -1 0 1 0 0 0 0 1 64179.dat
1 4 -20 0 -180 1 0 0 0 1 0 0 0 1 32054.dat
1 4 -20 0 -140 1 0 0 0 1 0 0 0 1 32054.dat
0 STEP
1 0 0 100 -200 1 0 0 0 1 0 0 0 1 32524.dat
1 0 0 90 -240 0 -1 0 1 0 0 0 0 1 2780.dat
1 0 0 90 -200 0 -1 0 1 0 0 0 0 1 2780.dat
1 0 0 90 -160 0 -1 0 1 0 0 0 0 1 2780.dat
0 STEP
1 1 0 20 -280 0 0 1 0 1 0 -1 0 0 6558.dat
1 1 0 60 -280 0 0 1 0 1 0 -1 0 0 6558.dat
1 0 -20 -20 -210 0 0 -1 0 1 0 1 0 0 2780.dat
1 0 0 -20 -210 0 0 -1 0 1 0 1 0 0 2780.dat
1 0 20 -20 -210 0 0 -1 0 1 0 1 0 0 2780.dat
0 STEP
1 71 480 0 -200 0 -1 0 1 0 0 0 0 1 64179.dat
1 0 460 60 -180 0 1 0 0 0 1 1 0 0 32523.dat
1 1 480 40 -180 1 0 0 0 1 0 0 0 1 6558.dat
1 1 480 80 -180 1 0 0 0 1 0 0 0 1 6558.dat
1 0 460 60 -140 0 1 0 0 0 1 1 0 0 32523.dat
1 1 480 40 -140 1 0 0 0 1 0 0 0 1 6558.dat
1 1 480 80 -140 1 0 0 0 1 0 0 0 1 6558.dat
1 0 460 -60 -180 0 1 0 0 0 1 1 0 0 32523.dat
1 1 480 -40 -180 1 0 0 0 1 0 0 0 1 6558.dat
1 1 480 -80 -180 1 0 0 0 1 0 0 0 1 6558.dat
1 0 460 -60 -140 0 1 0 0 0 1 1 0 0 32523.dat
1 1 480 -40 -140 1 0 0 0 1 0 0 0 1 6558.dat
1 1 480 -80 -140 1 0 0 0 1 0 0 0 1 6558.dat
0 STEP
1 4 480 80 -120 0 1 0 -1 0 0 0 0 1 32524.dat
1 0 500 60 -180 0 1 0 0 0 1 1 0 0 32523.dat
1 0 500 60 -140 0 1 0 0 0 1 1 0 0 32523.dat
1 4 480 -80 -120 0 1 0 -1 0 0 0 0 1 32524.dat
1 0 500 -60 -180 0 1 0 0 0 1 1 0 0 32523.dat
1 0 500 -60 -140 0 1 0 0 0 1 1 0 0 32523.dat
0 STEP
1 1 480 -20 -280 0 0 1 0 1 0 -1 0 0 6558.dat
1 1 480 20 -280 0 0 1 0 1 0 -1 0 0 6558.dat
0 STEP
1 0 30 -20 0 1 0 0 0 1 0 0 0 1 2780.dat
1 0 30 20 0 1 0 0 0 1 0 0 0 1 2780.dat
1 1 30 0 0 -1 0 0 0 1 0 0 0 -1 43093.dat
1 71 100 0 0 0 0 1 1 0 0 0 1 0 64179.dat
0 STEP
1 72 100 -70 0 1 0 0 0 0 1 0 -1 0 geekservo.dat
1 1 60 -60 0 0 1 0 -1 0 0 0 0 1 6558.dat
1 1 140 -60 0 0 1 0 -1 0 0 0 0 1 6558.dat
0 STEP
1 71 306.748 0 0 0 0 1 1 0 0 0 1 0 64179.dat
1 0 286.748 60 -20 -1 0 0 0 0 1 0 1 0 32523.dat
1 1 286.748 40 0 0 0 -1 0 1 0 1 0 0 6558.dat
1 1 286.748 80 0 0 0 -1 0 1 0 1 0 0 6558.dat
1 0 326.748 60 -20 -1 0 0 0 0 1 0 1 0 32523.dat
1 1 326.748 40 0 0 0 -1 0 1 0 1 0 0 6558.dat
1 1 326.748 80 0 0 0 -1 0 1 0 1 0 0 6558.dat
1 0 286.748 -60 -20 -1 0 0 0 0 1 0 1 0 32523.dat
1 1 286.748 -40 0 0 0 -1 0 1 0 1 0 0 6558.dat
1 1 286.748 -80 0 0 0 -1 0 1 0 1 0 0 6558.dat
1 0 326.748 -60 -20 -1 0 0 0 0 1 0 1 0 32523.dat
1 1 326.748 -40 0 0 0 -1 0 1 0 1 0 0 6558.dat
1 1 326.748 -80 0 0 0 -1 0 1 0 1 0 0 6558.dat
0 STEP
1 4 346.748 80 0 0 0 1 1 0 0 0 1 0 40490.dat
1 0 286.748 60 20 -1 0 0 0 0 1 0 1 0 32523.dat
1 0 326.748 60 20 -1 0 0 0 0 1 0 1 0 32523.dat
1 4 346.748 -80 0 0 0 1 1 0 0 0 1 0 40490.dat
1 0 286.748 -60 20 -1 0 0 0 0 1 0 1 0 32523.dat
1 0 326.748 -60 20 -1 0 0 0 0 1 0 1 0 32523.dat
0 STEP
1 0 250 -20 0 1 0 0 0 1 0 0 0 1 3708.dat
1 72 175 -20 0 0 0 1 0 1 0 -1 0 0 32123a.dat
1 0 250 20 0 1 0 0 0 1 0 0 0 1 3708.dat
1 72 175 20 0 0 0 1 0 1 0 -1 0 0 32123a.dat
0 STEP
1 72 140 -20 0 0 0 1 0 1 0 -1 0 0 3713.dat
1 72 140 20 0 0 0 1 0 1 0 -1 0 0 3713.dat
0 STEP
1 72 246.748 -40 30 0 0 -1 0 1 0 1 0 0 32073.dat
1 72 246.748 -40 -15 1 0 0 0 1 0 0 0 1 32123a.dat
1 72 246.748 -40 20 1 0 0 0 1 0 0 0 1 3713.dat
1 72 246.748 -40 40 1 0 0 0 1 0 0 0 1 3713.dat
0 STEP
1 0 110 -70 45 -0.2143 0 0.9768 0.9768 0 0.2143 0 1 0 6632.dat
0 STEP
1 0 188.142 -52.8571 60 -0.2143 0 0.9768 0.9768 0 0.2143 0 1 0 32524.dat
1 0 129.535 -65.7143 60 0 0 -1 0 1 0 1 0 0 2780.dat
1 72 246.748 -40 75 1 0 0 0 1 0 0 0 1 32123a.dat
0 STEP
1 16 480 0 0 1 0 0 0 1 0 0 0 1 cube56.dat
0 STEP
