0 粗梁分层实验
0 Name: model.ldr
0 Author: quadcuber

1 71 -360 0 0 0 -1 0 1 0 0 0 0 1 64179.dat
1 71 -360 100 0 0 -1 0 1 0 0 0 0 1 64179.dat
1 71 -360 200 0 0 -1 0 1 0 0 0 0 1 64179.dat
1 0 -360 50 -40 0 -1 0 1 0 0 0 0 1 2780.dat
1 0 -360 50 0 0 -1 0 1 0 0 0 0 1 2780.dat
1 0 -360 50 40 0 -1 0 1 0 0 0 0 1 2780.dat
1 0 -360 150 -40 0 -1 0 1 0 0 0 0 1 2780.dat
1 0 -360 150 0 0 -1 0 1 0 0 0 0 1 2780.dat
1 0 -360 150 40 0 -1 0 1 0 0 0 0 1 2780.dat
1 15 -420 0 -100 1 0 0 0 0 -1 0 1 0 95658.dat
1 0 -440 210 -120 0 -1 0 1 0 0 0 0 1 2780.dat
1 0 -420 210 -120 0 -1 0 1 0 0 0 0 1 2780.dat
1 0 -400 210 -120 0 -1 0 1 0 0 0 0 1 2780.dat
1 0 -420 220 -120 0 0 1 0 1 0 -1 0 0 32316.dat
1 0 -460 230 -120 0 -1 0 1 0 0 0 0 1 2780.dat
1 0 -380 230 -120 0 -1 0 1 0 0 0 0 1 2780.dat
1 0 -420 240 -120 0 0 1 0 1 0 -1 0 0 32316.dat
1 1 -400 40 -160 1 0 0 0 1 0 0 0 1 6558.dat
1 0 -410 80 -160 1 0 0 0 1 0 0 0 1 2780.dat
1 0 -400 60 -160 0 1 0 0 0 1 1 0 0 32523.dat
1 0 -390 60 -160 1 0 0 0 1 0 0 0 1 2780.dat
1 0 -380 40 -60 0 1 0 -1 0 0 0 0 1 32525.dat
1 0 -380 60 -100 0 1 0 -1 0 0 0 0 1 32524.dat
1 0 -385 0 -100 1 0 0 0 1 0 0 0 1 44294.dat
1 72 -385 0 -100 0 0 1 0 1 0 -1 0 0 32123a.dat
1 72 -375 0 -100 0 0 1 0 1 0 -1 0 0 32123a.dat
1 72 -360 0 -100 0 0 1 0 1 0 -1 0 0 3713.dat
1 14 -340 0 -100 0 0 1 1 0 0 0 1 0 3648b.dat
1 72 -325 0 -100 0 0 1 0 1 0 -1 0 0 32123a.dat
1 0 -370 40 -60 1 0 0 0 1 0 0 0 1 2780.dat
1 0 -370 40 -20 1 0 0 0 1 0 0 0 1 2780.dat
1 0 -370 40 20 1 0 0 0 1 0 0 0 1 2780.dat
1 0 -370 60 -60 1 0 0 0 1 0 0 0 1 2780.dat
1 71 -340 0 0 0 -1 0 0 0 -1 1 0 0 18939.dat
1 4 -360 -20 -40 0 0 1 0 1 0 -1 0 0 32054.dat
1 4 -360 20 40 0 0 -1 0 1 0 1 0 0 32054.dat
1 71 -440 60 40 0 0 1 0 1 0 -1 0 0 64179.dat
1 0 -520 80 0 0 0 1 0 1 0 -1 0 0 32278.dat
1 0 -520 80 80 0 0 1 0 1 0 -1 0 0 32278.dat
1 0 -500 70 80 0 -1 0 1 0 0 0 0 1 2780.dat
1 0 -460 70 80 0 -1 0 1 0 0 0 0 1 2780.dat
1 0 -420 70 80 0 -1 0 1 0 0 0 0 1 2780.dat
1 0 -380 70 80 0 -1 0 1 0 0 0 0 1 2780.dat
1 0 -380 70 0 0 -1 0 1 0 0 0 0 1 2780.dat
1 0 -560 60 80 0 0 1 0 1 0 -1 0 0 32316.dat
1 0 -560 70 80 0 -1 0 1 0 0 0 0 1 2780.dat
1 0 -540 70 80 0 -1 0 1 0 0 0 0 1 2780.dat
1 71 -460 0 0 0 0 1 1 0 0 0 1 0 64179.dat
1 1 -460 60 0 0 1 0 1 0 0 0 0 -1 6558.dat
1 1 -420 60 0 0 1 0 1 0 0 0 0 -1 6558.dat
1 0 -500 70 0 0 -1 0 1 0 0 0 0 1 2780.dat
1 0 -660 60 40 1 0 0 0 1 0 0 0 1 32316.dat
1 0 -660 70 0 0 -1 0 1 0 0 0 0 1 2780.dat
1 0 -660 70 80 0 -1 0 1 0 0 0 0 1 2780.dat
1 0 -640 100 0 0 0 1 0 -1 0 1 0 0 55615.dat
1 0 -620 100 80 0 0 1 0 -1 0 1 0 0 55615.dat
1 72 -560 30 80 -1 0 0 0 0 1 0 1 0 geekservo.dat
1 1 -600 40 80 0 1 0 -1 0 0 0 0 1 6558.dat
1 1 -520 40 80 0 1 0 -1 0 0 0 0 1 6558.dat
1 0 -370 60 20 1 0 0 0 1 0 0 0 1 2780.dat
1 0 -370 60 60 1 0 0 0 1 0 0 0 1 2780.dat
1 0 -640 160 -20 -1 0 0 0 0 1 0 1 0 40490.dat
1 0 -640 100 -10 0 0 -1 0 1 0 1 0 0 2780.dat
1 0 -640 140 -10 0 0 -1 0 1 0 1 0 0 2780.dat
1 0 -620 180 100 -1 0 0 0 0 1 0 1 0 40490.dat
1 0 -620 100 90 0 0 -1 0 1 0 1 0 0 2780.dat
1 0 -620 140 90 0 0 -1 0 1 0 1 0 0 2780.dat
1 0 -450.417 20 0 0 0 1 0 -1 0 1 0 0 6536.dat
1 72 -465.417 0 0 0 0 1 0 1 0 -1 0 0 32123a.dat
1 72 -435.417 0 0 0 0 1 0 1 0 -1 0 0 32123a.dat
1 0 -450.417 20 10 0 0 -1 0 1 0 1 0 0 4519.dat
1 72 -450.417 20 -15 1 0 0 0 1 0 0 0 1 32123a.dat
1 72 -450.417 20 35 1 0 0 0 1 0 0 0 1 32123a.dat
1 0 -570 30 35 0.0833 0 0.9965 0.9965 0 -0.0833 0 1 0 41677.dat
1 0 -550.07 28.3333 20 0 0 -1 0 1 0 1 0 0 32062.dat
1 72 -550.07 28.3333 5 1 0 0 0 1 0 0 0 1 32123a.dat
1 14 -510.209 25 20 -0.0833 0 -0.9965 -0.9965 0 0.0833 0 1 0 32524.dat
1 71 -220 -20 -60 0 0 1 -1 0 0 0 -1 0 32140.dat
1 71 -240 -20 -100 0 0 1 1 0 0 0 1 0 32524.dat
1 71 -220 20 -60 0 0 1 1 0 0 0 1 0 32140.dat
1 71 -240 20 -100 0 0 1 1 0 0 0 1 0 32524.dat
1 71 -220 -20 60 0 0 1 -1 0 0 0 -1 0 32140.dat
1 71 -240 -20 100 0 0 1 1 0 0 0 1 0 32524.dat
1 71 -220 20 60 0 0 1 1 0 0 0 1 0 32140.dat
1 71 -240 20 100 0 0 1 1 0 0 0 1 0 32524.dat
1 71 -260 -80 -80 1 0 0 0 0 1 0 -1 0 32140.dat
1 71 -180 80 -80 1 0 0 0 0 -1 0 1 0 32140.dat
1 71 -270 -20 -60 0 0 1 1 0 0 0 1 0 43857.dat
1 71 -260 -80 80 1 0 0 0 0 1 0 -1 0 32140.dat
1 71 -180 80 80 1 0 0 0 0 -1 0 1 0 32140.dat
1 71 -270 -20 60 0 0 1 1 0 0 0 1 0 43857.dat
1 0 -160 0 -40 -1 0 0 0 0 1 0 1 0 32525.dat
1 0 -160 0 40 -1 0 0 0 0 1 0 1 0 32525.dat
1 71 -340 0 0 0 -1 0 0 0 -1 1 0 0 18938.dat
1 4 -160 80 0 -0.067 0 0.9978 0.9978 0 0.067 0 1 0 32524.dat
1 0 -160 80 0 0 0 -1 0 1 0 1 0 0 3707.dat
1 72 -160 80 -20 1 0 0 0 1 0 0 0 1 3713.dat
1 72 -160 80 20 1 0 0 0 1 0 0 0 1 3713.dat
1 72 -160 80 -75 1 0 0 0 1 0 0 0 1 32123a.dat
1 72 -160 80 75 1 0 0 0 1 0 0 0 1 32123a.dat
1 71 -160 120 -55 1 0 0 0 0 -1 0 1 0 32056.dat
1 71 -160 120 -65 1 0 0 0 0 -1 0 1 0 32056.dat
1 0 -160 100 -50 0 0 -1 0 1 0 1 0 0 2780.dat
1 71 -160 120 55 1 0 0 0 0 -1 0 1 0 32056.dat
1 71 -160 120 65 1 0 0 0 0 -1 0 1 0 32056.dat
1 0 -160 100 50 0 0 -1 0 1 0 1 0 0 2780.dat
1 0 -120 120 0 0 0 -1 0 1 0 1 0 0 3707.dat
1 72 -120 120 -75 1 0 0 0 1 0 0 0 1 32123a.dat
1 72 -120 120 75 1 0 0 0 1 0 0 0 1 32123a.dat
1 4 -160 -80 0 0.067 0 0.9978 0.9978 0 -0.067 0 1 0 32524.dat
1 0 -160 -80 0 0 0 -1 0 1 0 1 0 0 3707.dat
1 72 -160 -80 -20 1 0 0 0 1 0 0 0 1 3713.dat
1 72 -160 -80 20 1 0 0 0 1 0 0 0 1 3713.dat
1 72 -160 -80 -75 1 0 0 0 1 0 0 0 1 32123a.dat
1 72 -160 -80 75 1 0 0 0 1 0 0 0 1 32123a.dat
1 71 -160 -120 -55 1 0 0 0 0 1 0 -1 0 32056.dat
1 71 -160 -120 -65 1 0 0 0 0 1 0 -1 0 32056.dat
1 0 -160 -100 -50 0 0 -1 0 1 0 1 0 0 2780.dat
1 71 -160 -120 55 1 0 0 0 0 1 0 -1 0 32056.dat
1 71 -160 -120 65 1 0 0 0 0 1 0 -1 0 32056.dat
1 0 -160 -100 50 0 0 -1 0 1 0 1 0 0 2780.dat
1 0 -120 -120 0 0 0 -1 0 1 0 1 0 0 3707.dat
1 72 -120 -120 -75 1 0 0 0 1 0 0 0 1 32123a.dat
1 72 -120 -120 75 1 0 0 0 1 0 0 0 1 32123a.dat
1 4 -90.1573 84.69 -15 -0.067 0 0.9978 0.9978 0 0.067 0 1 0 32449.dat
1 4 -90.1573 84.69 15 -0.067 0 0.9978 0.9978 0 0.067 0 1 0 32449.dat
1 0 -120.09 82.68 0 0 -0.067 -0.9978 0 0.9978 -0.067 1 0 0 4519.dat
1 72 -120.09 82.68 -25 0.9978 -0.067 0 0.067 0.9978 0 0 0 1 32123a.dat
1 72 -120.09 82.68 25 0.9978 -0.067 0 0.067 0.9978 0 0 0 1 32123a.dat
1 4 -100.135 84.02 -10 0 -0.067 -0.9978 0 0.9978 -0.067 1 0 0 32054.dat
1 0 -60.2247 86.7 0 0 -0.067 -0.9978 0 0.9978 -0.067 1 0 0 32062.dat
1 71 -60.2247 86.7 0 0.9978 -0.067 0 0.067 0.9978 0 0 0 1 42610.dat
1 0 -60.2247 86.7 0 0.9978 -0.067 0 0.067 0.9978 0 0 0 1 50945_nominal.dat
1 4 -90.1573 -84.69 -15 0.067 0 0.9978 0.9978 0 -0.067 0 1 0 32449.dat
1 4 -90.1573 -84.69 15 0.067 0 0.9978 0.9978 0 -0.067 0 1 0 32449.dat
1 0 -120.09 -82.68 0 0 0.067 -0.9978 0 0.9978 0.067 1 0 0 4519.dat
1 72 -120.09 -82.68 -25 0.9978 0.067 0 -0.067 0.9978 0 0 0 1 32123a.dat
1 72 -120.09 -82.68 25 0.9978 0.067 0 -0.067 0.9978 0 0 0 1 32123a.dat
1 4 -100.135 -84.02 -10 0 0.067 -0.9978 0 0.9978 0.067 1 0 0 32054.dat
1 0 -60.2247 -86.7 0 0 0.067 -0.9978 0 0.9978 0.067 1 0 0 32062.dat
1 71 -60.2247 -86.7 0 0.9978 0.067 0 -0.067 0.9978 0 0 0 1 42610.dat
1 0 -60.2247 -86.7 0 0.9978 0.067 0 -0.067 0.9978 0 0 0 1 50945_nominal.dat
1 0 -220.443 0 0 0 0 -1 0 1 0 1 0 0 3706.dat
1 72 -220.443 0 0 1 0 0 0 1 0 0 0 1 3713.dat
1 14 -210.177 -38.66 -30 0.9665 0 0.2567 0.2567 0 -0.9665 0 1 0 32316.dat
1 0 -199.91 -77.32 -12 0 0 1 0 1 0 -1 0 0 24316.dat
1 72 -199.91 -77.32 15 1 0 0 0 1 0 0 0 1 32123a.dat
1 72 -199.91 -77.32 -15 1 0 0 0 1 0 0 0 1 32123a.dat
1 14 -250.443 0 -15 0 0 1 1 0 0 0 1 0 32449.dat
1 14 -220.443 0 -45 0 0 1 1 0 0 0 1 0 11478.dat
1 72 -220.443 0 -55 1 0 0 0 1 0 0 0 1 32123a.dat
1 14 -210.177 38.66 30 -0.9665 0 0.2567 0.2567 0 0.9665 0 1 0 32316.dat
1 0 -199.91 77.32 12 0 0 -1 0 1 0 1 0 0 24316.dat
1 72 -199.91 77.32 -15 1 0 0 0 1 0 0 0 1 32123a.dat
1 72 -199.91 77.32 15 1 0 0 0 1 0 0 0 1 32123a.dat
1 14 -250.443 0 15 0 0 1 1 0 0 0 1 0 32449.dat
1 14 -220.443 0 45 0 0 1 1 0 0 0 1 0 11478.dat
1 72 -220.443 0 55 1 0 0 0 1 0 0 0 1 32123a.dat
1 14 -260.222 -40.0006 -60 -1 0 -0.0055 -0.0055 0 1 0 1 0 32316.dat
1 0 -260 -80 -70 0 0 -1 0 1 0 1 0 0 3705.dat
1 72 -260 -80 -45 1 0 0 0 1 0 0 0 1 32123a.dat
1 72 -260 -80 -95 1 0 0 0 1 0 0 0 1 32123a.dat
1 0 -260.443 -0.0012 -60 0 0 -1 0 1 0 1 0 0 4519.dat
1 72 -260.443 -0.0012 -75 1 0 0 0 1 0 0 0 1 32123a.dat
1 14 -180.222 40.0006 -60 1 0 -0.0055 -0.0055 0 -1 0 1 0 32316.dat
1 0 -180 80 -70 0 0 -1 0 1 0 1 0 0 3705.dat
1 72 -180 80 -45 1 0 0 0 1 0 0 0 1 32123a.dat
1 72 -180 80 -95 1 0 0 0 1 0 0 0 1 32123a.dat
1 0 -180.443 0.0012 -60 0 0 -1 0 1 0 1 0 0 4519.dat
1 72 -180.443 0.0012 -75 1 0 0 0 1 0 0 0 1 32123a.dat
1 14 -260.222 -40.0006 60 -1 0 -0.0055 -0.0055 0 1 0 1 0 32316.dat
1 0 -260 -80 70 0 0 -1 0 1 0 1 0 0 3705.dat
1 72 -260 -80 45 1 0 0 0 1 0 0 0 1 32123a.dat
1 72 -260 -80 95 1 0 0 0 1 0 0 0 1 32123a.dat
1 0 -260.443 -0.0012 60 0 0 -1 0 1 0 1 0 0 4519.dat
1 72 -260.443 -0.0012 75 1 0 0 0 1 0 0 0 1 32123a.dat
1 14 -180.222 40.0006 60 1 0 -0.0055 -0.0055 0 -1 0 1 0 32316.dat
1 0 -180 80 70 0 0 -1 0 1 0 1 0 0 3705.dat
1 72 -180 80 45 1 0 0 0 1 0 0 0 1 32123a.dat
1 72 -180 80 95 1 0 0 0 1 0 0 0 1 32123a.dat
1 0 -180.443 0.0012 60 0 0 -1 0 1 0 1 0 0 4519.dat
1 72 -180.443 0.0012 75 1 0 0 0 1 0 0 0 1 32123a.dat
1 0 -280.443 0 0 0 0 1 0 1 0 -1 0 0 32013.dat
1 0 -280.443 0 0 0 0 -1 0 1 0 1 0 0 4519.dat
1 72 -280.443 0 -25 1 0 0 0 1 0 0 0 1 32123a.dat
1 72 -280.443 0 25 1 0 0 0 1 0 0 0 1 32123a.dat
1 0 -310.443 0 0 1 0 0 0 1 0 0 0 1 32062.dat
1 0 -330.443 0 0 0 0 1 0 1 0 -1 0 0 59443.dat
1 14 -440.443 0 0 1 0 0 0 1 0 0 0 1 23948.dat
1 71 -240 20 -60 0 0 -1 -1 0 0 0 1 0 32526.dat
1 0 -320 -20 -50 0 0 -1 0 1 0 1 0 0 2780.dat
1 0 -320 20 -50 0 0 -1 0 1 0 1 0 0 2780.dat
1 71 -240 20 60 0 0 -1 -1 0 0 0 1 0 32526.dat
1 0 -320 -20 50 0 0 -1 0 1 0 1 0 0 2780.dat
1 0 -320 20 50 0 0 -1 0 1 0 1 0 0 2780.dat
1 71 -200 -20 -80 0 0 1 1 0 0 0 1 0 32523.dat
1 1 -200 -20 -80 0 0 1 0 1 0 -1 0 0 6558.dat
1 1 -180 -20 -80 0 0 1 0 1 0 -1 0 0 6558.dat
1 71 -210 20 -80 0 0 1 1 0 0 0 1 0 43857.dat
1 1 -200 20 -80 0 0 1 0 1 0 -1 0 0 6558.dat
1 1 -180 20 -80 0 0 1 0 1 0 -1 0 0 6558.dat
1 0 -160 -40 -50 0 0 -1 0 1 0 1 0 0 2780.dat
1 0 -160 -20 -50 0 0 -1 0 1 0 1 0 0 2780.dat
1 1 -160 20 -60 0 0 1 0 1 0 -1 0 0 6558.dat
1 0 -160 40 -50 0 0 -1 0 1 0 1 0 0 2780.dat
1 71 -250 -20 -60 0 0 1 1 0 0 0 1 0 43857.dat
1 1 -260 -20 -80 0 0 1 0 1 0 -1 0 0 6558.dat
1 1 -240 -20 -80 0 0 1 0 1 0 -1 0 0 6558.dat
1 71 -280 20 -80 0 0 1 1 0 0 0 1 0 32523.dat
1 1 -300 20 -80 0 0 1 0 1 0 -1 0 0 6558.dat
1 1 -260 20 -80 0 0 1 0 1 0 -1 0 0 6558.dat
1 71 -200 -20 80 0 0 1 1 0 0 0 1 0 32523.dat
1 1 -200 -20 80 0 0 -1 0 1 0 1 0 0 6558.dat
1 1 -180 -20 80 0 0 -1 0 1 0 1 0 0 6558.dat
1 71 -210 20 80 0 0 1 1 0 0 0 1 0 43857.dat
1 1 -200 20 80 0 0 -1 0 1 0 1 0 0 6558.dat
1 1 -180 20 80 0 0 -1 0 1 0 1 0 0 6558.dat
1 0 -160 -40 50 0 0 -1 0 1 0 1 0 0 2780.dat
1 0 -160 -20 50 0 0 -1 0 1 0 1 0 0 2780.dat
1 1 -160 20 60 0 0 -1 0 1 0 1 0 0 6558.dat
1 0 -160 40 50 0 0 -1 0 1 0 1 0 0 2780.dat
1 71 -250 -20 60 0 0 1 1 0 0 0 1 0 43857.dat
1 1 -260 -20 80 0 0 -1 0 1 0 1 0 0 6558.dat
1 1 -240 -20 80 0 0 -1 0 1 0 1 0 0 6558.dat
1 71 -280 20 80 0 0 1 1 0 0 0 1 0 32523.dat
1 1 -300 20 80 0 0 -1 0 1 0 1 0 0 6558.dat
1 1 -260 20 80 0 0 -1 0 1 0 1 0 0 6558.dat
0 STEP
