0 上下方向核对
0 Name: model.ldr
0 Author: quadcuber

1 72 -385 0 -100 0 0 1 0 1 0 -1 0 0 32123a.dat
1 72 -375 0 -100 0 0 1 0 1 0 -1 0 0 32123a.dat
1 72 -360 0 -100 0 0 1 0 1 0 -1 0 0 3713.dat
1 72 -340 0 -100 0 0 1 1 0 0 0 1 0 3648b.dat
1 4 -325 0 -100 0 0 1 0 1 0 -1 0 0 32123a.dat
1 71 -340 0 0 0 -1 0 0 0 -1 1 0 0 18939.dat
1 71 -240 -20 -80 0 0 1 -1 0 0 0 -1 0 32526.dat
1 71 -240 -20 -100 0 0 1 1 0 0 0 1 0 32524.dat
1 0 -220 -20 -90 0 0 -1 0 1 0 1 0 0 2780.dat
1 0 -180 -20 -90 0 0 -1 0 1 0 1 0 0 2780.dat
1 71 -240 20 -80 0 0 1 1 0 0 0 1 0 32526.dat
1 71 -240 20 -100 0 0 1 1 0 0 0 1 0 32524.dat
1 0 -220 20 -90 0 0 -1 0 1 0 1 0 0 2780.dat
1 0 -160 0 -40 -1 0 0 0 0 1 0 1 0 32525.dat
1 71 -340 0 0 0 -1 0 0 0 -1 1 0 0 18938.dat
1 2 -320 -60 -60 1 0 0 0 0 1 0 -1 0 32526.dat
1 25 -280 20 -80 0 0 1 1 0 0 0 1 0 32523.dat
1 0 -320 -20 -50 0 0 -1 0 1 0 1 0 0 2780.dat
1 0 -320 20 -50 0 0 -1 0 1 0 1 0 0 2780.dat
1 1 -300 20 -80 0 0 1 0 1 0 -1 0 0 6558.dat
1 1 -280 20 -80 0 0 1 0 1 0 -1 0 0 6558.dat
1 0 -260 20 -90 0 0 -1 0 1 0 1 0 0 2780.dat
0 STEP
