0 竖放后架局部核对
0 Name: model.ldr
0 Author: quadcuber

1 71 -240 -20 -100 0 0 1 1 0 0 0 1 0 32524.dat
1 71 -240 20 -100 0 0 1 1 0 0 0 1 0 32524.dat
1 71 -340 0 0 0 -1 0 0 0 -1 1 0 0 18938.dat
1 2 -320 -60 -60 1 0 0 0 0 1 0 -1 0 32526.dat
1 25 -280 20 -80 0 0 1 1 0 0 0 1 0 32523.dat
1 0 -320 -20 -50 0 0 -1 0 1 0 1 0 0 2780.dat
1 0 -320 20 -50 0 0 -1 0 1 0 1 0 0 2780.dat
1 1 -300 20 -80 0 0 1 0 1 0 -1 0 0 6558.dat
1 1 -280 20 -80 0 0 1 0 1 0 -1 0 0 6558.dat
1 0 -260 20 -90 0 0 -1 0 1 0 1 0 0 2780.dat
1 4 -325 0 -100 0 0 1 0 1 0 -1 0 0 32123a.dat
0 STEP
