0 quadcuber 四臂整机 v3
0 Name: model.ldr
0 Author: quadcuber

1 72 380 260 20 0 0 1 0 1 0 -1 0 0 39790.dat
1 72 260 280 -80 0 0 -1 0 1 0 1 0 0 32278.dat
1 0 360 270 -80 0 1 0 1 0 0 0 0 -1 2780.dat
1 0 320 270 -80 0 1 0 1 0 0 0 0 -1 2780.dat
1 0 280 270 -80 0 1 0 1 0 0 0 0 -1 2780.dat
1 0 240 270 -80 0 1 0 1 0 0 0 0 -1 2780.dat
1 72 120 280 -240 -1 0 0 0 1 0 0 0 -1 32278.dat
1 0 120 270 -240 0 1 0 1 0 0 0 0 -1 2780.dat
1 0 120 270 -360 0 1 0 1 0 0 0 0 -1 2780.dat
1 1 120 260 -280 0 -1 0 -1 0 0 0 0 -1 6558.dat
1 1 120 260 -320 0 -1 0 -1 0 0 0 0 -1 6558.dat
1 72 120 260 -160 1 0 0 0 1 0 0 0 1 32526.dat
1 0 120 270 -80 0 1 0 1 0 0 0 0 -1 2780.dat
1 0 160 270 -80 0 1 0 1 0 0 0 0 -1 2780.dat
1 0 120 270 -120 0 1 0 1 0 0 0 0 -1 2780.dat
1 0 120 270 -160 0 1 0 1 0 0 0 0 -1 2780.dat
1 72 -380 260 -20 0 0 -1 0 1 0 1 0 0 39790.dat
1 72 -260 280 80 0 0 1 0 1 0 -1 0 0 32278.dat
1 0 -360 270 80 0 -1 0 1 0 0 0 0 1 2780.dat
1 0 -320 270 80 0 -1 0 1 0 0 0 0 1 2780.dat
1 0 -280 270 80 0 -1 0 1 0 0 0 0 1 2780.dat
1 0 -240 270 80 0 -1 0 1 0 0 0 0 1 2780.dat
1 72 -120 280 240 1 0 0 0 1 0 0 0 1 32278.dat
1 0 -120 270 240 0 -1 0 1 0 0 0 0 1 2780.dat
1 0 -120 270 360 0 -1 0 1 0 0 0 0 1 2780.dat
1 1 -120 260 280 0 1 0 -1 0 0 0 0 1 6558.dat
1 1 -120 260 320 0 1 0 -1 0 0 0 0 1 6558.dat
1 72 -120 260 160 -1 0 0 0 1 0 0 0 -1 32526.dat
1 0 -120 270 80 0 -1 0 1 0 0 0 0 1 2780.dat
1 0 -160 270 80 0 -1 0 1 0 0 0 0 1 2780.dat
1 0 -120 270 120 0 -1 0 1 0 0 0 0 1 2780.dat
1 0 -120 270 160 0 -1 0 1 0 0 0 0 1 2780.dat
1 72 -20 260 380 1 0 0 0 1 0 0 0 1 39790.dat
1 72 80 280 260 -1 0 0 0 1 0 0 0 -1 32278.dat
1 0 80 270 360 0 0 1 1 0 0 0 1 0 2780.dat
1 0 80 270 320 0 0 1 1 0 0 0 1 0 2780.dat
1 0 80 270 280 0 0 1 1 0 0 0 1 0 2780.dat
1 0 80 270 240 0 0 1 1 0 0 0 1 0 2780.dat
1 72 240 280 120 0 0 1 0 1 0 -1 0 0 32278.dat
1 0 240 270 120 0 0 1 1 0 0 0 1 0 2780.dat
1 0 360 270 120 0 0 1 1 0 0 0 1 0 2780.dat
1 1 280 260 120 0 0 1 -1 0 0 0 -1 0 6558.dat
1 1 320 260 120 0 0 1 -1 0 0 0 -1 0 6558.dat
1 72 160 260 120 0 0 -1 0 1 0 1 0 0 32526.dat
1 0 80 270 120 0 0 1 1 0 0 0 1 0 2780.dat
1 0 80 270 160 0 0 1 1 0 0 0 1 0 2780.dat
1 0 120 270 120 0 0 1 1 0 0 0 1 0 2780.dat
1 0 160 270 120 0 0 1 1 0 0 0 1 0 2780.dat
1 72 20 260 -380 -1 0 0 0 1 0 0 0 -1 39790.dat
1 72 -80 280 -260 1 0 0 0 1 0 0 0 1 32278.dat
1 0 -80 270 -360 0 0 -1 1 0 0 0 -1 0 2780.dat
1 0 -80 270 -320 0 0 -1 1 0 0 0 -1 0 2780.dat
1 0 -80 270 -280 0 0 -1 1 0 0 0 -1 0 2780.dat
1 0 -80 270 -240 0 0 -1 1 0 0 0 -1 0 2780.dat
1 72 -240 280 -120 0 0 -1 0 1 0 1 0 0 32278.dat
1 0 -240 270 -120 0 0 -1 1 0 0 0 -1 0 2780.dat
1 0 -360 270 -120 0 0 -1 1 0 0 0 -1 0 2780.dat
1 1 -280 260 -120 0 0 -1 -1 0 0 0 1 0 6558.dat
1 1 -320 260 -120 0 0 -1 -1 0 0 0 1 0 6558.dat
1 72 -160 260 -120 0 0 1 0 1 0 -1 0 0 32526.dat
1 0 -80 270 -120 0 0 -1 1 0 0 0 -1 0 2780.dat
1 0 -80 270 -160 0 0 -1 1 0 0 0 -1 0 2780.dat
1 0 -120 270 -120 0 0 -1 1 0 0 0 -1 0 2780.dat
1 0 -160 270 -120 0 0 -1 1 0 0 0 -1 0 2780.dat
0 STEP
1 71 -240 0 0 0 -1 0 1 0 0 0 0 1 64179.dat
1 71 -240 100 0 0 -1 0 1 0 0 0 0 1 64179.dat
1 71 -240 200 0 0 -1 0 1 0 0 0 0 1 64179.dat
1 0 -240 50 -40 0 -1 0 1 0 0 0 0 1 2780.dat
1 0 -240 50 0 0 -1 0 1 0 0 0 0 1 2780.dat
1 0 -240 50 40 0 -1 0 1 0 0 0 0 1 2780.dat
1 0 -240 150 -40 0 -1 0 1 0 0 0 0 1 2780.dat
1 0 -240 150 0 0 -1 0 1 0 0 0 0 1 2780.dat
1 0 -240 150 40 0 -1 0 1 0 0 0 0 1 2780.dat
0 STEP
1 15 -300 0 -100 1 0 0 0 0 -1 0 1 0 95658.dat
1 0 -320 210 -120 0 -1 0 1 0 0 0 0 1 2780.dat
1 0 -300 210 -120 0 -1 0 1 0 0 0 0 1 2780.dat
1 0 -280 210 -120 0 -1 0 1 0 0 0 0 1 2780.dat
1 0 -300 220 -120 0 0 1 0 1 0 -1 0 0 32316.dat
1 0 -340 230 -120 0 -1 0 1 0 0 0 0 1 2780.dat
1 0 -260 230 -120 0 -1 0 1 0 0 0 0 1 2780.dat
1 0 -300 240 -120 0 0 1 0 1 0 -1 0 0 32316.dat
0 STEP
1 1 -280 40 -160 1 0 0 0 1 0 0 0 1 6558.dat
1 0 -290 80 -160 1 0 0 0 1 0 0 0 1 2780.dat
1 0 -280 60 -160 0 1 0 0 0 1 1 0 0 32523.dat
1 0 -270 60 -160 1 0 0 0 1 0 0 0 1 2780.dat
1 0 -260 40 -60 0 1 0 -1 0 0 0 0 1 32525.dat
1 0 -260 60 -100 0 1 0 -1 0 0 0 0 1 32524.dat
0 STEP
1 0 -265 0 -100 1 0 0 0 1 0 0 0 1 44294.dat
1 72 -265 0 -100 0 0 1 0 1 0 -1 0 0 32123a.dat
1 72 -255 0 -100 0 0 1 0 1 0 -1 0 0 32123a.dat
1 72 -240 0 -100 0 0 1 0 1 0 -1 0 0 3713.dat
1 14 -220 0 -100 0 0 1 1 0 0 0 1 0 3648b.dat
1 72 -205 0 -100 0 0 1 0 1 0 -1 0 0 32123a.dat
0 STEP
1 0 -250 40 -60 1 0 0 0 1 0 0 0 1 2780.dat
1 0 -250 40 -20 1 0 0 0 1 0 0 0 1 2780.dat
1 0 -250 40 20 1 0 0 0 1 0 0 0 1 2780.dat
1 0 -250 60 -60 1 0 0 0 1 0 0 0 1 2780.dat
0 STEP
1 71 -220 0 0 0 -1 0 0 0 -1 1 0 0 18939.dat
1 4 -240 -20 -40 0 0 1 0 1 0 -1 0 0 32054.dat
1 4 -240 20 40 0 0 -1 0 1 0 1 0 0 32054.dat
0 STEP
1 0 -240 240 -40 0 -1 0 1 0 0 0 0 1 2780.dat
1 0 -240 240 40 0 -1 0 1 0 0 0 0 1 2780.dat
0 STEP
1 71 -320 60 40 0 0 1 0 1 0 -1 0 0 64179.dat
1 0 -400 80 0 0 0 1 0 1 0 -1 0 0 32278.dat
1 0 -400 80 80 0 0 1 0 1 0 -1 0 0 32278.dat
1 0 -380 70 80 0 -1 0 1 0 0 0 0 1 2780.dat
1 0 -340 70 80 0 -1 0 1 0 0 0 0 1 2780.dat
1 0 -300 70 80 0 -1 0 1 0 0 0 0 1 2780.dat
1 0 -260 70 80 0 -1 0 1 0 0 0 0 1 2780.dat
1 0 -260 70 0 0 -1 0 1 0 0 0 0 1 2780.dat
1 0 -460 60 80 0 0 1 0 1 0 -1 0 0 32524.dat
1 0 -520 70 80 0 -1 0 1 0 0 0 0 1 2780.dat
1 0 -480 70 80 0 -1 0 1 0 0 0 0 1 2780.dat
1 0 -440 70 80 0 -1 0 1 0 0 0 0 1 2780.dat
1 71 -380 0 0 0 0 1 1 0 0 0 1 0 64179.dat
1 1 -380 60 0 0 1 0 1 0 0 0 0 -1 6558.dat
1 1 -340 60 0 0 1 0 1 0 0 0 0 -1 6558.dat
1 0 -300 70 0 0 -1 0 1 0 0 0 0 1 2780.dat
1 0 -540 60 40 1 0 0 0 1 0 0 0 1 32316.dat
1 0 -540 70 0 0 -1 0 1 0 0 0 0 1 2780.dat
1 0 -540 70 80 0 -1 0 1 0 0 0 0 1 2780.dat
1 0 -520 100 0 0 0 1 0 -1 0 1 0 0 55615.dat
1 0 -500 100 80 0 0 1 0 -1 0 1 0 0 55615.dat
0 STEP
1 72 -460 30 80 -1 0 0 0 0 1 0 1 0 geekservo.dat
1 1 -500 40 80 0 1 0 -1 0 0 0 0 1 6558.dat
1 1 -420 40 80 0 1 0 -1 0 0 0 0 1 6558.dat
0 STEP
1 0 -250 60 20 1 0 0 0 1 0 0 0 1 2780.dat
1 0 -250 60 60 1 0 0 0 1 0 0 0 1 2780.dat
1 0 -520 240 0 1 0 0 0 1 0 0 0 1 55615.dat
1 0 -520 160 -20 -1 0 0 0 0 1 0 1 0 40490.dat
1 0 -520 100 -10 0 0 -1 0 1 0 1 0 0 2780.dat
1 0 -520 140 -10 0 0 -1 0 1 0 1 0 0 2780.dat
1 0 -500 180 100 -1 0 0 0 0 1 0 1 0 40490.dat
1 0 -500 100 90 0 0 -1 0 1 0 1 0 0 2780.dat
1 0 -500 140 90 0 0 -1 0 1 0 1 0 0 2780.dat
1 0 -500 260 90 0 0 -1 0 1 0 1 0 0 2780.dat
0 STEP
1 0 -370.501 20 0 0 0 1 0 -1 0 1 0 0 6536.dat
1 72 -385.501 0 0 0 0 1 0 1 0 -1 0 0 32123a.dat
1 72 -355.501 0 0 0 0 1 0 1 0 -1 0 0 32123a.dat
1 0 -370.501 20 10 0 0 -1 0 1 0 1 0 0 4519.dat
1 72 -370.501 20 -15 1 0 0 0 1 0 0 0 1 32123a.dat
1 72 -370.501 20 15 1 0 0 0 1 0 0 0 1 32123a.dat
1 72 -370.501 20 35 1 0 0 0 1 0 0 0 1 32123a.dat
1 0 -470 30 35 0.1 0 0.995 0.995 0 -0.1 0 1 0 41677.dat
1 0 -450.1 28 10 0 0 -1 0 1 0 1 0 0 4519.dat
1 72 -450.1 28 15 1 0 0 0 1 0 0 0 1 32123a.dat
1 14 -410.301 24 25 -0.1 0 -0.995 -0.995 0 0.1 0 1 0 32017.dat
0 STEP
1 0 -160 0 80 -1 0 0 0 0 1 0 1 0 32525.dat
1 71 -180 0 80 -1 0 0 0 0 1 0 1 0 40490.dat
1 71 -150 -80 55 0 0 1 1 0 0 0 1 0 32449.dat
1 71 -150 -80 65 0 0 1 1 0 0 0 1 0 32449.dat
1 0 -180 -80 70 0 0 -1 0 1 0 1 0 0 32062.dat
1 0 -160 -80 70 0 0 -1 0 1 0 1 0 0 2780.dat
1 71 -150 -60 55 0 0 1 1 0 0 0 1 0 32449.dat
1 71 -150 -60 65 0 0 1 1 0 0 0 1 0 32449.dat
1 0 -180 -60 70 0 0 -1 0 1 0 1 0 0 32062.dat
1 0 -160 -60 70 0 0 -1 0 1 0 1 0 0 2780.dat
1 71 -150 60 55 0 0 1 1 0 0 0 1 0 32449.dat
1 71 -150 60 65 0 0 1 1 0 0 0 1 0 32449.dat
1 0 -180 60 70 0 0 -1 0 1 0 1 0 0 32062.dat
1 0 -160 60 70 0 0 -1 0 1 0 1 0 0 2780.dat
1 71 -150 80 55 0 0 1 1 0 0 0 1 0 32449.dat
1 71 -150 80 65 0 0 1 1 0 0 0 1 0 32449.dat
1 0 -180 80 70 0 0 -1 0 1 0 1 0 0 32062.dat
1 0 -160 80 70 0 0 -1 0 1 0 1 0 0 2780.dat
1 0 -160 0 -80 -1 0 0 0 0 1 0 1 0 32525.dat
1 71 -180 0 -80 -1 0 0 0 0 1 0 1 0 40490.dat
1 71 -150 -80 -55 0 0 1 1 0 0 0 1 0 32449.dat
1 71 -150 -80 -65 0 0 1 1 0 0 0 1 0 32449.dat
1 0 -180 -80 -70 0 0 -1 0 1 0 1 0 0 32062.dat
1 0 -160 -80 -70 0 0 -1 0 1 0 1 0 0 2780.dat
1 71 -150 -60 -55 0 0 1 1 0 0 0 1 0 32449.dat
1 71 -150 -60 -65 0 0 1 1 0 0 0 1 0 32449.dat
1 0 -180 -60 -70 0 0 -1 0 1 0 1 0 0 32062.dat
1 0 -160 -60 -70 0 0 -1 0 1 0 1 0 0 2780.dat
1 71 -150 60 -55 0 0 1 1 0 0 0 1 0 32449.dat
1 71 -150 60 -65 0 0 1 1 0 0 0 1 0 32449.dat
1 0 -180 60 -70 0 0 -1 0 1 0 1 0 0 32062.dat
1 0 -160 60 -70 0 0 -1 0 1 0 1 0 0 2780.dat
1 71 -150 80 -55 0 0 1 1 0 0 0 1 0 32449.dat
1 71 -150 80 -65 0 0 1 1 0 0 0 1 0 32449.dat
1 0 -180 80 -70 0 0 -1 0 1 0 1 0 0 32062.dat
1 0 -160 80 -70 0 0 -1 0 1 0 1 0 0 2780.dat
0 STEP
1 0 -120 -60 40 -1 0 0 0 0 1 0 1 0 32523.dat
1 0 -120 -60 50 0 0 -1 0 1 0 1 0 0 32062.dat
1 0 -120 60 40 -1 0 0 0 0 1 0 1 0 32523.dat
1 0 -120 60 50 0 0 -1 0 1 0 1 0 0 32062.dat
1 0 -120 -60 -40 -1 0 0 0 0 1 0 1 0 32523.dat
1 0 -120 -60 -50 0 0 -1 0 1 0 1 0 0 32062.dat
1 0 -120 60 -40 -1 0 0 0 0 1 0 1 0 32523.dat
1 0 -120 60 -50 0 0 -1 0 1 0 1 0 0 32062.dat
0 STEP
1 71 -190 -20 60 0 0 1 1 0 0 0 1 0 43857.dat
1 0 -180 -20 70 0 0 -1 0 1 0 1 0 0 2780.dat
1 71 -190 20 60 0 0 1 1 0 0 0 1 0 43857.dat
1 0 -180 20 70 0 0 -1 0 1 0 1 0 0 2780.dat
1 71 -190 -20 -60 0 0 1 1 0 0 0 1 0 43857.dat
1 0 -180 -20 -70 0 0 -1 0 1 0 1 0 0 2780.dat
1 71 -190 20 -60 0 0 1 1 0 0 0 1 0 43857.dat
1 0 -180 20 -70 0 0 -1 0 1 0 1 0 0 2780.dat
0 STEP
1 71 -220 0 0 0 -1 0 0 0 -1 1 0 0 18938.dat
1 0 -200 -20 50 0 0 -1 0 1 0 1 0 0 2780.dat
1 0 -200 20 50 0 0 -1 0 1 0 1 0 0 2780.dat
1 0 -200 -20 -50 0 0 -1 0 1 0 1 0 0 2780.dat
1 0 -200 20 -50 0 0 -1 0 1 0 1 0 0 2780.dat
0 STEP
1 4 -100 79.9127 0 0.0044 0 1 1 0 -0.0044 0 1 0 32524.dat
1 0 -120 80 0 0 0 -1 0 1 0 1 0 0 44294.dat
1 72 -120 80 -20 1 0 0 0 1 0 0 0 1 3713.dat
1 72 -120 80 20 1 0 0 0 1 0 0 0 1 3713.dat
1 4 -100 -79.9127 0 -0.0044 0 1 1 0 0.0044 0 1 0 32524.dat
1 0 -120 -80 0 0 0 -1 0 1 0 1 0 0 44294.dat
1 72 -120 -80 -20 1 0 0 0 1 0 0 0 1 3713.dat
1 72 -120 -80 20 1 0 0 0 1 0 0 0 1 3713.dat
0 STEP
1 1 -120 99.8255 -25 0.0044 0 1 1 0 -0.0044 0 1 0 11478.dat
1 1 -120 99.8255 25 0.0044 0 1 1 0 -0.0044 0 1 0 11478.dat
1 0 -160 100 0 0 0.0044 -1 0 1 0.0044 1 0 0 3737.dat
1 72 -160 100 0 1 0.0044 0 -0.0044 1 0 0 0 1 3713.dat
1 72 -160 100 -95 1 0.0044 0 -0.0044 1 0 0 0 1 32123a.dat
1 72 -160 100 -15 1 0.0044 0 -0.0044 1 0 0 0 1 32123a.dat
1 72 -160 100 15 1 0.0044 0 -0.0044 1 0 0 0 1 32123a.dat
1 72 -160 100 95 1 0.0044 0 -0.0044 1 0 0 0 1 32123a.dat
1 72 -160 100 -60 1 0.0044 0 -0.0044 1 0 0 0 1 3713.dat
1 72 -160 100 -40 1 0.0044 0 -0.0044 1 0 0 0 1 3713.dat
1 72 -160 100 40 1 0.0044 0 -0.0044 1 0 0 0 1 3713.dat
1 72 -160 100 60 1 0.0044 0 -0.0044 1 0 0 0 1 3713.dat
1 1 -120 -99.8255 -25 -0.0044 0 1 1 0 0.0044 0 1 0 11478.dat
1 1 -120 -99.8255 25 -0.0044 0 1 1 0 0.0044 0 1 0 11478.dat
1 0 -160 -100 0 0 -0.0044 -1 0 1 -0.0044 1 0 0 3737.dat
1 72 -160 -100 0 1 -0.0044 0 0.0044 1 0 0 0 1 3713.dat
1 72 -160 -100 -95 1 -0.0044 0 0.0044 1 0 0 0 1 32123a.dat
1 72 -160 -100 -15 1 -0.0044 0 0.0044 1 0 0 0 1 32123a.dat
1 72 -160 -100 15 1 -0.0044 0 0.0044 1 0 0 0 1 32123a.dat
1 72 -160 -100 95 1 -0.0044 0 0.0044 1 0 0 0 1 32123a.dat
1 72 -160 -100 -60 1 -0.0044 0 0.0044 1 0 0 0 1 3713.dat
1 72 -160 -100 -40 1 -0.0044 0 0.0044 1 0 0 0 1 3713.dat
1 72 -160 -100 40 1 -0.0044 0 0.0044 1 0 0 0 1 3713.dat
1 72 -160 -100 60 1 -0.0044 0 0.0044 1 0 0 0 1 3713.dat
0 STEP
1 25 -80.0008 79.6509 -15 1 0 0 0 0 1 0 -1 0 32056.dat
1 25 -80.0008 79.6509 15 1 0 0 0 0 1 0 -1 0 32056.dat
1 0 -40.0008 79.6509 0 0 0 -1 0 1 0 1 0 0 32062.dat
1 0 -80.0008 99.6509 0 0 0.0044 -1 0 1 0.0044 1 0 0 4519.dat
1 72 -80.0008 99.6509 0 1 0.0044 0 -0.0044 1 0 0 0 1 3713.dat
1 25 -80.0008 -79.6509 -15 1 0 0 0 0 -1 0 1 0 32056.dat
1 25 -80.0008 -79.6509 15 1 0 0 0 0 -1 0 1 0 32056.dat
1 0 -40.0008 -79.6509 0 0 0 -1 0 1 0 1 0 0 32062.dat
1 0 -80.0008 -99.6509 0 0 -0.0044 -1 0 1 -0.0044 1 0 0 4519.dat
1 72 -80.0008 -99.6509 0 1 -0.0044 0 0.0044 1 0 0 0 1 3713.dat
0 STEP
1 10 -40.0008 79.6509 0 1 0 0 0 1 0 0 0 1 jaw_pad.dat
1 10 -40.0008 -79.6509 0 1 0 0 0 -1 0 0 0 -1 jaw_pad.dat
0 STEP
1 0 -159.648 0 0 0 0 1 0 1 0 -1 0 0 32013.dat
1 0 -159.648 0 0 0 0 -1 0 1 0 1 0 0 3705.dat
1 72 -159.648 0 -35 1 0 0 0 1 0 0 0 1 32123a.dat
1 72 -159.648 0 35 1 0 0 0 1 0 0 0 1 32123a.dat
1 14 -140 80.0873 20 0.8844 0 -0.4667 -0.4667 0 -0.8844 0 1 0 32526.dat
1 0 -140 80.0873 10 0 0 -1 0 1 0 1 0 0 4519.dat
1 72 -140 80.0873 -15 1 0 0 0 1 0 0 0 1 32123a.dat
1 72 -140 80.0873 35 1 0 0 0 1 0 0 0 1 32123a.dat
1 14 -140 -80.0873 -20 0.8844 0 -0.4667 0.4667 0 0.8844 0 -1 0 32526.dat
1 0 -140 -80.0873 -10 0 0 -1 0 1 0 1 0 0 4519.dat
1 72 -140 -80.0873 15 1 0 0 0 1 0 0 0 1 32123a.dat
1 72 -140 -80.0873 -35 1 0 0 0 1 0 0 0 1 32123a.dat
0 STEP
1 71 -199.648 0 0 1 0 0 0 1 0 0 0 1 4519.dat
1 0 -229.648 0 0 0 0 1 0 1 0 -1 0 0 59443.dat
1 71 -349.647 0 0 1 0 0 0 1 0 0 0 1 3708.dat
0 STEP
1 71 240 0 0 0 1 0 1 0 0 0 0 -1 64179.dat
1 71 240 100 0 0 1 0 1 0 0 0 0 -1 64179.dat
1 71 240 200 0 0 1 0 1 0 0 0 0 -1 64179.dat
1 0 240 50 40 0 1 0 1 0 0 0 0 -1 2780.dat
1 0 240 50 0 0 1 0 1 0 0 0 0 -1 2780.dat
1 0 240 50 -40 0 1 0 1 0 0 0 0 -1 2780.dat
1 0 240 150 40 0 1 0 1 0 0 0 0 -1 2780.dat
1 0 240 150 0 0 1 0 1 0 0 0 0 -1 2780.dat
1 0 240 150 -40 0 1 0 1 0 0 0 0 -1 2780.dat
1 15 300 0 100 -1 0 0 0 0 -1 0 -1 0 95658.dat
1 0 320 210 120 0 1 0 1 0 0 0 0 -1 2780.dat
1 0 300 210 120 0 1 0 1 0 0 0 0 -1 2780.dat
1 0 280 210 120 0 1 0 1 0 0 0 0 -1 2780.dat
1 0 300 220 120 0 0 -1 0 1 0 1 0 0 32316.dat
1 0 340 230 120 0 1 0 1 0 0 0 0 -1 2780.dat
1 0 260 230 120 0 1 0 1 0 0 0 0 -1 2780.dat
1 0 300 240 120 0 0 -1 0 1 0 1 0 0 32316.dat
1 1 280 40 160 -1 0 0 0 1 0 0 0 -1 6558.dat
1 0 290 80 160 -1 0 0 0 1 0 0 0 -1 2780.dat
1 0 280 60 160 0 -1 0 0 0 1 -1 0 0 32523.dat
1 0 270 60 160 -1 0 0 0 1 0 0 0 -1 2780.dat
1 0 260 40 60 0 -1 0 -1 0 0 0 0 -1 32525.dat
1 0 260 60 100 0 -1 0 -1 0 0 0 0 -1 32524.dat
1 0 265 0 100 -1 0 0 0 1 0 0 0 -1 44294.dat
1 72 265 0 100 0 0 -1 0 1 0 1 0 0 32123a.dat
1 72 255 0 100 0 0 -1 0 1 0 1 0 0 32123a.dat
1 72 240 0 100 0 0 -1 0 1 0 1 0 0 3713.dat
1 14 220 0 100 0 0 -1 1 0 0 0 -1 0 3648b.dat
1 72 205 0 100 0 0 -1 0 1 0 1 0 0 32123a.dat
1 0 250 40 60 -1 0 0 0 1 0 0 0 -1 2780.dat
1 0 250 40 20 -1 0 0 0 1 0 0 0 -1 2780.dat
1 0 250 40 -20 -1 0 0 0 1 0 0 0 -1 2780.dat
1 0 250 60 60 -1 0 0 0 1 0 0 0 -1 2780.dat
1 71 220 0 0 0 1 0 0 0 -1 -1 0 0 18939.dat
1 4 240 -20 40 0 0 -1 0 1 0 1 0 0 32054.dat
1 4 240 20 -40 0 0 1 0 1 0 -1 0 0 32054.dat
1 0 240 240 40 0 1 0 1 0 0 0 0 -1 2780.dat
1 0 240 240 -40 0 1 0 1 0 0 0 0 -1 2780.dat
1 71 320 60 -40 0 0 -1 0 1 0 1 0 0 64179.dat
1 0 400 80 0 0 0 -1 0 1 0 1 0 0 32278.dat
1 0 400 80 -80 0 0 -1 0 1 0 1 0 0 32278.dat
1 0 380 70 -80 0 1 0 1 0 0 0 0 -1 2780.dat
1 0 340 70 -80 0 1 0 1 0 0 0 0 -1 2780.dat
1 0 300 70 -80 0 1 0 1 0 0 0 0 -1 2780.dat
1 0 260 70 -80 0 1 0 1 0 0 0 0 -1 2780.dat
1 0 260 70 0 0 1 0 1 0 0 0 0 -1 2780.dat
1 0 460 60 -80 0 0 -1 0 1 0 1 0 0 32524.dat
1 0 520 70 -80 0 1 0 1 0 0 0 0 -1 2780.dat
1 0 480 70 -80 0 1 0 1 0 0 0 0 -1 2780.dat
1 0 440 70 -80 0 1 0 1 0 0 0 0 -1 2780.dat
1 71 380 0 0 0 0 -1 1 0 0 0 -1 0 64179.dat
1 1 380 60 0 0 -1 0 1 0 0 0 0 1 6558.dat
1 1 340 60 0 0 -1 0 1 0 0 0 0 1 6558.dat
1 0 300 70 0 0 1 0 1 0 0 0 0 -1 2780.dat
1 0 540 60 -40 -1 0 0 0 1 0 0 0 -1 32316.dat
1 0 540 70 0 0 1 0 1 0 0 0 0 -1 2780.dat
1 0 540 70 -80 0 1 0 1 0 0 0 0 -1 2780.dat
1 0 520 100 0 0 0 -1 0 -1 0 -1 0 0 55615.dat
1 0 500 100 -80 0 0 -1 0 -1 0 -1 0 0 55615.dat
1 72 460 30 -80 1 0 0 0 0 1 0 -1 0 geekservo.dat
1 1 500 40 -80 0 -1 0 -1 0 0 0 0 -1 6558.dat
1 1 420 40 -80 0 -1 0 -1 0 0 0 0 -1 6558.dat
1 0 250 60 -20 -1 0 0 0 1 0 0 0 -1 2780.dat
1 0 250 60 -60 -1 0 0 0 1 0 0 0 -1 2780.dat
1 0 520 240 0 -1 0 0 0 1 0 0 0 -1 55615.dat
1 0 520 160 20 1 0 0 0 0 1 0 -1 0 40490.dat
1 0 520 100 10 0 0 1 0 1 0 -1 0 0 2780.dat
1 0 520 140 10 0 0 1 0 1 0 -1 0 0 2780.dat
1 0 500 180 -100 1 0 0 0 0 1 0 -1 0 40490.dat
1 0 500 100 -90 0 0 1 0 1 0 -1 0 0 2780.dat
1 0 500 140 -90 0 0 1 0 1 0 -1 0 0 2780.dat
1 0 500 260 -90 0 0 1 0 1 0 -1 0 0 2780.dat
1 0 370.501 20 0 0 0 -1 0 -1 0 -1 0 0 6536.dat
1 72 385.501 0 0 0 0 -1 0 1 0 1 0 0 32123a.dat
1 72 355.501 0 0 0 0 -1 0 1 0 1 0 0 32123a.dat
1 0 370.501 20 -10 0 0 1 0 1 0 -1 0 0 4519.dat
1 72 370.501 20 15 -1 0 0 0 1 0 0 0 -1 32123a.dat
1 72 370.501 20 -15 -1 0 0 0 1 0 0 0 -1 32123a.dat
1 72 370.501 20 -35 -1 0 0 0 1 0 0 0 -1 32123a.dat
1 0 470 30 -35 -0.1 0 -0.995 0.995 0 -0.1 0 -1 0 41677.dat
1 0 450.1 28 -10 0 0 1 0 1 0 -1 0 0 4519.dat
1 72 450.1 28 -15 -1 0 0 0 1 0 0 0 -1 32123a.dat
1 14 410.301 24 -25 0.1 0 0.995 -0.995 0 0.1 0 -1 0 32017.dat
1 0 160 0 -80 1 0 0 0 0 1 0 -1 0 32525.dat
1 71 180 0 -80 1 0 0 0 0 1 0 -1 0 40490.dat
1 71 150 -80 -55 0 0 -1 1 0 0 0 -1 0 32449.dat
1 71 150 -80 -65 0 0 -1 1 0 0 0 -1 0 32449.dat
1 0 180 -80 -70 0 0 1 0 1 0 -1 0 0 32062.dat
1 0 160 -80 -70 0 0 1 0 1 0 -1 0 0 2780.dat
1 71 150 -60 -55 0 0 -1 1 0 0 0 -1 0 32449.dat
1 71 150 -60 -65 0 0 -1 1 0 0 0 -1 0 32449.dat
1 0 180 -60 -70 0 0 1 0 1 0 -1 0 0 32062.dat
1 0 160 -60 -70 0 0 1 0 1 0 -1 0 0 2780.dat
1 71 150 60 -55 0 0 -1 1 0 0 0 -1 0 32449.dat
1 71 150 60 -65 0 0 -1 1 0 0 0 -1 0 32449.dat
1 0 180 60 -70 0 0 1 0 1 0 -1 0 0 32062.dat
1 0 160 60 -70 0 0 1 0 1 0 -1 0 0 2780.dat
1 71 150 80 -55 0 0 -1 1 0 0 0 -1 0 32449.dat
1 71 150 80 -65 0 0 -1 1 0 0 0 -1 0 32449.dat
1 0 180 80 -70 0 0 1 0 1 0 -1 0 0 32062.dat
1 0 160 80 -70 0 0 1 0 1 0 -1 0 0 2780.dat
1 0 160 0 80 1 0 0 0 0 1 0 -1 0 32525.dat
1 71 180 0 80 1 0 0 0 0 1 0 -1 0 40490.dat
1 71 150 -80 55 0 0 -1 1 0 0 0 -1 0 32449.dat
1 71 150 -80 65 0 0 -1 1 0 0 0 -1 0 32449.dat
1 0 180 -80 70 0 0 1 0 1 0 -1 0 0 32062.dat
1 0 160 -80 70 0 0 1 0 1 0 -1 0 0 2780.dat
1 71 150 -60 55 0 0 -1 1 0 0 0 -1 0 32449.dat
1 71 150 -60 65 0 0 -1 1 0 0 0 -1 0 32449.dat
1 0 180 -60 70 0 0 1 0 1 0 -1 0 0 32062.dat
1 0 160 -60 70 0 0 1 0 1 0 -1 0 0 2780.dat
1 71 150 60 55 0 0 -1 1 0 0 0 -1 0 32449.dat
1 71 150 60 65 0 0 -1 1 0 0 0 -1 0 32449.dat
1 0 180 60 70 0 0 1 0 1 0 -1 0 0 32062.dat
1 0 160 60 70 0 0 1 0 1 0 -1 0 0 2780.dat
1 71 150 80 55 0 0 -1 1 0 0 0 -1 0 32449.dat
1 71 150 80 65 0 0 -1 1 0 0 0 -1 0 32449.dat
1 0 180 80 70 0 0 1 0 1 0 -1 0 0 32062.dat
1 0 160 80 70 0 0 1 0 1 0 -1 0 0 2780.dat
1 0 120 -60 -40 1 0 0 0 0 1 0 -1 0 32523.dat
1 0 120 -60 -50 0 0 1 0 1 0 -1 0 0 32062.dat
1 0 120 60 -40 1 0 0 0 0 1 0 -1 0 32523.dat
1 0 120 60 -50 0 0 1 0 1 0 -1 0 0 32062.dat
1 0 120 -60 40 1 0 0 0 0 1 0 -1 0 32523.dat
1 0 120 -60 50 0 0 1 0 1 0 -1 0 0 32062.dat
1 0 120 60 40 1 0 0 0 0 1 0 -1 0 32523.dat
1 0 120 60 50 0 0 1 0 1 0 -1 0 0 32062.dat
1 71 190 -20 -60 0 0 -1 1 0 0 0 -1 0 43857.dat
1 0 180 -20 -70 0 0 1 0 1 0 -1 0 0 2780.dat
1 71 190 20 -60 0 0 -1 1 0 0 0 -1 0 43857.dat
1 0 180 20 -70 0 0 1 0 1 0 -1 0 0 2780.dat
1 71 190 -20 60 0 0 -1 1 0 0 0 -1 0 43857.dat
1 0 180 -20 70 0 0 1 0 1 0 -1 0 0 2780.dat
1 71 190 20 60 0 0 -1 1 0 0 0 -1 0 43857.dat
1 0 180 20 70 0 0 1 0 1 0 -1 0 0 2780.dat
1 71 220 0 0 0 1 0 0 0 -1 -1 0 0 18938.dat
1 0 200 -20 -50 0 0 1 0 1 0 -1 0 0 2780.dat
1 0 200 20 -50 0 0 1 0 1 0 -1 0 0 2780.dat
1 0 200 -20 50 0 0 1 0 1 0 -1 0 0 2780.dat
1 0 200 20 50 0 0 1 0 1 0 -1 0 0 2780.dat
1 4 100 79.9127 0 -0.0044 0 -1 1 0 -0.0044 0 -1 0 32524.dat
1 0 120 80 0 0 0 1 0 1 0 -1 0 0 44294.dat
1 72 120 80 20 -1 0 0 0 1 0 0 0 -1 3713.dat
1 72 120 80 -20 -1 0 0 0 1 0 0 0 -1 3713.dat
1 4 100 -79.9127 0 0.0044 0 -1 1 0 0.0044 0 -1 0 32524.dat
1 0 120 -80 0 0 0 1 0 1 0 -1 0 0 44294.dat
1 72 120 -80 20 -1 0 0 0 1 0 0 0 -1 3713.dat
1 72 120 -80 -20 -1 0 0 0 1 0 0 0 -1 3713.dat
1 1 120 99.8255 25 -0.0044 0 -1 1 0 -0.0044 0 -1 0 11478.dat
1 1 120 99.8255 -25 -0.0044 0 -1 1 0 -0.0044 0 -1 0 11478.dat
1 0 160 100 0 0 -0.0044 1 0 1 0.0044 -1 0 0 3737.dat
1 72 160 100 0 -1 -0.0044 0 -0.0044 1 0 0 0 -1 3713.dat
1 72 160 100 95 -1 -0.0044 0 -0.0044 1 0 0 0 -1 32123a.dat
1 72 160 100 15 -1 -0.0044 0 -0.0044 1 0 0 0 -1 32123a.dat
1 72 160 100 -15 -1 -0.0044 0 -0.0044 1 0 0 0 -1 32123a.dat
1 72 160 100 -95 -1 -0.0044 0 -0.0044 1 0 0 0 -1 32123a.dat
1 72 160 100 60 -1 -0.0044 0 -0.0044 1 0 0 0 -1 3713.dat
1 72 160 100 40 -1 -0.0044 0 -0.0044 1 0 0 0 -1 3713.dat
1 72 160 100 -40 -1 -0.0044 0 -0.0044 1 0 0 0 -1 3713.dat
1 72 160 100 -60 -1 -0.0044 0 -0.0044 1 0 0 0 -1 3713.dat
1 1 120 -99.8255 25 0.0044 0 -1 1 0 0.0044 0 -1 0 11478.dat
1 1 120 -99.8255 -25 0.0044 0 -1 1 0 0.0044 0 -1 0 11478.dat
1 0 160 -100 0 0 0.0044 1 0 1 -0.0044 -1 0 0 3737.dat
1 72 160 -100 0 -1 0.0044 0 0.0044 1 0 0 0 -1 3713.dat
1 72 160 -100 95 -1 0.0044 0 0.0044 1 0 0 0 -1 32123a.dat
1 72 160 -100 15 -1 0.0044 0 0.0044 1 0 0 0 -1 32123a.dat
1 72 160 -100 -15 -1 0.0044 0 0.0044 1 0 0 0 -1 32123a.dat
1 72 160 -100 -95 -1 0.0044 0 0.0044 1 0 0 0 -1 32123a.dat
1 72 160 -100 60 -1 0.0044 0 0.0044 1 0 0 0 -1 3713.dat
1 72 160 -100 40 -1 0.0044 0 0.0044 1 0 0 0 -1 3713.dat
1 72 160 -100 -40 -1 0.0044 0 0.0044 1 0 0 0 -1 3713.dat
1 72 160 -100 -60 -1 0.0044 0 0.0044 1 0 0 0 -1 3713.dat
1 25 80.0008 79.6509 15 -1 0 0 0 0 1 0 1 0 32056.dat
1 25 80.0008 79.6509 -15 -1 0 0 0 0 1 0 1 0 32056.dat
1 0 40.0008 79.6509 0 0 0 1 0 1 0 -1 0 0 32062.dat
1 0 80.0008 99.6509 0 0 -0.0044 1 0 1 0.0044 -1 0 0 4519.dat
1 72 80.0008 99.6509 0 -1 -0.0044 0 -0.0044 1 0 0 0 -1 3713.dat
1 25 80.0008 -79.6509 15 -1 0 0 0 0 -1 0 -1 0 32056.dat
1 25 80.0008 -79.6509 -15 -1 0 0 0 0 -1 0 -1 0 32056.dat
1 0 40.0008 -79.6509 0 0 0 1 0 1 0 -1 0 0 32062.dat
1 0 80.0008 -99.6509 0 0 0.0044 1 0 1 -0.0044 -1 0 0 4519.dat
1 72 80.0008 -99.6509 0 -1 0.0044 0 0.0044 1 0 0 0 -1 3713.dat
1 10 40.0008 79.6509 0 -1 0 0 0 1 0 0 0 -1 jaw_pad.dat
1 10 40.0008 -79.6509 0 -1 0 0 0 -1 0 0 0 1 jaw_pad.dat
1 0 159.648 0 0 0 0 -1 0 1 0 1 0 0 32013.dat
1 0 159.648 0 0 0 0 1 0 1 0 -1 0 0 3705.dat
1 72 159.648 0 35 -1 0 0 0 1 0 0 0 -1 32123a.dat
1 72 159.648 0 -35 -1 0 0 0 1 0 0 0 -1 32123a.dat
1 14 140 80.0873 -20 -0.8844 0 0.4667 -0.4667 0 -0.8844 0 -1 0 32526.dat
1 0 140 80.0873 -10 0 0 1 0 1 0 -1 0 0 4519.dat
1 72 140 80.0873 15 -1 0 0 0 1 0 0 0 -1 32123a.dat
1 72 140 80.0873 -35 -1 0 0 0 1 0 0 0 -1 32123a.dat
1 14 140 -80.0873 20 -0.8844 0 0.4667 0.4667 0 0.8844 0 1 0 32526.dat
1 0 140 -80.0873 10 0 0 1 0 1 0 -1 0 0 4519.dat
1 72 140 -80.0873 -15 -1 0 0 0 1 0 0 0 -1 32123a.dat
1 72 140 -80.0873 35 -1 0 0 0 1 0 0 0 -1 32123a.dat
1 71 199.648 0 0 -1 0 0 0 1 0 0 0 -1 4519.dat
1 0 229.648 0 0 0 0 -1 0 1 0 1 0 0 59443.dat
1 71 349.647 0 0 -1 0 0 0 1 0 0 0 -1 3708.dat
1 71 0 0 240 0 0 1 1 0 0 0 1 0 64179.dat
1 71 0 100 240 0 0 1 1 0 0 0 1 0 64179.dat
1 71 0 200 240 0 0 1 1 0 0 0 1 0 64179.dat
1 0 -40 50 240 0 0 1 1 0 0 0 1 0 2780.dat
1 0 0 50 240 0 0 1 1 0 0 0 1 0 2780.dat
1 0 40 50 240 0 0 1 1 0 0 0 1 0 2780.dat
1 0 -40 150 240 0 0 1 1 0 0 0 1 0 2780.dat
1 0 0 150 240 0 0 1 1 0 0 0 1 0 2780.dat
1 0 40 150 240 0 0 1 1 0 0 0 1 0 2780.dat
1 15 -100 0 300 0 1 0 0 0 -1 -1 0 0 95658.dat
1 0 -120 210 320 0 0 1 1 0 0 0 1 0 2780.dat
1 0 -120 210 300 0 0 1 1 0 0 0 1 0 2780.dat
1 0 -120 210 280 0 0 1 1 0 0 0 1 0 2780.dat
1 0 -120 220 300 -1 0 0 0 1 0 0 0 -1 32316.dat
1 0 -120 230 340 0 0 1 1 0 0 0 1 0 2780.dat
1 0 -120 230 260 0 0 1 1 0 0 0 1 0 2780.dat
1 0 -120 240 300 -1 0 0 0 1 0 0 0 -1 32316.dat
1 1 -160 40 280 0 0 1 0 1 0 -1 0 0 6558.dat
1 0 -160 80 290 0 0 1 0 1 0 -1 0 0 2780.dat
1 0 -160 60 280 1 0 0 0 0 1 0 -1 0 32523.dat
1 0 -160 60 270 0 0 1 0 1 0 -1 0 0 2780.dat
1 0 -60 40 260 0 0 1 -1 0 0 0 -1 0 32525.dat
1 0 -100 60 260 0 0 1 -1 0 0 0 -1 0 32524.dat
1 0 -100 0 265 0 0 1 0 1 0 -1 0 0 44294.dat
1 72 -100 0 265 -1 0 0 0 1 0 0 0 -1 32123a.dat
1 72 -100 0 255 -1 0 0 0 1 0 0 0 -1 32123a.dat
1 72 -100 0 240 -1 0 0 0 1 0 0 0 -1 3713.dat
1 14 -100 0 220 0 1 0 1 0 0 0 0 -1 3648b.dat
1 72 -100 0 205 -1 0 0 0 1 0 0 0 -1 32123a.dat
1 0 -60 40 250 0 0 1 0 1 0 -1 0 0 2780.dat
1 0 -20 40 250 0 0 1 0 1 0 -1 0 0 2780.dat
1 0 20 40 250 0 0 1 0 1 0 -1 0 0 2780.dat
1 0 -60 60 250 0 0 1 0 1 0 -1 0 0 2780.dat
1 71 0 0 220 1 0 0 0 0 -1 0 1 0 18939.dat
1 4 -40 -20 240 -1 0 0 0 1 0 0 0 -1 32054.dat
1 4 40 20 240 1 0 0 0 1 0 0 0 1 32054.dat
1 0 -40 240 240 0 0 1 1 0 0 0 1 0 2780.dat
1 0 40 240 240 0 0 1 1 0 0 0 1 0 2780.dat
1 71 40 60 320 -1 0 0 0 1 0 0 0 -1 64179.dat
1 0 0 80 400 -1 0 0 0 1 0 0 0 -1 32278.dat
1 0 80 80 400 -1 0 0 0 1 0 0 0 -1 32278.dat
1 0 80 70 380 0 0 1 1 0 0 0 1 0 2780.dat
1 0 80 70 340 0 0 1 1 0 0 0 1 0 2780.dat
1 0 80 70 300 0 0 1 1 0 0 0 1 0 2780.dat
1 0 80 70 260 0 0 1 1 0 0 0 1 0 2780.dat
1 0 0 70 260 0 0 1 1 0 0 0 1 0 2780.dat
1 0 80 60 460 -1 0 0 0 1 0 0 0 -1 32524.dat
1 0 80 70 520 0 0 1 1 0 0 0 1 0 2780.dat
1 0 80 70 480 0 0 1 1 0 0 0 1 0 2780.dat
1 0 80 70 440 0 0 1 1 0 0 0 1 0 2780.dat
1 71 0 0 380 0 1 0 1 0 0 0 0 -1 64179.dat
1 1 0 60 380 0 0 -1 1 0 0 0 -1 0 6558.dat
1 1 0 60 340 0 0 -1 1 0 0 0 -1 0 6558.dat
1 0 0 70 300 0 0 1 1 0 0 0 1 0 2780.dat
1 0 40 60 540 0 0 1 0 1 0 -1 0 0 32316.dat
1 0 0 70 540 0 0 1 1 0 0 0 1 0 2780.dat
1 0 80 70 540 0 0 1 1 0 0 0 1 0 2780.dat
1 0 0 100 520 1 0 0 0 -1 0 0 0 -1 55615.dat
1 0 80 100 500 1 0 0 0 -1 0 0 0 -1 55615.dat
1 72 80 30 460 0 1 0 0 0 1 1 0 0 geekservo.dat
1 1 80 40 500 0 0 1 -1 0 0 0 -1 0 6558.dat
1 1 80 40 420 0 0 1 -1 0 0 0 -1 0 6558.dat
1 0 20 60 250 0 0 1 0 1 0 -1 0 0 2780.dat
1 0 60 60 250 0 0 1 0 1 0 -1 0 0 2780.dat
1 0 0 240 520 0 0 1 0 1 0 -1 0 0 55615.dat
1 0 -20 160 520 0 1 0 0 0 1 1 0 0 40490.dat
1 0 -10 100 520 1 0 0 0 1 0 0 0 1 2780.dat
1 0 -10 140 520 1 0 0 0 1 0 0 0 1 2780.dat
1 0 100 180 500 0 1 0 0 0 1 1 0 0 40490.dat
1 0 90 100 500 1 0 0 0 1 0 0 0 1 2780.dat
1 0 90 140 500 1 0 0 0 1 0 0 0 1 2780.dat
1 0 90 260 500 1 0 0 0 1 0 0 0 1 2780.dat
1 0 0 20 370.501 1 0 0 0 -1 0 0 0 -1 6536.dat
1 72 0 0 385.501 -1 0 0 0 1 0 0 0 -1 32123a.dat
1 72 0 0 355.501 -1 0 0 0 1 0 0 0 -1 32123a.dat
1 0 10 20 370.501 1 0 0 0 1 0 0 0 1 4519.dat
1 72 -15 20 370.501 0 0 1 0 1 0 -1 0 0 32123a.dat
1 72 15 20 370.501 0 0 1 0 1 0 -1 0 0 32123a.dat
1 72 35 20 370.501 0 0 1 0 1 0 -1 0 0 32123a.dat
1 0 35 30 470 0 1 0 0.995 0 -0.1 -0.1 0 -0.995 41677.dat
1 0 10 28 450.1 1 0 0 0 1 0 0 0 1 4519.dat
1 72 15 28 450.1 0 0 1 0 1 0 -1 0 0 32123a.dat
1 14 25 24 410.301 0 1 0 -0.995 0 0.1 0.1 0 0.995 32017.dat
1 0 80 0 160 0 1 0 0 0 1 1 0 0 32525.dat
1 71 80 0 180 0 1 0 0 0 1 1 0 0 40490.dat
1 71 55 -80 150 0 1 0 1 0 0 0 0 -1 32449.dat
1 71 65 -80 150 0 1 0 1 0 0 0 0 -1 32449.dat
1 0 70 -80 180 1 0 0 0 1 0 0 0 1 32062.dat
1 0 70 -80 160 1 0 0 0 1 0 0 0 1 2780.dat
1 71 55 -60 150 0 1 0 1 0 0 0 0 -1 32449.dat
1 71 65 -60 150 0 1 0 1 0 0 0 0 -1 32449.dat
1 0 70 -60 180 1 0 0 0 1 0 0 0 1 32062.dat
1 0 70 -60 160 1 0 0 0 1 0 0 0 1 2780.dat
1 71 55 60 150 0 1 0 1 0 0 0 0 -1 32449.dat
1 71 65 60 150 0 1 0 1 0 0 0 0 -1 32449.dat
1 0 70 60 180 1 0 0 0 1 0 0 0 1 32062.dat
1 0 70 60 160 1 0 0 0 1 0 0 0 1 2780.dat
1 71 55 80 150 0 1 0 1 0 0 0 0 -1 32449.dat
1 71 65 80 150 0 1 0 1 0 0 0 0 -1 32449.dat
1 0 70 80 180 1 0 0 0 1 0 0 0 1 32062.dat
1 0 70 80 160 1 0 0 0 1 0 0 0 1 2780.dat
1 0 -80 0 160 0 1 0 0 0 1 1 0 0 32525.dat
1 71 -80 0 180 0 1 0 0 0 1 1 0 0 40490.dat
1 71 -55 -80 150 0 1 0 1 0 0 0 0 -1 32449.dat
1 71 -65 -80 150 0 1 0 1 0 0 0 0 -1 32449.dat
1 0 -70 -80 180 1 0 0 0 1 0 0 0 1 32062.dat
1 0 -70 -80 160 1 0 0 0 1 0 0 0 1 2780.dat
1 71 -55 -60 150 0 1 0 1 0 0 0 0 -1 32449.dat
1 71 -65 -60 150 0 1 0 1 0 0 0 0 -1 32449.dat
1 0 -70 -60 180 1 0 0 0 1 0 0 0 1 32062.dat
1 0 -70 -60 160 1 0 0 0 1 0 0 0 1 2780.dat
1 71 -55 60 150 0 1 0 1 0 0 0 0 -1 32449.dat
1 71 -65 60 150 0 1 0 1 0 0 0 0 -1 32449.dat
1 0 -70 60 180 1 0 0 0 1 0 0 0 1 32062.dat
1 0 -70 60 160 1 0 0 0 1 0 0 0 1 2780.dat
1 71 -55 80 150 0 1 0 1 0 0 0 0 -1 32449.dat
1 71 -65 80 150 0 1 0 1 0 0 0 0 -1 32449.dat
1 0 -70 80 180 1 0 0 0 1 0 0 0 1 32062.dat
1 0 -70 80 160 1 0 0 0 1 0 0 0 1 2780.dat
1 0 40 -60 120 0 1 0 0 0 1 1 0 0 32523.dat
1 0 50 -60 120 1 0 0 0 1 0 0 0 1 32062.dat
1 0 40 60 120 0 1 0 0 0 1 1 0 0 32523.dat
1 0 50 60 120 1 0 0 0 1 0 0 0 1 32062.dat
1 0 -40 -60 120 0 1 0 0 0 1 1 0 0 32523.dat
1 0 -50 -60 120 1 0 0 0 1 0 0 0 1 32062.dat
1 0 -40 60 120 0 1 0 0 0 1 1 0 0 32523.dat
1 0 -50 60 120 1 0 0 0 1 0 0 0 1 32062.dat
1 71 60 -20 190 0 1 0 1 0 0 0 0 -1 43857.dat
1 0 70 -20 180 1 0 0 0 1 0 0 0 1 2780.dat
1 71 60 20 190 0 1 0 1 0 0 0 0 -1 43857.dat
1 0 70 20 180 1 0 0 0 1 0 0 0 1 2780.dat
1 71 -60 -20 190 0 1 0 1 0 0 0 0 -1 43857.dat
1 0 -70 -20 180 1 0 0 0 1 0 0 0 1 2780.dat
1 71 -60 20 190 0 1 0 1 0 0 0 0 -1 43857.dat
1 0 -70 20 180 1 0 0 0 1 0 0 0 1 2780.dat
1 71 0 0 220 1 0 0 0 0 -1 0 1 0 18938.dat
1 0 50 -20 200 1 0 0 0 1 0 0 0 1 2780.dat
1 0 50 20 200 1 0 0 0 1 0 0 0 1 2780.dat
1 0 -50 -20 200 1 0 0 0 1 0 0 0 1 2780.dat
1 0 -50 20 200 1 0 0 0 1 0 0 0 1 2780.dat
1 4 0 79.9127 100 0 1 0 1 0 -0.0044 -0.0044 0 -1 32524.dat
1 0 0 80 120 1 0 0 0 1 0 0 0 1 44294.dat
1 72 -20 80 120 0 0 1 0 1 0 -1 0 0 3713.dat
1 72 20 80 120 0 0 1 0 1 0 -1 0 0 3713.dat
1 4 0 -79.9127 100 0 1 0 1 0 0.0044 0.0044 0 -1 32524.dat
1 0 0 -80 120 1 0 0 0 1 0 0 0 1 44294.dat
1 72 -20 -80 120 0 0 1 0 1 0 -1 0 0 3713.dat
1 72 20 -80 120 0 0 1 0 1 0 -1 0 0 3713.dat
1 1 -25 99.8255 120 0 1 0 1 0 -0.0044 -0.0044 0 -1 11478.dat
1 1 25 99.8255 120 0 1 0 1 0 -0.0044 -0.0044 0 -1 11478.dat
1 0 0 100 160 1 0 0 0 1 0.0044 0 -0.0044 1 3737.dat
1 72 0 100 160 0 0 1 -0.0044 1 0 -1 -0.0044 0 3713.dat
1 72 -95 100 160 0 0 1 -0.0044 1 0 -1 -0.0044 0 32123a.dat
1 72 -15 100 160 0 0 1 -0.0044 1 0 -1 -0.0044 0 32123a.dat
1 72 15 100 160 0 0 1 -0.0044 1 0 -1 -0.0044 0 32123a.dat
1 72 95 100 160 0 0 1 -0.0044 1 0 -1 -0.0044 0 32123a.dat
1 72 -60 100 160 0 0 1 -0.0044 1 0 -1 -0.0044 0 3713.dat
1 72 -40 100 160 0 0 1 -0.0044 1 0 -1 -0.0044 0 3713.dat
1 72 40 100 160 0 0 1 -0.0044 1 0 -1 -0.0044 0 3713.dat
1 72 60 100 160 0 0 1 -0.0044 1 0 -1 -0.0044 0 3713.dat
1 1 -25 -99.8255 120 0 1 0 1 0 0.0044 0.0044 0 -1 11478.dat
1 1 25 -99.8255 120 0 1 0 1 0 0.0044 0.0044 0 -1 11478.dat
1 0 0 -100 160 1 0 0 0 1 -0.0044 0 0.0044 1 3737.dat
1 72 0 -100 160 0 0 1 0.0044 1 0 -1 0.0044 0 3713.dat
1 72 -95 -100 160 0 0 1 0.0044 1 0 -1 0.0044 0 32123a.dat
1 72 -15 -100 160 0 0 1 0.0044 1 0 -1 0.0044 0 32123a.dat
1 72 15 -100 160 0 0 1 0.0044 1 0 -1 0.0044 0 32123a.dat
1 72 95 -100 160 0 0 1 0.0044 1 0 -1 0.0044 0 32123a.dat
1 72 -60 -100 160 0 0 1 0.0044 1 0 -1 0.0044 0 3713.dat
1 72 -40 -100 160 0 0 1 0.0044 1 0 -1 0.0044 0 3713.dat
1 72 40 -100 160 0 0 1 0.0044 1 0 -1 0.0044 0 3713.dat
1 72 60 -100 160 0 0 1 0.0044 1 0 -1 0.0044 0 3713.dat
1 25 -15 79.6509 80.0008 0 -1 0 0 0 1 -1 0 0 32056.dat
1 25 15 79.6509 80.0008 0 -1 0 0 0 1 -1 0 0 32056.dat
1 0 0 79.6509 40.0008 1 0 0 0 1 0 0 0 1 32062.dat
1 0 0 99.6509 80.0008 1 0 0 0 1 0.0044 0 -0.0044 1 4519.dat
1 72 0 99.6509 80.0008 0 0 1 -0.0044 1 0 -1 -0.0044 0 3713.dat
1 25 -15 -79.6509 80.0008 0 1 0 0 0 -1 -1 0 0 32056.dat
1 25 15 -79.6509 80.0008 0 1 0 0 0 -1 -1 0 0 32056.dat
1 0 0 -79.6509 40.0008 1 0 0 0 1 0 0 0 1 32062.dat
1 0 0 -99.6509 80.0008 1 0 0 0 1 -0.0044 0 0.0044 1 4519.dat
1 72 0 -99.6509 80.0008 0 0 1 0.0044 1 0 -1 0.0044 0 3713.dat
1 10 0 79.6509 40.0008 0 0 1 0 1 0 -1 0 0 jaw_pad.dat
1 10 0 -79.6509 40.0008 0 0 -1 0 -1 0 -1 0 0 jaw_pad.dat
1 0 0 0 159.648 -1 0 0 0 1 0 0 0 -1 32013.dat
1 0 0 0 159.648 1 0 0 0 1 0 0 0 1 3705.dat
1 72 -35 0 159.648 0 0 1 0 1 0 -1 0 0 32123a.dat
1 72 35 0 159.648 0 0 1 0 1 0 -1 0 0 32123a.dat
1 14 20 80.0873 140 0 1 0 -0.4667 0 -0.8844 -0.8844 0 0.4667 32526.dat
1 0 10 80.0873 140 1 0 0 0 1 0 0 0 1 4519.dat
1 72 -15 80.0873 140 0 0 1 0 1 0 -1 0 0 32123a.dat
1 72 35 80.0873 140 0 0 1 0 1 0 -1 0 0 32123a.dat
1 14 -20 -80.0873 140 0 -1 0 0.4667 0 0.8844 -0.8844 0 0.4667 32526.dat
1 0 -10 -80.0873 140 1 0 0 0 1 0 0 0 1 4519.dat
1 72 15 -80.0873 140 0 0 1 0 1 0 -1 0 0 32123a.dat
1 72 -35 -80.0873 140 0 0 1 0 1 0 -1 0 0 32123a.dat
1 71 0 0 199.648 0 0 1 0 1 0 -1 0 0 4519.dat
1 0 0 0 229.648 -1 0 0 0 1 0 0 0 -1 59443.dat
1 71 0 0 349.647 0 0 1 0 1 0 -1 0 0 3708.dat
1 71 0 0 -240 0 0 -1 1 0 0 0 -1 0 64179.dat
1 71 0 100 -240 0 0 -1 1 0 0 0 -1 0 64179.dat
1 71 0 200 -240 0 0 -1 1 0 0 0 -1 0 64179.dat
1 0 40 50 -240 0 0 -1 1 0 0 0 -1 0 2780.dat
1 0 0 50 -240 0 0 -1 1 0 0 0 -1 0 2780.dat
1 0 -40 50 -240 0 0 -1 1 0 0 0 -1 0 2780.dat
1 0 40 150 -240 0 0 -1 1 0 0 0 -1 0 2780.dat
1 0 0 150 -240 0 0 -1 1 0 0 0 -1 0 2780.dat
1 0 -40 150 -240 0 0 -1 1 0 0 0 -1 0 2780.dat
1 15 100 0 -300 0 -1 0 0 0 -1 1 0 0 95658.dat
1 0 120 210 -320 0 0 -1 1 0 0 0 -1 0 2780.dat
1 0 120 210 -300 0 0 -1 1 0 0 0 -1 0 2780.dat
1 0 120 210 -280 0 0 -1 1 0 0 0 -1 0 2780.dat
1 0 120 220 -300 1 0 0 0 1 0 0 0 1 32316.dat
1 0 120 230 -340 0 0 -1 1 0 0 0 -1 0 2780.dat
1 0 120 230 -260 0 0 -1 1 0 0 0 -1 0 2780.dat
1 0 120 240 -300 1 0 0 0 1 0 0 0 1 32316.dat
1 1 160 40 -280 0 0 -1 0 1 0 1 0 0 6558.dat
1 0 160 80 -290 0 0 -1 0 1 0 1 0 0 2780.dat
1 0 160 60 -280 -1 0 0 0 0 1 0 1 0 32523.dat
1 0 160 60 -270 0 0 -1 0 1 0 1 0 0 2780.dat
1 0 60 40 -260 0 0 -1 -1 0 0 0 1 0 32525.dat
1 0 100 60 -260 0 0 -1 -1 0 0 0 1 0 32524.dat
1 0 100 0 -265 0 0 -1 0 1 0 1 0 0 44294.dat
1 72 100 0 -265 1 0 0 0 1 0 0 0 1 32123a.dat
1 72 100 0 -255 1 0 0 0 1 0 0 0 1 32123a.dat
1 72 100 0 -240 1 0 0 0 1 0 0 0 1 3713.dat
1 14 100 0 -220 0 -1 0 1 0 0 0 0 1 3648b.dat
1 72 100 0 -205 1 0 0 0 1 0 0 0 1 32123a.dat
1 0 60 40 -250 0 0 -1 0 1 0 1 0 0 2780.dat
1 0 20 40 -250 0 0 -1 0 1 0 1 0 0 2780.dat
1 0 -20 40 -250 0 0 -1 0 1 0 1 0 0 2780.dat
1 0 60 60 -250 0 0 -1 0 1 0 1 0 0 2780.dat
1 71 0 0 -220 -1 0 0 0 0 -1 0 -1 0 18939.dat
1 4 40 -20 -240 1 0 0 0 1 0 0 0 1 32054.dat
1 4 -40 20 -240 -1 0 0 0 1 0 0 0 -1 32054.dat
1 0 40 240 -240 0 0 -1 1 0 0 0 -1 0 2780.dat
1 0 -40 240 -240 0 0 -1 1 0 0 0 -1 0 2780.dat
1 71 -40 60 -320 1 0 0 0 1 0 0 0 1 64179.dat
1 0 0 80 -400 1 0 0 0 1 0 0 0 1 32278.dat
1 0 -80 80 -400 1 0 0 0 1 0 0 0 1 32278.dat
1 0 -80 70 -380 0 0 -1 1 0 0 0 -1 0 2780.dat
1 0 -80 70 -340 0 0 -1 1 0 0 0 -1 0 2780.dat
1 0 -80 70 -300 0 0 -1 1 0 0 0 -1 0 2780.dat
1 0 -80 70 -260 0 0 -1 1 0 0 0 -1 0 2780.dat
1 0 0 70 -260 0 0 -1 1 0 0 0 -1 0 2780.dat
1 0 -80 60 -460 1 0 0 0 1 0 0 0 1 32524.dat
1 0 -80 70 -520 0 0 -1 1 0 0 0 -1 0 2780.dat
1 0 -80 70 -480 0 0 -1 1 0 0 0 -1 0 2780.dat
1 0 -80 70 -440 0 0 -1 1 0 0 0 -1 0 2780.dat
1 71 0 0 -380 0 -1 0 1 0 0 0 0 1 64179.dat
1 1 0 60 -380 0 0 1 1 0 0 0 1 0 6558.dat
1 1 0 60 -340 0 0 1 1 0 0 0 1 0 6558.dat
1 0 0 70 -300 0 0 -1 1 0 0 0 -1 0 2780.dat
1 0 -40 60 -540 0 0 -1 0 1 0 1 0 0 32316.dat
1 0 0 70 -540 0 0 -1 1 0 0 0 -1 0 2780.dat
1 0 -80 70 -540 0 0 -1 1 0 0 0 -1 0 2780.dat
1 0 0 100 -520 -1 0 0 0 -1 0 0 0 1 55615.dat
1 0 -80 100 -500 -1 0 0 0 -1 0 0 0 1 55615.dat
1 72 -80 30 -460 0 -1 0 0 0 1 -1 0 0 geekservo.dat
1 1 -80 40 -500 0 0 -1 -1 0 0 0 1 0 6558.dat
1 1 -80 40 -420 0 0 -1 -1 0 0 0 1 0 6558.dat
1 0 -20 60 -250 0 0 -1 0 1 0 1 0 0 2780.dat
1 0 -60 60 -250 0 0 -1 0 1 0 1 0 0 2780.dat
1 0 0 240 -520 0 0 -1 0 1 0 1 0 0 55615.dat
1 0 20 160 -520 0 -1 0 0 0 1 -1 0 0 40490.dat
1 0 10 100 -520 -1 0 0 0 1 0 0 0 -1 2780.dat
1 0 10 140 -520 -1 0 0 0 1 0 0 0 -1 2780.dat
1 0 -100 180 -500 0 -1 0 0 0 1 -1 0 0 40490.dat
1 0 -90 100 -500 -1 0 0 0 1 0 0 0 -1 2780.dat
1 0 -90 140 -500 -1 0 0 0 1 0 0 0 -1 2780.dat
1 0 -90 260 -500 -1 0 0 0 1 0 0 0 -1 2780.dat
1 0 0 20 -370.501 -1 0 0 0 -1 0 0 0 1 6536.dat
1 72 0 0 -385.501 1 0 0 0 1 0 0 0 1 32123a.dat
1 72 0 0 -355.501 1 0 0 0 1 0 0 0 1 32123a.dat
1 0 -10 20 -370.501 -1 0 0 0 1 0 0 0 -1 4519.dat
1 72 15 20 -370.501 0 0 -1 0 1 0 1 0 0 32123a.dat
1 72 -15 20 -370.501 0 0 -1 0 1 0 1 0 0 32123a.dat
1 72 -35 20 -370.501 0 0 -1 0 1 0 1 0 0 32123a.dat
1 0 -35 30 -470 0 -1 0 0.995 0 -0.1 0.1 0 0.995 41677.dat
1 0 -10 28 -450.1 -1 0 0 0 1 0 0 0 -1 4519.dat
1 72 -15 28 -450.1 0 0 -1 0 1 0 1 0 0 32123a.dat
1 14 -25 24 -410.301 0 -1 0 -0.995 0 0.1 -0.1 0 -0.995 32017.dat
1 0 -80 0 -160 0 -1 0 0 0 1 -1 0 0 32525.dat
1 71 -80 0 -180 0 -1 0 0 0 1 -1 0 0 40490.dat
1 71 -55 -80 -150 0 -1 0 1 0 0 0 0 1 32449.dat
1 71 -65 -80 -150 0 -1 0 1 0 0 0 0 1 32449.dat
1 0 -70 -80 -180 -1 0 0 0 1 0 0 0 -1 32062.dat
1 0 -70 -80 -160 -1 0 0 0 1 0 0 0 -1 2780.dat
1 71 -55 -60 -150 0 -1 0 1 0 0 0 0 1 32449.dat
1 71 -65 -60 -150 0 -1 0 1 0 0 0 0 1 32449.dat
1 0 -70 -60 -180 -1 0 0 0 1 0 0 0 -1 32062.dat
1 0 -70 -60 -160 -1 0 0 0 1 0 0 0 -1 2780.dat
1 71 -55 60 -150 0 -1 0 1 0 0 0 0 1 32449.dat
1 71 -65 60 -150 0 -1 0 1 0 0 0 0 1 32449.dat
1 0 -70 60 -180 -1 0 0 0 1 0 0 0 -1 32062.dat
1 0 -70 60 -160 -1 0 0 0 1 0 0 0 -1 2780.dat
1 71 -55 80 -150 0 -1 0 1 0 0 0 0 1 32449.dat
1 71 -65 80 -150 0 -1 0 1 0 0 0 0 1 32449.dat
1 0 -70 80 -180 -1 0 0 0 1 0 0 0 -1 32062.dat
1 0 -70 80 -160 -1 0 0 0 1 0 0 0 -1 2780.dat
1 0 80 0 -160 0 -1 0 0 0 1 -1 0 0 32525.dat
1 71 80 0 -180 0 -1 0 0 0 1 -1 0 0 40490.dat
1 71 55 -80 -150 0 -1 0 1 0 0 0 0 1 32449.dat
1 71 65 -80 -150 0 -1 0 1 0 0 0 0 1 32449.dat
1 0 70 -80 -180 -1 0 0 0 1 0 0 0 -1 32062.dat
1 0 70 -80 -160 -1 0 0 0 1 0 0 0 -1 2780.dat
1 71 55 -60 -150 0 -1 0 1 0 0 0 0 1 32449.dat
1 71 65 -60 -150 0 -1 0 1 0 0 0 0 1 32449.dat
1 0 70 -60 -180 -1 0 0 0 1 0 0 0 -1 32062.dat
1 0 70 -60 -160 -1 0 0 0 1 0 0 0 -1 2780.dat
1 71 55 60 -150 0 -1 0 1 0 0 0 0 1 32449.dat
1 71 65 60 -150 0 -1 0 1 0 0 0 0 1 32449.dat
1 0 70 60 -180 -1 0 0 0 1 0 0 0 -1 32062.dat
1 0 70 60 -160 -1 0 0 0 1 0 0 0 -1 2780.dat
1 71 55 80 -150 0 -1 0 1 0 0 0 0 1 32449.dat
1 71 65 80 -150 0 -1 0 1 0 0 0 0 1 32449.dat
1 0 70 80 -180 -1 0 0 0 1 0 0 0 -1 32062.dat
1 0 70 80 -160 -1 0 0 0 1 0 0 0 -1 2780.dat
1 0 -40 -60 -120 0 -1 0 0 0 1 -1 0 0 32523.dat
1 0 -50 -60 -120 -1 0 0 0 1 0 0 0 -1 32062.dat
1 0 -40 60 -120 0 -1 0 0 0 1 -1 0 0 32523.dat
1 0 -50 60 -120 -1 0 0 0 1 0 0 0 -1 32062.dat
1 0 40 -60 -120 0 -1 0 0 0 1 -1 0 0 32523.dat
1 0 50 -60 -120 -1 0 0 0 1 0 0 0 -1 32062.dat
1 0 40 60 -120 0 -1 0 0 0 1 -1 0 0 32523.dat
1 0 50 60 -120 -1 0 0 0 1 0 0 0 -1 32062.dat
1 71 -60 -20 -190 0 -1 0 1 0 0 0 0 1 43857.dat
1 0 -70 -20 -180 -1 0 0 0 1 0 0 0 -1 2780.dat
1 71 -60 20 -190 0 -1 0 1 0 0 0 0 1 43857.dat
1 0 -70 20 -180 -1 0 0 0 1 0 0 0 -1 2780.dat
1 71 60 -20 -190 0 -1 0 1 0 0 0 0 1 43857.dat
1 0 70 -20 -180 -1 0 0 0 1 0 0 0 -1 2780.dat
1 71 60 20 -190 0 -1 0 1 0 0 0 0 1 43857.dat
1 0 70 20 -180 -1 0 0 0 1 0 0 0 -1 2780.dat
1 71 0 0 -220 -1 0 0 0 0 -1 0 -1 0 18938.dat
1 0 -50 -20 -200 -1 0 0 0 1 0 0 0 -1 2780.dat
1 0 -50 20 -200 -1 0 0 0 1 0 0 0 -1 2780.dat
1 0 50 -20 -200 -1 0 0 0 1 0 0 0 -1 2780.dat
1 0 50 20 -200 -1 0 0 0 1 0 0 0 -1 2780.dat
1 4 0 79.9127 -100 0 -1 0 1 0 -0.0044 0.0044 0 1 32524.dat
1 0 0 80 -120 -1 0 0 0 1 0 0 0 -1 44294.dat
1 72 20 80 -120 0 0 -1 0 1 0 1 0 0 3713.dat
1 72 -20 80 -120 0 0 -1 0 1 0 1 0 0 3713.dat
1 4 0 -79.9127 -100 0 -1 0 1 0 0.0044 -0.0044 0 1 32524.dat
1 0 0 -80 -120 -1 0 0 0 1 0 0 0 -1 44294.dat
1 72 20 -80 -120 0 0 -1 0 1 0 1 0 0 3713.dat
1 72 -20 -80 -120 0 0 -1 0 1 0 1 0 0 3713.dat
1 1 25 99.8255 -120 0 -1 0 1 0 -0.0044 0.0044 0 1 11478.dat
1 1 -25 99.8255 -120 0 -1 0 1 0 -0.0044 0.0044 0 1 11478.dat
1 0 0 100 -160 -1 0 0 0 1 0.0044 0 0.0044 -1 3737.dat
1 72 0 100 -160 0 0 -1 -0.0044 1 0 1 0.0044 0 3713.dat
1 72 95 100 -160 0 0 -1 -0.0044 1 0 1 0.0044 0 32123a.dat
1 72 15 100 -160 0 0 -1 -0.0044 1 0 1 0.0044 0 32123a.dat
1 72 -15 100 -160 0 0 -1 -0.0044 1 0 1 0.0044 0 32123a.dat
1 72 -95 100 -160 0 0 -1 -0.0044 1 0 1 0.0044 0 32123a.dat
1 72 60 100 -160 0 0 -1 -0.0044 1 0 1 0.0044 0 3713.dat
1 72 40 100 -160 0 0 -1 -0.0044 1 0 1 0.0044 0 3713.dat
1 72 -40 100 -160 0 0 -1 -0.0044 1 0 1 0.0044 0 3713.dat
1 72 -60 100 -160 0 0 -1 -0.0044 1 0 1 0.0044 0 3713.dat
1 1 25 -99.8255 -120 0 -1 0 1 0 0.0044 -0.0044 0 1 11478.dat
1 1 -25 -99.8255 -120 0 -1 0 1 0 0.0044 -0.0044 0 1 11478.dat
1 0 0 -100 -160 -1 0 0 0 1 -0.0044 0 -0.0044 -1 3737.dat
1 72 0 -100 -160 0 0 -1 0.0044 1 0 1 -0.0044 0 3713.dat
1 72 95 -100 -160 0 0 -1 0.0044 1 0 1 -0.0044 0 32123a.dat
1 72 15 -100 -160 0 0 -1 0.0044 1 0 1 -0.0044 0 32123a.dat
1 72 -15 -100 -160 0 0 -1 0.0044 1 0 1 -0.0044 0 32123a.dat
1 72 -95 -100 -160 0 0 -1 0.0044 1 0 1 -0.0044 0 32123a.dat
1 72 60 -100 -160 0 0 -1 0.0044 1 0 1 -0.0044 0 3713.dat
1 72 40 -100 -160 0 0 -1 0.0044 1 0 1 -0.0044 0 3713.dat
1 72 -40 -100 -160 0 0 -1 0.0044 1 0 1 -0.0044 0 3713.dat
1 72 -60 -100 -160 0 0 -1 0.0044 1 0 1 -0.0044 0 3713.dat
1 25 15 79.6509 -80.0008 0 1 0 0 0 1 1 0 0 32056.dat
1 25 -15 79.6509 -80.0008 0 1 0 0 0 1 1 0 0 32056.dat
1 0 0 79.6509 -40.0008 -1 0 0 0 1 0 0 0 -1 32062.dat
1 0 0 99.6509 -80.0008 -1 0 0 0 1 0.0044 0 0.0044 -1 4519.dat
1 72 0 99.6509 -80.0008 0 0 -1 -0.0044 1 0 1 0.0044 0 3713.dat
1 25 15 -79.6509 -80.0008 0 -1 0 0 0 -1 1 0 0 32056.dat
1 25 -15 -79.6509 -80.0008 0 -1 0 0 0 -1 1 0 0 32056.dat
1 0 0 -79.6509 -40.0008 -1 0 0 0 1 0 0 0 -1 32062.dat
1 0 0 -99.6509 -80.0008 -1 0 0 0 1 -0.0044 0 -0.0044 -1 4519.dat
1 72 0 -99.6509 -80.0008 0 0 -1 0.0044 1 0 1 -0.0044 0 3713.dat
1 10 0 79.6509 -40.0008 0 0 -1 0 1 0 1 0 0 jaw_pad.dat
1 10 0 -79.6509 -40.0008 0 0 1 0 -1 0 1 0 0 jaw_pad.dat
1 0 0 0 -159.648 1 0 0 0 1 0 0 0 1 32013.dat
1 0 0 0 -159.648 -1 0 0 0 1 0 0 0 -1 3705.dat
1 72 35 0 -159.648 0 0 -1 0 1 0 1 0 0 32123a.dat
1 72 -35 0 -159.648 0 0 -1 0 1 0 1 0 0 32123a.dat
1 14 -20 80.0873 -140 0 -1 0 -0.4667 0 -0.8844 0.8844 0 -0.4667 32526.dat
1 0 -10 80.0873 -140 -1 0 0 0 1 0 0 0 -1 4519.dat
1 72 15 80.0873 -140 0 0 -1 0 1 0 1 0 0 32123a.dat
1 72 -35 80.0873 -140 0 0 -1 0 1 0 1 0 0 32123a.dat
1 14 20 -80.0873 -140 0 1 0 0.4667 0 0.8844 0.8844 0 -0.4667 32526.dat
1 0 10 -80.0873 -140 -1 0 0 0 1 0 0 0 -1 4519.dat
1 72 -15 -80.0873 -140 0 0 -1 0 1 0 1 0 0 32123a.dat
1 72 35 -80.0873 -140 0 0 -1 0 1 0 1 0 0 32123a.dat
1 71 0 0 -199.648 0 0 -1 0 1 0 1 0 0 4519.dat
1 0 0 0 -229.648 1 0 0 0 1 0 0 0 1 59443.dat
1 71 0 0 -349.647 0 0 -1 0 1 0 1 0 0 3708.dat
0 STEP
1 16 0 0 0 1 0 0 0 1 0 0 0 1 cube56.dat
0 STEP
