0 quadcuber 单臂原型 (EV3 中马达)
0 Name: model.ldr
0 Author: quadcuber

1 71 40 120 -260 0 0 1 0 1 0 -1 0 0 64179.dat
1 0 -20 140 -160 1 0 0 0 1 0 0 0 1 32278.dat
1 0 -20 130 -300 0 -1 0 1 0 0 0 0 1 2780.dat
1 0 -20 130 -220 0 -1 0 1 0 0 0 0 1 2780.dat
1 0 100 140 -160 1 0 0 0 1 0 0 0 1 32278.dat
1 0 100 130 -300 0 -1 0 1 0 0 0 0 1 2780.dat
1 0 100 130 -220 0 -1 0 1 0 0 0 0 1 2780.dat
0 STEP
1 71 540 120 -260 0 0 1 0 1 0 -1 0 0 64179.dat
1 0 480 140 -160 1 0 0 0 1 0 0 0 1 32278.dat
1 0 480 130 -300 0 -1 0 1 0 0 0 0 1 2780.dat
1 0 480 130 -220 0 -1 0 1 0 0 0 0 1 2780.dat
1 0 600 140 -160 1 0 0 0 1 0 0 0 1 32278.dat
1 0 600 130 -300 0 -1 0 1 0 0 0 0 1 2780.dat
1 0 600 130 -220 0 -1 0 1 0 0 0 0 1 2780.dat
0 STEP
1 71 40 40 -300 1 0 0 0 0 1 0 -1 0 64179.dat
1 0 20 110 -300 0 -1 0 1 0 0 0 0 1 2780.dat
1 0 60 110 -300 0 -1 0 1 0 0 0 0 1 2780.dat
1 71 540 40 -300 1 0 0 0 0 1 0 -1 0 64179.dat
1 0 520 110 -300 0 -1 0 1 0 0 0 0 1 2780.dat
1 0 560 110 -300 0 -1 0 1 0 0 0 0 1 2780.dat
0 STEP
1 0 140 -20 -280 0 0 1 1 0 0 0 1 0 32278.dat
1 0 440 -20 -280 0 0 1 1 0 0 0 1 0 32278.dat
1 0 80 -20 -290 0 0 -1 0 1 0 1 0 0 2780.dat
1 0 580 -20 -290 0 0 -1 0 1 0 1 0 0 2780.dat
1 0 0 -20 -290 0 0 -1 0 1 0 1 0 0 2780.dat
1 0 140 20 -280 0 0 1 1 0 0 0 1 0 32278.dat
1 0 440 20 -280 0 0 1 1 0 0 0 1 0 32278.dat
1 0 80 20 -290 0 0 -1 0 1 0 1 0 0 2780.dat
1 0 580 20 -290 0 0 -1 0 1 0 1 0 0 2780.dat
1 0 140 60 -280 0 0 1 1 0 0 0 1 0 32278.dat
1 0 440 60 -280 0 0 1 1 0 0 0 1 0 32278.dat
1 0 80 60 -290 0 0 -1 0 1 0 1 0 0 2780.dat
1 0 580 60 -290 0 0 -1 0 1 0 1 0 0 2780.dat
1 0 500 60 -290 0 0 -1 0 1 0 1 0 0 2780.dat
0 STEP
1 71 300 40 -260 1 0 0 0 0 1 0 -1 0 64179.dat
1 0 260 -20 -270 0 0 -1 0 1 0 1 0 0 2780.dat
1 0 260 20 -270 0 0 -1 0 1 0 1 0 0 2780.dat
1 0 260 60 -270 0 0 -1 0 1 0 1 0 0 2780.dat
1 0 340 -20 -270 0 0 -1 0 1 0 1 0 0 2780.dat
1 0 340 20 -270 0 0 -1 0 1 0 1 0 0 2780.dat
1 0 340 60 -270 0 0 -1 0 1 0 1 0 0 2780.dat
0 STEP
1 71 0 40 -200 0 -1 0 1 0 0 0 0 1 64179.dat
1 1 0 20 -280 0 0 1 0 1 0 -1 0 0 6558.dat
1 1 0 60 -280 0 0 1 0 1 0 -1 0 0 6558.dat
0 STEP
1 15 10 0 0 0 0 -1 0 1 0 1 0 0 99455.dat
1 0 20 0 -120 0 1 0 -1 0 0 0 0 1 32278.dat
1 0 10 0 -20 1 0 0 0 1 0 0 0 1 2780.dat
1 0 10 0 20 1 0 0 0 1 0 0 0 1 2780.dat
1 0 30 0 0 1 0 0 0 1 0 0 0 1 3705.dat
0 STEP
1 0 10 0 -260 1 0 0 0 1 0 0 0 1 2780.dat
1 0 10 0 -220 1 0 0 0 1 0 0 0 1 2780.dat
1 0 10 0 -180 1 0 0 0 1 0 0 0 1 2780.dat
1 0 10 0 -140 1 0 0 0 1 0 0 0 1 2780.dat
0 STEP
1 0 40 120 -160 0 0 1 0 1 0 -1 0 0 32524.dat
1 0 -20 130 -160 0 -1 0 1 0 0 0 0 1 2780.dat
1 0 100 130 -160 0 -1 0 1 0 0 0 0 1 2780.dat
1 0 40 120 -80 0 0 1 0 1 0 -1 0 0 32524.dat
1 0 -20 130 -80 0 -1 0 1 0 0 0 0 1 2780.dat
1 0 100 130 -80 0 -1 0 1 0 0 0 0 1 2780.dat
0 STEP
1 0 40 100 -120 1 0 0 0 1 0 0 0 1 40490.dat
0 STEP
1 71 40 40 -120 0 -1 0 1 0 0 0 0 1 64179.dat
1 0 30 0 -100 1 0 0 0 1 0 0 0 1 2780.dat
1 0 30 0 -60 1 0 0 0 1 0 0 0 1 2780.dat
0 STEP
1 0 40 100 -160 0 -1 0 1 0 0 0 0 1 3705.dat
1 72 40 65 -160 1 0 0 0 0 1 0 -1 0 32123a.dat
1 72 40 135 -160 1 0 0 0 0 1 0 -1 0 32123a.dat
1 0 40 100 -80 0 -1 0 1 0 0 0 0 1 3705.dat
1 72 40 65 -80 1 0 0 0 0 1 0 -1 0 32123a.dat
1 72 40 135 -80 1 0 0 0 0 1 0 -1 0 32123a.dat
0 STEP
1 71 500 0 -200 0 -1 0 1 0 0 0 0 1 64179.dat
1 0 480 60 -180 0 1 0 0 0 1 1 0 0 32523.dat
1 1 500 40 -180 1 0 0 0 1 0 0 0 1 6558.dat
1 1 500 80 -180 1 0 0 0 1 0 0 0 1 6558.dat
1 0 480 60 -140 0 1 0 0 0 1 1 0 0 32523.dat
1 1 500 40 -140 1 0 0 0 1 0 0 0 1 6558.dat
1 1 500 80 -140 1 0 0 0 1 0 0 0 1 6558.dat
1 0 480 -60 -180 0 1 0 0 0 1 1 0 0 32523.dat
1 1 500 -40 -180 1 0 0 0 1 0 0 0 1 6558.dat
1 1 500 -80 -180 1 0 0 0 1 0 0 0 1 6558.dat
1 0 480 -60 -140 0 1 0 0 0 1 1 0 0 32523.dat
1 1 500 -40 -140 1 0 0 0 1 0 0 0 1 6558.dat
1 1 500 -80 -140 1 0 0 0 1 0 0 0 1 6558.dat
0 STEP
1 4 500 80 -120 0 1 0 -1 0 0 0 0 1 32524.dat
1 0 520 60 -180 0 1 0 0 0 1 1 0 0 32523.dat
1 0 520 60 -140 0 1 0 0 0 1 1 0 0 32523.dat
1 4 500 -80 -120 0 1 0 -1 0 0 0 0 1 32524.dat
1 0 520 -60 -180 0 1 0 0 0 1 1 0 0 32523.dat
1 0 520 -60 -140 0 1 0 0 0 1 1 0 0 32523.dat
0 STEP
1 1 500 -20 -280 0 0 1 0 1 0 -1 0 0 6558.dat
1 1 500 20 -280 0 0 1 0 1 0 -1 0 0 6558.dat
0 STEP
1 0 35 0 0 0 1 0 0 0 1 1 0 0 6632.dat
1 0 45 0 0 0 1 0 0 0 -1 -1 0 0 6632.dat
1 0 50 20 0 1 0 0 0 1 0 0 0 1 2780.dat
1 0 60 -20 0 1 0 0 0 1 0 0 0 1 2780.dat
0 STEP
1 71 120 0 0 0 0 1 1 0 0 0 1 0 64179.dat
0 STEP
1 72 120 -70 0 1 0 0 0 0 1 0 -1 0 geekservo.dat
1 1 80 -60 0 0 1 0 -1 0 0 0 0 1 6558.dat
1 1 160 -60 0 0 1 0 -1 0 0 0 0 1 6558.dat
0 STEP
1 71 326.748 0 0 0 0 1 1 0 0 0 1 0 64179.dat
1 0 306.748 60 -20 -1 0 0 0 0 1 0 1 0 32523.dat
1 1 306.748 40 0 0 0 -1 0 1 0 1 0 0 6558.dat
1 1 306.748 80 0 0 0 -1 0 1 0 1 0 0 6558.dat
1 0 346.748 60 -20 -1 0 0 0 0 1 0 1 0 32523.dat
1 1 346.748 40 0 0 0 -1 0 1 0 1 0 0 6558.dat
1 1 346.748 80 0 0 0 -1 0 1 0 1 0 0 6558.dat
1 0 306.748 -60 -20 -1 0 0 0 0 1 0 1 0 32523.dat
1 1 306.748 -40 0 0 0 -1 0 1 0 1 0 0 6558.dat
1 1 306.748 -80 0 0 0 -1 0 1 0 1 0 0 6558.dat
1 0 346.748 -60 -20 -1 0 0 0 0 1 0 1 0 32523.dat
1 1 346.748 -40 0 0 0 -1 0 1 0 1 0 0 6558.dat
1 1 346.748 -80 0 0 0 -1 0 1 0 1 0 0 6558.dat
0 STEP
1 4 366.748 80 0 0 0 1 1 0 0 0 1 0 40490.dat
1 0 306.748 60 20 -1 0 0 0 0 1 0 1 0 32523.dat
1 0 346.748 60 20 -1 0 0 0 0 1 0 1 0 32523.dat
1 4 366.748 -80 0 0 0 1 1 0 0 0 1 0 40490.dat
1 0 306.748 -60 20 -1 0 0 0 0 1 0 1 0 32523.dat
1 0 346.748 -60 20 -1 0 0 0 0 1 0 1 0 32523.dat
0 STEP
1 0 270 -20 0 1 0 0 0 1 0 0 0 1 3708.dat
1 72 205 -20 0 0 0 1 0 1 0 -1 0 0 32123a.dat
1 0 270 20 0 1 0 0 0 1 0 0 0 1 3708.dat
1 72 205 20 0 0 0 1 0 1 0 -1 0 0 32123a.dat
1 0 195 -20 0 0 1 0 0 0 1 1 0 0 6632.dat
0 STEP
1 0 165 -20 0 0 1 0 0 0 1 1 0 0 6632.dat
1 72 155 -20 0 0 0 1 0 1 0 -1 0 0 32123a.dat
1 72 155 20 0 0 0 1 0 1 0 -1 0 0 32123a.dat
0 STEP
1 72 266.748 -40 30 0 0 -1 0 1 0 1 0 0 32073.dat
1 72 266.748 -40 -15 1 0 0 0 1 0 0 0 1 32123a.dat
1 72 266.748 -40 20 1 0 0 0 1 0 0 0 1 3713.dat
1 72 266.748 -40 40 1 0 0 0 1 0 0 0 1 3713.dat
0 STEP
1 0 130 -70 45 -0.2143 0 0.9768 0.9768 0 0.2143 0 1 0 6632.dat
0 STEP
1 0 208.142 -52.8571 60 -0.2143 0 0.9768 0.9768 0 0.2143 0 1 0 32524.dat
1 0 149.535 -65.7143 60 0 0 -1 0 1 0 1 0 0 2780.dat
1 72 266.748 -40 75 1 0 0 0 1 0 0 0 1 32123a.dat
0 STEP
1 16 500 0 0 1 0 0 0 1 0 0 0 1 cube56.dat
0 STEP
