0 quadcuber 单臂原型 v2 (转盘主轴承)
0 Name: model.ldr
0 Author: quadcuber

1 72 20 140 -200 0 0 1 0 1 0 -1 0 0 64179.dat
1 72 160 140 -200 0 0 1 0 1 0 -1 0 0 64179.dat
1 72 300 140 -200 0 0 1 0 1 0 -1 0 0 64179.dat
1 72 440 140 -200 0 0 1 0 1 0 -1 0 0 64179.dat
1 0 90 140 -220 1 0 0 0 1 0 0 0 1 2780.dat
1 0 90 140 -200 1 0 0 0 1 0 0 0 1 2780.dat
1 0 90 140 -180 1 0 0 0 1 0 0 0 1 2780.dat
1 0 230 140 -220 1 0 0 0 1 0 0 0 1 2780.dat
1 0 230 140 -200 1 0 0 0 1 0 0 0 1 2780.dat
1 0 230 140 -180 1 0 0 0 1 0 0 0 1 2780.dat
1 0 370 140 -220 1 0 0 0 1 0 0 0 1 2780.dat
1 0 370 140 -200 1 0 0 0 1 0 0 0 1 2780.dat
1 0 370 140 -180 1 0 0 0 1 0 0 0 1 2780.dat
0 STEP
1 72 20 120 -200 0 0 1 0 1 0 -1 0 0 64179.dat
1 72 20 120 0 0 0 1 0 1 0 -1 0 0 64179.dat
1 72 -40 100 -100 1 0 0 0 1 0 0 0 1 32278.dat
1 0 -40 110 -240 0 -1 0 1 0 0 0 0 1 2780.dat
1 0 -40 110 -160 0 -1 0 1 0 0 0 0 1 2780.dat
1 0 -40 110 -40 0 -1 0 1 0 0 0 0 1 2780.dat
1 0 -40 110 40 0 -1 0 1 0 0 0 0 1 2780.dat
0 STEP
1 72 0 140 0 1 0 0 0 1 0 0 0 1 32316.dat
1 0 0 130 -40 0 -1 0 1 0 0 0 0 1 2780.dat
1 0 0 130 40 0 -1 0 1 0 0 0 0 1 2780.dat
0 STEP
1 0 40 130 -240 0 -1 0 1 0 0 0 0 1 2780.dat
1 0 40 130 -160 0 -1 0 1 0 0 0 0 1 2780.dat
1 0 80 130 -240 0 -1 0 1 0 0 0 0 1 2780.dat
1 0 80 130 -160 0 -1 0 1 0 0 0 0 1 2780.dat
0 STEP
1 71 520 0 -200 0 -1 0 1 0 0 0 0 1 64179.dat
1 0 500 60 -180 0 1 0 0 0 1 1 0 0 32523.dat
1 1 520 40 -180 1 0 0 0 1 0 0 0 1 6558.dat
1 1 520 80 -180 1 0 0 0 1 0 0 0 1 6558.dat
1 0 500 60 -140 0 1 0 0 0 1 1 0 0 32523.dat
1 1 520 40 -140 1 0 0 0 1 0 0 0 1 6558.dat
1 1 520 80 -140 1 0 0 0 1 0 0 0 1 6558.dat
1 0 500 -60 -180 0 1 0 0 0 1 1 0 0 32523.dat
1 1 520 -40 -180 1 0 0 0 1 0 0 0 1 6558.dat
1 1 520 -80 -180 1 0 0 0 1 0 0 0 1 6558.dat
1 0 500 -60 -140 0 1 0 0 0 1 1 0 0 32523.dat
1 1 520 -40 -140 1 0 0 0 1 0 0 0 1 6558.dat
1 1 520 -80 -140 1 0 0 0 1 0 0 0 1 6558.dat
0 STEP
1 4 520 80 -120 0 1 0 -1 0 0 0 0 1 32524.dat
1 0 540 60 -180 0 1 0 0 0 1 1 0 0 32523.dat
1 0 540 60 -140 0 1 0 0 0 1 1 0 0 32523.dat
1 4 520 -80 -120 0 1 0 -1 0 0 0 0 1 32524.dat
1 0 540 -60 -180 0 1 0 0 0 1 1 0 0 32523.dat
1 0 540 -60 -140 0 1 0 0 0 1 1 0 0 32523.dat
0 STEP
1 71 520 0 -340 0 -1 0 1 0 0 0 0 1 64179.dat
1 71 520 100 -340 0 -1 0 1 0 0 0 0 1 64179.dat
1 0 520 -20 -270 0 0 -1 0 1 0 1 0 0 2780.dat
1 0 520 0 -270 0 0 -1 0 1 0 1 0 0 2780.dat
1 0 520 20 -270 0 0 -1 0 1 0 1 0 0 2780.dat
1 0 520 50 -380 0 -1 0 1 0 0 0 0 1 2780.dat
1 0 520 50 -340 0 -1 0 1 0 0 0 0 1 2780.dat
1 0 520 50 -300 0 -1 0 1 0 0 0 0 1 2780.dat
0 STEP
1 72 440 140 -300 0 0 1 0 1 0 -1 0 0 64179.dat
1 0 400 140 -250 0 0 -1 0 1 0 1 0 0 2780.dat
1 0 440 140 -250 0 0 -1 0 1 0 1 0 0 2780.dat
1 0 480 140 -250 0 0 -1 0 1 0 1 0 0 2780.dat
0 STEP
1 72 600 140 -300 0 0 1 0 1 0 -1 0 0 64179.dat
1 1 520 140 -320 1 0 0 0 1 0 0 0 1 6558.dat
1 1 520 140 -280 1 0 0 0 1 0 0 0 1 6558.dat
0 STEP
1 0 540 120 -340 0 0 1 0 1 0 -1 0 0 40490.dat
1 0 460 130 -340 0 -1 0 1 0 0 0 0 1 2780.dat
1 0 500 130 -340 0 -1 0 1 0 0 0 0 1 2780.dat
1 0 520 130 -340 0 -1 0 1 0 0 0 0 1 2780.dat
1 0 540 130 -340 0 -1 0 1 0 0 0 0 1 2780.dat
1 0 580 130 -340 0 -1 0 1 0 0 0 0 1 2780.dat
1 0 620 130 -340 0 -1 0 1 0 0 0 0 1 2780.dat
0 STEP
1 71 40 0 0 0 -1 0 1 0 0 0 0 1 64179.dat
1 71 40 100 0 0 -1 0 1 0 0 0 0 1 64179.dat
1 0 40 50 -40 0 -1 0 1 0 0 0 0 1 2780.dat
1 0 40 50 0 0 -1 0 1 0 0 0 0 1 2780.dat
1 0 40 50 40 0 -1 0 1 0 0 0 0 1 2780.dat
0 STEP
1 71 60 0 0 0 -1 0 0 0 -1 1 0 0 18939.dat
1 0 40 -20 50 0 0 -1 0 1 0 1 0 0 2780.dat
1 0 40 0 50 0 0 -1 0 1 0 1 0 0 2780.dat
1 0 40 20 50 0 0 -1 0 1 0 1 0 0 2780.dat
1 0 40 -20 -50 0 0 -1 0 1 0 1 0 0 2780.dat
1 0 40 0 -50 0 0 -1 0 1 0 1 0 0 2780.dat
1 0 40 20 -50 0 0 -1 0 1 0 1 0 0 2780.dat
0 STEP
1 0 40 130 -40 0 -1 0 1 0 0 0 0 1 2780.dat
1 0 40 130 40 0 -1 0 1 0 0 0 0 1 2780.dat
0 STEP
1 15 0 0 0 1 0 0 0 1 0 0 0 1 95658.dat
1 71 0 40 -200 0 -1 0 1 0 0 0 0 1 64179.dat
1 4 -20 0 -180 1 0 0 0 1 0 0 0 1 32054.dat
1 4 -20 0 -140 1 0 0 0 1 0 0 0 1 32054.dat
0 STEP
1 0 0 100 -200 1 0 0 0 1 0 0 0 1 32524.dat
1 1 0 100 -240 0 -1 0 1 0 0 0 0 1 6558.dat
1 1 0 100 -160 0 -1 0 1 0 0 0 0 1 6558.dat
0 STEP
1 0 0 90 -200 0 -1 0 1 0 0 0 0 1 2780.dat
0 STEP
1 71 60 0 0 0 -1 0 0 0 -1 1 0 0 18938.dat
1 0 60 0 0 1 0 0 0 1 0 0 0 1 44294.dat
0 STEP
1 0 120 0 0 0 1 0 -1 0 0 0 0 1 32524.dat
1 0 95 0 0 0 1 0 -1 0 0 0 0 1 6632.dat
1 0 105 0 0 0 1 0 1 0 0 0 0 -1 6632.dat
1 0 110 0 -20 1 0 0 0 1 0 0 0 1 2780.dat
1 0 110 0 20 1 0 0 0 1 0 0 0 1 2780.dat
1 72 150 0 0 0 0 -1 0 1 0 1 0 0 geekservo.dat
1 1 140 0 -40 1 0 0 0 1 0 0 0 1 6558.dat
1 1 140 0 40 1 0 0 0 1 0 0 0 1 6558.dat
0 STEP
1 71 120 0 60 1 0 0 0 0 -1 0 1 0 64179.dat
1 0 235 0 60 1 0 0 0 1 0 0 0 1 50451.dat
1 72 100 0 60 0 0 1 0 1 0 -1 0 0 3713.dat
1 72 135 0 60 0 0 1 0 1 0 -1 0 0 32123a.dat
1 72 175 0 60 0 0 1 0 1 0 -1 0 0 32123a.dat
1 71 120 0 -60 1 0 0 0 0 -1 0 1 0 64179.dat
1 0 235 0 -60 1 0 0 0 1 0 0 0 1 50451.dat
1 72 100 0 -60 0 0 1 0 1 0 -1 0 0 3713.dat
1 72 135 0 -60 0 0 1 0 1 0 -1 0 0 32123a.dat
1 72 175 0 -60 0 0 1 0 1 0 -1 0 0 32123a.dat
0 STEP
1 0 80 -20 50 0 0 -1 0 1 0 1 0 0 2780.dat
1 0 80 20 50 0 0 -1 0 1 0 1 0 0 2780.dat
1 0 80 -20 -50 0 0 -1 0 1 0 1 0 0 2780.dat
1 0 80 20 -50 0 0 -1 0 1 0 1 0 0 2780.dat
0 STEP
1 71 329.642 0 0 0 0 1 1 0 0 0 1 0 64179.dat
1 4 389.642 80 0 0 0 1 1 0 0 0 1 0 40490.dat
1 0 309.642 60 -20 -1 0 0 0 0 1 0 1 0 32523.dat
1 1 309.642 40 0 0 0 -1 0 1 0 1 0 0 6558.dat
1 1 309.642 80 0 0 0 -1 0 1 0 1 0 0 6558.dat
1 0 349.642 60 -20 -1 0 0 0 0 1 0 1 0 32523.dat
1 1 349.642 40 0 0 0 -1 0 1 0 1 0 0 6558.dat
1 1 349.642 80 0 0 0 -1 0 1 0 1 0 0 6558.dat
1 4 389.642 -80 0 0 0 1 1 0 0 0 1 0 40490.dat
1 0 309.642 -60 -20 -1 0 0 0 0 1 0 1 0 32523.dat
1 1 309.642 -40 0 0 0 -1 0 1 0 1 0 0 6558.dat
1 1 309.642 -80 0 0 0 -1 0 1 0 1 0 0 6558.dat
1 0 349.642 -60 -20 -1 0 0 0 0 1 0 1 0 32523.dat
1 1 349.642 -40 0 0 0 -1 0 1 0 1 0 0 6558.dat
1 1 349.642 -80 0 0 0 -1 0 1 0 1 0 0 6558.dat
0 STEP
1 0 309.642 60 20 -1 0 0 0 0 1 0 1 0 32523.dat
1 0 349.642 60 20 -1 0 0 0 0 1 0 1 0 32523.dat
1 0 309.642 -60 20 -1 0 0 0 0 1 0 1 0 32523.dat
1 0 349.642 -60 20 -1 0 0 0 0 1 0 1 0 32523.dat
0 STEP
1 71 329.642 0 60 0 0 1 1 0 0 0 1 0 64179.dat
1 71 329.642 0 -60 0 0 1 1 0 0 0 1 0 64179.dat
1 0 269.642 -40 0 0 0 -1 0 1 0 1 0 0 44294.dat
1 72 269.642 -40 -40 1 0 0 0 1 0 0 0 1 3713.dat
1 72 269.642 -40 -20 1 0 0 0 1 0 0 0 1 3713.dat
1 72 269.642 -40 20 1 0 0 0 1 0 0 0 1 3713.dat
1 72 269.642 -40 40 1 0 0 0 1 0 0 0 1 3713.dat
1 0 269.642 40 0 0 0 -1 0 1 0 1 0 0 44294.dat
1 72 269.642 40 -40 1 0 0 0 1 0 0 0 1 3713.dat
1 72 269.642 40 -20 1 0 0 0 1 0 0 0 1 3713.dat
1 72 269.642 40 20 1 0 0 0 1 0 0 0 1 3713.dat
1 72 269.642 40 40 1 0 0 0 1 0 0 0 1 3713.dat
1 0 389.642 -40 0 0 0 -1 0 1 0 1 0 0 44294.dat
1 72 389.642 -40 -40 1 0 0 0 1 0 0 0 1 3713.dat
1 72 389.642 -40 -20 1 0 0 0 1 0 0 0 1 3713.dat
1 72 389.642 -40 20 1 0 0 0 1 0 0 0 1 3713.dat
1 72 389.642 -40 40 1 0 0 0 1 0 0 0 1 3713.dat
1 0 389.642 40 0 0 0 -1 0 1 0 1 0 0 44294.dat
1 72 389.642 40 -40 1 0 0 0 1 0 0 0 1 3713.dat
1 72 389.642 40 -20 1 0 0 0 1 0 0 0 1 3713.dat
1 72 389.642 40 20 1 0 0 0 1 0 0 0 1 3713.dat
1 72 389.642 40 40 1 0 0 0 1 0 0 0 1 3713.dat
0 STEP
1 0 150 -45 10 -0.0714 0 0.9974 0 1 0 -0.9974 0 -0.0714 6632.dat
1 0 229.796 -60 4.2857 -0.0714 0 0.9974 0 1 0 -0.9974 0 -0.0714 32524.dat
1 71 169.949 -60 8.5714 0 -1 0 1 0 0 0 0 1 3673.dat
1 71 289.642 -50 0 0 -1 0 1 0 0 0 0 1 3673.dat
0 STEP
1 16 520 0 0 1 0 0 0 1 0 0 0 1 cube56.dat
0 STEP
