0 矩形骨架与双导轨候选；实物承载待测
0 Name: model.ldr
0 Author: quadcuber

0 STEP
1 71 -360 0 0 0 -1 0 1 0 0 0 0 1 64179.dat
1 71 -360 100 0 0 -1 0 1 0 0 0 0 1 64179.dat
1 71 -360 200 0 0 -1 0 1 0 0 0 0 1 64179.dat
1 0 -360 50 -40 0 -1 0 1 0 0 0 0 1 2780.dat
1 0 -360 50 0 0 -1 0 1 0 0 0 0 1 2780.dat
1 0 -360 50 40 0 -1 0 1 0 0 0 0 1 2780.dat
1 0 -360 150 -40 0 -1 0 1 0 0 0 0 1 2780.dat
1 0 -360 150 0 0 -1 0 1 0 0 0 0 1 2780.dat
1 0 -360 150 40 0 -1 0 1 0 0 0 0 1 2780.dat
1 15 -420 0 -100 1 0 0 0 0 -1 0 1 0 95658.dat
1 0 -440 210 -120 0 -1 0 1 0 0 0 0 1 2780.dat
1 0 -420 210 -120 0 -1 0 1 0 0 0 0 1 2780.dat
1 0 -400 210 -120 0 -1 0 1 0 0 0 0 1 2780.dat
1 0 -420 220 -120 0 0 1 0 1 0 -1 0 0 32316.dat
1 0 -460 230 -120 0 -1 0 1 0 0 0 0 1 2780.dat
1 0 -380 230 -120 0 -1 0 1 0 0 0 0 1 2780.dat
1 0 -420 240 -120 0 0 1 0 1 0 -1 0 0 32316.dat
1 1 -400 40 -160 1 0 0 0 1 0 0 0 1 6558.dat
1 0 -410 80 -160 1 0 0 0 1 0 0 0 1 2780.dat
1 0 -400 60 -160 0 1 0 0 0 1 1 0 0 32523.dat
1 0 -390 60 -160 1 0 0 0 1 0 0 0 1 2780.dat
1 0 -380 40 -60 0 1 0 -1 0 0 0 0 1 32525.dat
1 0 -380 60 -100 0 1 0 -1 0 0 0 0 1 32524.dat
1 0 -385 0 -100 1 0 0 0 1 0 0 0 1 44294.dat
1 72 -385 0 -100 0 0 1 0 1 0 -1 0 0 32123a.dat
1 72 -375 0 -100 0 0 1 0 1 0 -1 0 0 32123a.dat
1 72 -360 0 -100 0 0 1 0 1 0 -1 0 0 3713.dat
1 14 -340 0 -100 0 0 1 1 0 0 0 1 0 3648b.dat
1 72 -325 0 -100 0 0 1 0 1 0 -1 0 0 32123a.dat
1 0 -370 40 -60 1 0 0 0 1 0 0 0 1 2780.dat
1 0 -370 40 -20 1 0 0 0 1 0 0 0 1 2780.dat
1 0 -370 40 20 1 0 0 0 1 0 0 0 1 2780.dat
1 0 -370 60 -60 1 0 0 0 1 0 0 0 1 2780.dat
1 71 -340 0 0 0 -1 0 0 0 -1 1 0 0 18939.dat
1 4 -360 -20 -40 0 0 1 0 1 0 -1 0 0 32054.dat
1 4 -360 20 40 0 0 -1 0 1 0 1 0 0 32054.dat
1 0 -360 240 -40 0 -1 0 1 0 0 0 0 1 2780.dat
1 0 -360 240 40 0 -1 0 1 0 0 0 0 1 2780.dat
1 71 -440 60 40 0 0 1 0 1 0 -1 0 0 64179.dat
1 0 -520 80 0 0 0 1 0 1 0 -1 0 0 32278.dat
1 0 -520 80 80 0 0 1 0 1 0 -1 0 0 32278.dat
1 0 -500 70 80 0 -1 0 1 0 0 0 0 1 2780.dat
1 0 -460 70 80 0 -1 0 1 0 0 0 0 1 2780.dat
1 0 -420 70 80 0 -1 0 1 0 0 0 0 1 2780.dat
1 0 -380 70 80 0 -1 0 1 0 0 0 0 1 2780.dat
1 0 -380 70 0 0 -1 0 1 0 0 0 0 1 2780.dat
1 0 -560 60 80 0 0 1 0 1 0 -1 0 0 32316.dat
1 0 -560 70 80 0 -1 0 1 0 0 0 0 1 2780.dat
1 0 -540 70 80 0 -1 0 1 0 0 0 0 1 2780.dat
1 71 -460 0 0 0 0 1 1 0 0 0 1 0 64179.dat
1 1 -460 60 0 0 1 0 1 0 0 0 0 -1 6558.dat
1 1 -420 60 0 0 1 0 1 0 0 0 0 -1 6558.dat
1 0 -500 70 0 0 -1 0 1 0 0 0 0 1 2780.dat
1 0 -660 60 40 1 0 0 0 1 0 0 0 1 32316.dat
1 0 -660 70 0 0 -1 0 1 0 0 0 0 1 2780.dat
1 0 -660 70 80 0 -1 0 1 0 0 0 0 1 2780.dat
1 0 -640 100 0 0 0 1 0 -1 0 1 0 0 55615.dat
1 0 -620 100 80 0 0 1 0 -1 0 1 0 0 55615.dat
1 72 -560 30 80 -1 0 0 0 0 1 0 1 0 geekservo.dat
1 1 -600 40 80 0 1 0 -1 0 0 0 0 1 6558.dat
1 1 -520 40 80 0 1 0 -1 0 0 0 0 1 6558.dat
1 0 -370 60 20 1 0 0 0 1 0 0 0 1 2780.dat
1 0 -370 60 60 1 0 0 0 1 0 0 0 1 2780.dat
1 0 -640 240 0 1 0 0 0 1 0 0 0 1 55615.dat
1 0 -640 160 -20 -1 0 0 0 0 1 0 1 0 40490.dat
1 0 -640 100 -10 0 0 -1 0 1 0 1 0 0 2780.dat
1 0 -640 140 -10 0 0 -1 0 1 0 1 0 0 2780.dat
1 0 -620 180 100 -1 0 0 0 0 1 0 1 0 40490.dat
1 0 -620 100 90 0 0 -1 0 1 0 1 0 0 2780.dat
1 0 -620 140 90 0 0 -1 0 1 0 1 0 0 2780.dat
1 0 -620 260 90 0 0 -1 0 1 0 1 0 0 2780.dat
1 0 -450.417 20 0 0 0 1 0 -1 0 1 0 0 6536.dat
1 72 -465.417 0 0 0 0 1 0 1 0 -1 0 0 32123a.dat
1 72 -435.417 0 0 0 0 1 0 1 0 -1 0 0 32123a.dat
1 0 -450.417 20 10 0 0 -1 0 1 0 1 0 0 4519.dat
1 72 -450.417 20 -15 1 0 0 0 1 0 0 0 1 32123a.dat
1 72 -450.417 20 35 1 0 0 0 1 0 0 0 1 32123a.dat
1 0 -570 30 35 0.0833 0 0.9965 0.9965 0 -0.0833 0 1 0 41677.dat
1 0 -550.07 28.3333 20 0 0 -1 0 1 0 1 0 0 32062.dat
1 72 -550.07 28.3333 5 1 0 0 0 1 0 0 0 1 32123a.dat
1 14 -510.209 25 20 -0.0833 0 -0.9965 -0.9965 0 0.0833 0 1 0 32524.dat
0 STEP
1 72 500 260 20 0 0 1 0 1 0 -1 0 0 39790.dat
1 72 260 280 -80 0 0 -1 0 1 0 1 0 0 32278.dat
1 0 400 270 -80 0 1 0 1 0 0 0 0 -1 2780.dat
1 0 360 270 -80 0 1 0 1 0 0 0 0 -1 2780.dat
1 72 120 280 -280 -1 0 0 0 1 0 0 0 -1 32278.dat
1 0 120 270 -360 0 1 0 1 0 0 0 0 -1 2780.dat
1 1 120 260 -400 0 -1 0 -1 0 0 0 0 -1 6558.dat
1 0 120 250 -440 0 1 0 1 0 0 0 0 -1 2780.dat
1 72 160 260 -140 -1 0 0 0 1 0 0 0 -1 64179.dat
1 0 120 270 -80 0 1 0 1 0 0 0 0 -1 2780.dat
1 0 200 270 -80 0 1 0 1 0 0 0 0 -1 2780.dat
1 0 120 270 -160 0 1 0 1 0 0 0 0 -1 2780.dat
1 0 120 270 -200 0 1 0 1 0 0 0 0 -1 2780.dat
1 72 640 280 20 -1 0 0 0 1 0 0 0 -1 32525.dat
1 0 640 270 80 0 1 0 1 0 0 0 0 -1 2780.dat
1 0 640 270 40 0 1 0 1 0 0 0 0 -1 2780.dat
1 0 640 270 -80 0 1 0 1 0 0 0 0 -1 2780.dat
1 72 -500 260 -20 0 0 -1 0 1 0 1 0 0 39790.dat
1 72 -260 280 80 0 0 1 0 1 0 -1 0 0 32278.dat
1 0 -400 270 80 0 -1 0 1 0 0 0 0 1 2780.dat
1 0 -360 270 80 0 -1 0 1 0 0 0 0 1 2780.dat
1 72 -120 280 280 1 0 0 0 1 0 0 0 1 32278.dat
1 0 -120 270 360 0 -1 0 1 0 0 0 0 1 2780.dat
1 1 -120 260 400 0 1 0 -1 0 0 0 0 1 6558.dat
1 0 -120 250 440 0 -1 0 1 0 0 0 0 1 2780.dat
1 72 -160 260 140 1 0 0 0 1 0 0 0 1 64179.dat
1 0 -120 270 80 0 -1 0 1 0 0 0 0 1 2780.dat
1 0 -200 270 80 0 -1 0 1 0 0 0 0 1 2780.dat
1 0 -120 270 160 0 -1 0 1 0 0 0 0 1 2780.dat
1 0 -120 270 200 0 -1 0 1 0 0 0 0 1 2780.dat
1 72 -640 280 -20 1 0 0 0 1 0 0 0 1 32525.dat
1 0 -640 270 -80 0 -1 0 1 0 0 0 0 1 2780.dat
1 0 -640 270 -40 0 -1 0 1 0 0 0 0 1 2780.dat
1 0 -640 270 80 0 -1 0 1 0 0 0 0 1 2780.dat
1 72 -20 260 500 1 0 0 0 1 0 0 0 1 39790.dat
1 72 80 280 260 -1 0 0 0 1 0 0 0 -1 32278.dat
1 0 80 270 400 0 0 1 1 0 0 0 1 0 2780.dat
1 0 80 270 360 0 0 1 1 0 0 0 1 0 2780.dat
1 72 280 280 120 0 0 1 0 1 0 -1 0 0 32278.dat
1 0 360 270 120 0 0 1 1 0 0 0 1 0 2780.dat
1 1 400 260 120 0 0 1 -1 0 0 0 -1 0 6558.dat
1 0 440 250 120 0 0 1 1 0 0 0 1 0 2780.dat
1 72 140 260 160 0 0 1 0 1 0 -1 0 0 64179.dat
1 0 80 270 120 0 0 1 1 0 0 0 1 0 2780.dat
1 0 80 270 200 0 0 1 1 0 0 0 1 0 2780.dat
1 0 160 270 120 0 0 1 1 0 0 0 1 0 2780.dat
1 0 200 270 120 0 0 1 1 0 0 0 1 0 2780.dat
1 72 -20 280 640 0 0 1 0 1 0 -1 0 0 32525.dat
1 0 -80 270 640 0 0 1 1 0 0 0 1 0 2780.dat
1 0 -40 270 640 0 0 1 1 0 0 0 1 0 2780.dat
1 0 80 270 640 0 0 1 1 0 0 0 1 0 2780.dat
1 72 20 260 -500 -1 0 0 0 1 0 0 0 -1 39790.dat
1 72 -80 280 -260 1 0 0 0 1 0 0 0 1 32278.dat
1 0 -80 270 -400 0 0 -1 1 0 0 0 -1 0 2780.dat
1 0 -80 270 -360 0 0 -1 1 0 0 0 -1 0 2780.dat
1 72 -280 280 -120 0 0 -1 0 1 0 1 0 0 32278.dat
1 0 -360 270 -120 0 0 -1 1 0 0 0 -1 0 2780.dat
1 1 -400 260 -120 0 0 -1 -1 0 0 0 1 0 6558.dat
1 0 -440 250 -120 0 0 -1 1 0 0 0 -1 0 2780.dat
1 72 -140 260 -160 0 0 -1 0 1 0 1 0 0 64179.dat
1 0 -80 270 -120 0 0 -1 1 0 0 0 -1 0 2780.dat
1 0 -80 270 -200 0 0 -1 1 0 0 0 -1 0 2780.dat
1 0 -160 270 -120 0 0 -1 1 0 0 0 -1 0 2780.dat
1 0 -200 270 -120 0 0 -1 1 0 0 0 -1 0 2780.dat
1 72 20 280 -640 0 0 -1 0 1 0 1 0 0 32525.dat
1 0 80 270 -640 0 0 -1 1 0 0 0 -1 0 2780.dat
1 0 40 270 -640 0 0 -1 1 0 0 0 -1 0 2780.dat
1 0 -80 270 -640 0 0 -1 1 0 0 0 -1 0 2780.dat
1 71 -340 0 0 0 -1 0 0 0 -1 1 0 0 18938.dat
1 1 -300 0 0 0 -1 0 0 0 -1 1 0 0 64179.dat
1 1 -120 0 0 1 0 0 0 0 -1 0 1 0 39793.dat
1 1 -220 0 -100 0 0 1 1 0 0 0 1 0 64179.dat
1 72 -240 -40 -80 0 0 1 1 0 0 0 1 0 32316.dat
1 72 -290 -40 -60 0 0 1 1 0 0 0 1 0 43857.dat
1 0 -300 -40 -50 0 0 -1 0 1 0 1 0 0 2780.dat
1 1 -280 -40 -80 0 0 1 0 1 0 -1 0 0 6558.dat
1 0 -200 -40 -90 0 0 -1 0 1 0 1 0 0 2780.dat
1 72 -160 -30 -60 -1 0 0 0 0 1 0 1 0 43857.dat
1 0 -160 -40 -70 0 0 -1 0 1 0 1 0 0 32073.dat
1 72 -160 -40 -25 1 0 0 0 1 0 0 0 1 32123a.dat
1 72 -160 -40 -115 1 0 0 0 1 0 0 0 1 32123a.dat
1 72 -240 40 -80 0 0 1 1 0 0 0 1 0 32316.dat
1 72 -290 40 -60 0 0 1 1 0 0 0 1 0 43857.dat
1 0 -300 40 -50 0 0 -1 0 1 0 1 0 0 2780.dat
1 1 -280 40 -80 0 0 1 0 1 0 -1 0 0 6558.dat
1 0 -200 40 -90 0 0 -1 0 1 0 1 0 0 2780.dat
1 72 -160 30 -60 -1 0 0 0 0 1 0 1 0 43857.dat
1 0 -160 40 -70 0 0 -1 0 1 0 1 0 0 32073.dat
1 72 -160 40 -25 1 0 0 0 1 0 0 0 1 32123a.dat
1 72 -160 40 -115 1 0 0 0 1 0 0 0 1 32123a.dat
1 71 -160 0 -80 -1 0 0 0 0 1 0 1 0 32525.dat
1 71 -160 0 -40 -1 0 0 0 0 1 0 1 0 32525.dat
1 1 -120 0 -20 0 0 -1 -1 0 0 0 1 0 60484.dat
1 1 -160 -20 -40 0 0 1 0 1 0 -1 0 0 6558.dat
1 1 -160 20 -40 0 0 1 0 1 0 -1 0 0 6558.dat
1 72 -180 0 -60 0 0 1 1 0 0 0 1 0 32523.dat
1 0 -200 0 -70 0 0 -1 0 1 0 1 0 0 2780.dat
1 0 -180 0 -70 0 0 -1 0 1 0 1 0 0 2780.dat
1 1 -160 0 -60 0 0 1 0 1 0 -1 0 0 6558.dat
1 72 -280 0 -60 0 0 -1 -1 0 0 0 1 0 60484.dat
1 72 -240 0 -80 0 0 1 1 0 0 0 1 0 32524.dat
1 0 -320 -20 -50 0 0 -1 0 1 0 1 0 0 2780.dat
1 0 -320 20 -50 0 0 -1 0 1 0 1 0 0 2780.dat
1 1 -300 0 -60 0 0 1 0 1 0 -1 0 0 6558.dat
1 0 -280 0 -70 0 0 -1 0 1 0 1 0 0 2780.dat
1 1 -220 0 100 0 0 1 1 0 0 0 1 0 64179.dat
1 72 -240 -40 80 0 0 1 1 0 0 0 1 0 32316.dat
1 72 -290 -40 60 0 0 1 1 0 0 0 1 0 43857.dat
1 0 -300 -40 50 0 0 -1 0 1 0 1 0 0 2780.dat
1 1 -280 -40 80 0 0 -1 0 1 0 1 0 0 6558.dat
1 0 -200 -40 90 0 0 -1 0 1 0 1 0 0 2780.dat
1 72 -160 -30 60 -1 0 0 0 0 1 0 1 0 43857.dat
1 0 -160 -40 70 0 0 -1 0 1 0 1 0 0 32073.dat
1 72 -160 -40 25 1 0 0 0 1 0 0 0 1 32123a.dat
1 72 -160 -40 115 1 0 0 0 1 0 0 0 1 32123a.dat
1 72 -240 40 80 0 0 1 1 0 0 0 1 0 32316.dat
1 72 -290 40 60 0 0 1 1 0 0 0 1 0 43857.dat
1 0 -300 40 50 0 0 -1 0 1 0 1 0 0 2780.dat
1 1 -280 40 80 0 0 -1 0 1 0 1 0 0 6558.dat
1 0 -200 40 90 0 0 -1 0 1 0 1 0 0 2780.dat
1 72 -160 30 60 -1 0 0 0 0 1 0 1 0 43857.dat
1 0 -160 40 70 0 0 -1 0 1 0 1 0 0 32073.dat
1 72 -160 40 25 1 0 0 0 1 0 0 0 1 32123a.dat
1 72 -160 40 115 1 0 0 0 1 0 0 0 1 32123a.dat
1 71 -160 0 80 -1 0 0 0 0 1 0 1 0 32525.dat
1 71 -160 0 40 -1 0 0 0 0 1 0 1 0 32525.dat
1 1 -120 0 20 0 0 -1 -1 0 0 0 1 0 60484.dat
1 1 -160 -20 40 0 0 -1 0 1 0 1 0 0 6558.dat
1 1 -160 20 40 0 0 -1 0 1 0 1 0 0 6558.dat
1 72 -180 0 60 0 0 1 1 0 0 0 1 0 32523.dat
1 0 -200 0 70 0 0 -1 0 1 0 1 0 0 2780.dat
1 0 -180 0 70 0 0 -1 0 1 0 1 0 0 2780.dat
1 1 -160 0 60 0 0 -1 0 1 0 1 0 0 6558.dat
1 72 -280 0 60 0 0 -1 -1 0 0 0 1 0 60484.dat
1 72 -240 0 80 0 0 1 1 0 0 0 1 0 32524.dat
1 0 -320 -20 50 0 0 -1 0 1 0 1 0 0 2780.dat
1 0 -320 20 50 0 0 -1 0 1 0 1 0 0 2780.dat
1 1 -300 0 60 0 0 -1 0 1 0 1 0 0 6558.dat
1 0 -280 0 70 0 0 -1 0 1 0 1 0 0 2780.dat
1 1 -140 0 0 0 0 -1 0 1 0 1 0 0 6558.dat
1 1 -120 0 0 0 0 -1 0 1 0 1 0 0 6558.dat
1 72 -300 -20 0 0 0 1 1 0 0 0 1 0 32184.dat
1 72 -300 20 0 0 0 1 1 0 0 0 1 0 32184.dat
1 0 -300 0 -20 0 -1 0 1 0 0 0 0 1 3707.dat
1 72 -300 -40 -20 1 0 0 0 0 1 0 -1 0 3713.dat
1 72 -300 0 -20 1 0 0 0 0 1 0 -1 0 3713.dat
1 72 -300 40 -20 1 0 0 0 0 1 0 -1 0 3713.dat
1 72 -300 -75 -20 1 0 0 0 0 1 0 -1 0 32123a.dat
1 72 -300 75 -20 1 0 0 0 0 1 0 -1 0 32123a.dat
1 0 -300 0 20 0 -1 0 1 0 0 0 0 1 3707.dat
1 72 -300 -40 20 1 0 0 0 0 1 0 -1 0 3713.dat
1 72 -300 0 20 1 0 0 0 0 1 0 -1 0 3713.dat
1 72 -300 40 20 1 0 0 0 0 1 0 -1 0 3713.dat
1 72 -300 -75 20 1 0 0 0 0 1 0 -1 0 32123a.dat
1 72 -300 75 20 1 0 0 0 0 1 0 -1 0 32123a.dat
1 0 -200 -20 0 1 0 0 0 1 0 0 0 1 23948.dat
1 72 -285 -20 0 0 0 1 0 1 0 -1 0 0 32123a.dat
1 72 -155 -20 0 0 0 1 0 1 0 -1 0 0 32123a.dat
1 0 -200 20 0 1 0 0 0 1 0 0 0 1 23948.dat
1 72 -285 20 0 0 0 1 0 1 0 -1 0 0 32123a.dat
1 72 -155 20 0 0 0 1 0 1 0 -1 0 0 32123a.dat
1 14 -200.443 0 0 1 0 0 0 0 -1 0 1 0 39793.dat
1 0 -220.443 0 0 0 0 -1 0 1 0 1 0 0 44294.dat
1 72 -220.443 0 -65 1 0 0 0 1 0 0 0 1 32123a.dat
1 25 -210.177 -38.66 -30 0.9665 0 0.2567 0.2567 0 -0.9665 0 1 0 32316.dat
1 72 -199.91 -77.32 -15 1 0 0 0 1 0 0 0 1 32123a.dat
1 72 -199.91 -77.32 -45 1 0 0 0 1 0 0 0 1 32123a.dat
1 25 -210.177 -38.66 30 0.9665 0 0.2567 0.2567 0 -0.9665 0 1 0 32316.dat
1 72 -199.91 -77.32 15 1 0 0 0 1 0 0 0 1 32123a.dat
1 72 -199.91 -77.32 45 1 0 0 0 1 0 0 0 1 32123a.dat
1 0 -199.91 -77.32 0 0 0 -1 0 1 0 1 0 0 32073.dat
1 4 -160 -80 0 0.067 0 0.9978 0.9978 0 -0.067 0 1 0 32524.dat
1 0 -160 -80 0 0 0 -1 0 1 0 1 0 0 3737.dat
1 72 -160 -80 -20 1 0 0 0 1 0 0 0 1 3713.dat
1 72 -160 -80 20 1 0 0 0 1 0 0 0 1 3713.dat
1 72 -160 -80 -95 1 0 0 0 1 0 0 0 1 32123a.dat
1 72 -160 -80 95 1 0 0 0 1 0 0 0 1 32123a.dat
1 71 -160 -120 -55 1 0 0 0 0 1 0 -1 0 32056.dat
1 71 -160 -120 -65 1 0 0 0 0 1 0 -1 0 32056.dat
1 1 -160 -100 -60 0 0 1 0 1 0 -1 0 0 6558.dat
1 71 -160 -120 55 1 0 0 0 0 1 0 -1 0 32056.dat
1 71 -160 -120 65 1 0 0 0 0 1 0 -1 0 32056.dat
1 1 -160 -100 60 0 0 -1 0 1 0 1 0 0 6558.dat
1 0 -120 -120 0 0 0 -1 0 1 0 1 0 0 3707.dat
1 72 -120 -120 -75 1 0 0 0 1 0 0 0 1 32123a.dat
1 72 -120 -120 75 1 0 0 0 1 0 0 0 1 32123a.dat
1 4 -90.1573 -84.69 -15 0.067 0 0.9978 0.9978 0 -0.067 0 1 0 32449.dat
1 4 -90.1573 -84.69 15 0.067 0 0.9978 0.9978 0 -0.067 0 1 0 32449.dat
1 0 -120.09 -82.68 0 0 0.067 -0.9978 0 0.9978 0.067 1 0 0 4519.dat
1 72 -120.09 -82.68 -25 0.9978 0.067 0 -0.067 0.9978 0 0 0 1 32123a.dat
1 72 -120.09 -82.68 25 0.9978 0.067 0 -0.067 0.9978 0 0 0 1 32123a.dat
1 4 -100.135 -84.02 -10 0 0.067 -0.9978 0 0.9978 0.067 1 0 0 32054.dat
1 0 -60.2247 -86.7 0 0 0.067 -0.9978 0 0.9978 0.067 1 0 0 32062.dat
1 71 -60.2247 -86.7 0 0.9978 0.067 0 -0.067 0.9978 0 0 0 1 42610.dat
1 0 -60.2247 -86.7 0 0.9978 0.067 0 -0.067 0.9978 0 0 0 1 50945_nominal.dat
1 72 -220.443 0 65 1 0 0 0 1 0 0 0 1 32123a.dat
1 25 -210.177 38.66 -50 -0.9665 0 0.2567 0.2567 0 0.9665 0 1 0 32316.dat
1 72 -199.91 77.32 -20 1 0 0 0 1 0 0 0 1 3713.dat
1 72 -199.91 77.32 -35 1 0 0 0 1 0 0 0 1 32123a.dat
1 72 -199.91 77.32 -65 1 0 0 0 1 0 0 0 1 32123a.dat
1 25 -210.177 38.66 50 -0.9665 0 0.2567 0.2567 0 0.9665 0 1 0 32316.dat
1 72 -199.91 77.32 20 1 0 0 0 1 0 0 0 1 3713.dat
1 72 -199.91 77.32 35 1 0 0 0 1 0 0 0 1 32123a.dat
1 72 -199.91 77.32 65 1 0 0 0 1 0 0 0 1 32123a.dat
1 0 -199.91 77.32 0 0 0 -1 0 1 0 1 0 0 44294.dat
1 4 -160 80 0 -0.067 0 0.9978 0.9978 0 0.067 0 1 0 32524.dat
1 0 -160 80 0 0 0 -1 0 1 0 1 0 0 3737.dat
1 72 -160 80 -20 1 0 0 0 1 0 0 0 1 3713.dat
1 72 -160 80 20 1 0 0 0 1 0 0 0 1 3713.dat
1 72 -160 80 -95 1 0 0 0 1 0 0 0 1 32123a.dat
1 72 -160 80 95 1 0 0 0 1 0 0 0 1 32123a.dat
1 71 -160 120 -55 1 0 0 0 0 -1 0 1 0 32056.dat
1 71 -160 120 -65 1 0 0 0 0 -1 0 1 0 32056.dat
1 1 -160 100 -60 0 0 1 0 1 0 -1 0 0 6558.dat
1 71 -160 120 55 1 0 0 0 0 -1 0 1 0 32056.dat
1 71 -160 120 65 1 0 0 0 0 -1 0 1 0 32056.dat
1 1 -160 100 60 0 0 -1 0 1 0 1 0 0 6558.dat
1 0 -120 120 0 0 0 -1 0 1 0 1 0 0 3707.dat
1 72 -120 120 -75 1 0 0 0 1 0 0 0 1 32123a.dat
1 72 -120 120 75 1 0 0 0 1 0 0 0 1 32123a.dat
1 4 -90.1573 84.69 -15 -0.067 0 0.9978 0.9978 0 0.067 0 1 0 32449.dat
1 4 -90.1573 84.69 15 -0.067 0 0.9978 0.9978 0 0.067 0 1 0 32449.dat
1 0 -120.09 82.68 0 0 -0.067 -0.9978 0 0.9978 -0.067 1 0 0 4519.dat
1 72 -120.09 82.68 -25 0.9978 -0.067 0 0.067 0.9978 0 0 0 1 32123a.dat
1 72 -120.09 82.68 25 0.9978 -0.067 0 0.067 0.9978 0 0 0 1 32123a.dat
1 4 -100.135 84.02 -10 0 -0.067 -0.9978 0 0.9978 -0.067 1 0 0 32054.dat
1 0 -60.2247 86.7 0 0 -0.067 -0.9978 0 0.9978 -0.067 1 0 0 32062.dat
1 71 -60.2247 86.7 0 0.9978 -0.067 0 0.067 0.9978 0 0 0 1 42610.dat
1 0 -60.2247 86.7 0 0.9978 -0.067 0 0.067 0.9978 0 0 0 1 50945_nominal.dat
1 22 -240.443 0 -15 0 0 1 1 0 0 0 1 0 41677.dat
1 22 -240.443 0 15 0 0 1 1 0 0 0 1 0 41677.dat
1 72 -240.443 0 0 0 0 1 0 1 0 -1 0 0 32013.dat
1 0 -240.443 0 0 0 0 -1 0 1 0 1 0 0 4519.dat
1 72 -240.443 0 -25 1 0 0 0 1 0 0 0 1 32123a.dat
1 72 -240.443 0 25 1 0 0 0 1 0 0 0 1 32123a.dat
1 0 -410.443 0 0 1 0 0 0 1 0 0 0 1 50451.dat
0 STEP
1 71 360 0 0 0 1 0 1 0 0 0 0 -1 64179.dat
1 71 360 100 0 0 1 0 1 0 0 0 0 -1 64179.dat
1 71 360 200 0 0 1 0 1 0 0 0 0 -1 64179.dat
1 0 360 50 40 0 1 0 1 0 0 0 0 -1 2780.dat
1 0 360 50 0 0 1 0 1 0 0 0 0 -1 2780.dat
1 0 360 50 -40 0 1 0 1 0 0 0 0 -1 2780.dat
1 0 360 150 40 0 1 0 1 0 0 0 0 -1 2780.dat
1 0 360 150 0 0 1 0 1 0 0 0 0 -1 2780.dat
1 0 360 150 -40 0 1 0 1 0 0 0 0 -1 2780.dat
1 15 420 0 100 -1 0 0 0 0 -1 0 -1 0 95658.dat
1 0 440 210 120 0 1 0 1 0 0 0 0 -1 2780.dat
1 0 420 210 120 0 1 0 1 0 0 0 0 -1 2780.dat
1 0 400 210 120 0 1 0 1 0 0 0 0 -1 2780.dat
1 0 420 220 120 0 0 -1 0 1 0 1 0 0 32316.dat
1 0 460 230 120 0 1 0 1 0 0 0 0 -1 2780.dat
1 0 380 230 120 0 1 0 1 0 0 0 0 -1 2780.dat
1 0 420 240 120 0 0 -1 0 1 0 1 0 0 32316.dat
1 1 400 40 160 -1 0 0 0 1 0 0 0 -1 6558.dat
1 0 410 80 160 -1 0 0 0 1 0 0 0 -1 2780.dat
1 0 400 60 160 0 -1 0 0 0 1 -1 0 0 32523.dat
1 0 390 60 160 -1 0 0 0 1 0 0 0 -1 2780.dat
1 0 380 40 60 0 -1 0 -1 0 0 0 0 -1 32525.dat
1 0 380 60 100 0 -1 0 -1 0 0 0 0 -1 32524.dat
1 0 385 0 100 -1 0 0 0 1 0 0 0 -1 44294.dat
1 72 385 0 100 0 0 -1 0 1 0 1 0 0 32123a.dat
1 72 375 0 100 0 0 -1 0 1 0 1 0 0 32123a.dat
1 72 360 0 100 0 0 -1 0 1 0 1 0 0 3713.dat
1 14 340 0 100 0 0 -1 1 0 0 0 -1 0 3648b.dat
1 72 325 0 100 0 0 -1 0 1 0 1 0 0 32123a.dat
1 0 370 40 60 -1 0 0 0 1 0 0 0 -1 2780.dat
1 0 370 40 20 -1 0 0 0 1 0 0 0 -1 2780.dat
1 0 370 40 -20 -1 0 0 0 1 0 0 0 -1 2780.dat
1 0 370 60 60 -1 0 0 0 1 0 0 0 -1 2780.dat
1 71 340 0 0 0 1 0 0 0 -1 -1 0 0 18939.dat
1 4 360 -20 40 0 0 -1 0 1 0 1 0 0 32054.dat
1 4 360 20 -40 0 0 1 0 1 0 -1 0 0 32054.dat
1 0 360 240 40 0 1 0 1 0 0 0 0 -1 2780.dat
1 0 360 240 -40 0 1 0 1 0 0 0 0 -1 2780.dat
1 71 440 60 -40 0 0 -1 0 1 0 1 0 0 64179.dat
1 0 520 80 0 0 0 -1 0 1 0 1 0 0 32278.dat
1 0 520 80 -80 0 0 -1 0 1 0 1 0 0 32278.dat
1 0 500 70 -80 0 1 0 1 0 0 0 0 -1 2780.dat
1 0 460 70 -80 0 1 0 1 0 0 0 0 -1 2780.dat
1 0 420 70 -80 0 1 0 1 0 0 0 0 -1 2780.dat
1 0 380 70 -80 0 1 0 1 0 0 0 0 -1 2780.dat
1 0 380 70 0 0 1 0 1 0 0 0 0 -1 2780.dat
1 0 560 60 -80 0 0 -1 0 1 0 1 0 0 32316.dat
1 0 560 70 -80 0 1 0 1 0 0 0 0 -1 2780.dat
1 0 540 70 -80 0 1 0 1 0 0 0 0 -1 2780.dat
1 71 460 0 0 0 0 -1 1 0 0 0 -1 0 64179.dat
1 1 460 60 0 0 -1 0 1 0 0 0 0 1 6558.dat
1 1 420 60 0 0 -1 0 1 0 0 0 0 1 6558.dat
1 0 500 70 0 0 1 0 1 0 0 0 0 -1 2780.dat
1 0 660 60 -40 -1 0 0 0 1 0 0 0 -1 32316.dat
1 0 660 70 0 0 1 0 1 0 0 0 0 -1 2780.dat
1 0 660 70 -80 0 1 0 1 0 0 0 0 -1 2780.dat
1 0 640 100 0 0 0 -1 0 -1 0 -1 0 0 55615.dat
1 0 620 100 -80 0 0 -1 0 -1 0 -1 0 0 55615.dat
1 72 560 30 -80 1 0 0 0 0 1 0 -1 0 geekservo.dat
1 1 600 40 -80 0 -1 0 -1 0 0 0 0 -1 6558.dat
1 1 520 40 -80 0 -1 0 -1 0 0 0 0 -1 6558.dat
1 0 370 60 -20 -1 0 0 0 1 0 0 0 -1 2780.dat
1 0 370 60 -60 -1 0 0 0 1 0 0 0 -1 2780.dat
1 0 640 240 0 -1 0 0 0 1 0 0 0 -1 55615.dat
1 0 640 160 20 1 0 0 0 0 1 0 -1 0 40490.dat
1 0 640 100 10 0 0 1 0 1 0 -1 0 0 2780.dat
1 0 640 140 10 0 0 1 0 1 0 -1 0 0 2780.dat
1 0 620 180 -100 1 0 0 0 0 1 0 -1 0 40490.dat
1 0 620 100 -90 0 0 1 0 1 0 -1 0 0 2780.dat
1 0 620 140 -90 0 0 1 0 1 0 -1 0 0 2780.dat
1 0 620 260 -90 0 0 1 0 1 0 -1 0 0 2780.dat
1 0 450.417 20 0 0 0 -1 0 -1 0 -1 0 0 6536.dat
1 72 465.417 0 0 0 0 -1 0 1 0 1 0 0 32123a.dat
1 72 435.417 0 0 0 0 -1 0 1 0 1 0 0 32123a.dat
1 0 450.417 20 -10 0 0 1 0 1 0 -1 0 0 4519.dat
1 72 450.417 20 15 -1 0 0 0 1 0 0 0 -1 32123a.dat
1 72 450.417 20 -35 -1 0 0 0 1 0 0 0 -1 32123a.dat
1 0 570 30 -35 -0.0833 0 -0.9965 0.9965 0 -0.0833 0 -1 0 41677.dat
1 0 550.07 28.3333 -20 0 0 1 0 1 0 -1 0 0 32062.dat
1 72 550.07 28.3333 -5 -1 0 0 0 1 0 0 0 -1 32123a.dat
1 14 510.209 25 -20 0.0833 0 0.9965 -0.9965 0 0.0833 0 -1 0 32524.dat
1 71 340 0 0 0 1 0 0 0 -1 -1 0 0 18938.dat
1 1 300 0 0 0 1 0 0 0 -1 -1 0 0 64179.dat
1 1 120 0 0 -1 0 0 0 0 -1 0 -1 0 39793.dat
1 1 220 0 100 0 0 -1 1 0 0 0 -1 0 64179.dat
1 72 240 -40 80 0 0 -1 1 0 0 0 -1 0 32316.dat
1 72 290 -40 60 0 0 -1 1 0 0 0 -1 0 43857.dat
1 0 300 -40 50 0 0 1 0 1 0 -1 0 0 2780.dat
1 1 280 -40 80 0 0 -1 0 1 0 1 0 0 6558.dat
1 0 200 -40 90 0 0 1 0 1 0 -1 0 0 2780.dat
1 72 160 -30 60 1 0 0 0 0 1 0 -1 0 43857.dat
1 0 160 -40 70 0 0 1 0 1 0 -1 0 0 32073.dat
1 72 160 -40 25 -1 0 0 0 1 0 0 0 -1 32123a.dat
1 72 160 -40 115 -1 0 0 0 1 0 0 0 -1 32123a.dat
1 72 240 40 80 0 0 -1 1 0 0 0 -1 0 32316.dat
1 72 290 40 60 0 0 -1 1 0 0 0 -1 0 43857.dat
1 0 300 40 50 0 0 1 0 1 0 -1 0 0 2780.dat
1 1 280 40 80 0 0 -1 0 1 0 1 0 0 6558.dat
1 0 200 40 90 0 0 1 0 1 0 -1 0 0 2780.dat
1 72 160 30 60 1 0 0 0 0 1 0 -1 0 43857.dat
1 0 160 40 70 0 0 1 0 1 0 -1 0 0 32073.dat
1 72 160 40 25 -1 0 0 0 1 0 0 0 -1 32123a.dat
1 72 160 40 115 -1 0 0 0 1 0 0 0 -1 32123a.dat
1 71 160 0 80 1 0 0 0 0 1 0 -1 0 32525.dat
1 71 160 0 40 1 0 0 0 0 1 0 -1 0 32525.dat
1 1 120 0 20 0 0 1 -1 0 0 0 -1 0 60484.dat
1 1 160 -20 40 0 0 -1 0 1 0 1 0 0 6558.dat
1 1 160 20 40 0 0 -1 0 1 0 1 0 0 6558.dat
1 72 180 0 60 0 0 -1 1 0 0 0 -1 0 32523.dat
1 0 200 0 70 0 0 1 0 1 0 -1 0 0 2780.dat
1 0 180 0 70 0 0 1 0 1 0 -1 0 0 2780.dat
1 1 160 0 60 0 0 -1 0 1 0 1 0 0 6558.dat
1 72 280 0 60 0 0 1 -1 0 0 0 -1 0 60484.dat
1 72 240 0 80 0 0 -1 1 0 0 0 -1 0 32524.dat
1 0 320 -20 50 0 0 1 0 1 0 -1 0 0 2780.dat
1 0 320 20 50 0 0 1 0 1 0 -1 0 0 2780.dat
1 1 300 0 60 0 0 -1 0 1 0 1 0 0 6558.dat
1 0 280 0 70 0 0 1 0 1 0 -1 0 0 2780.dat
1 1 220 0 -100 0 0 -1 1 0 0 0 -1 0 64179.dat
1 72 240 -40 -80 0 0 -1 1 0 0 0 -1 0 32316.dat
1 72 290 -40 -60 0 0 -1 1 0 0 0 -1 0 43857.dat
1 0 300 -40 -50 0 0 1 0 1 0 -1 0 0 2780.dat
1 1 280 -40 -80 0 0 1 0 1 0 -1 0 0 6558.dat
1 0 200 -40 -90 0 0 1 0 1 0 -1 0 0 2780.dat
1 72 160 -30 -60 1 0 0 0 0 1 0 -1 0 43857.dat
1 0 160 -40 -70 0 0 1 0 1 0 -1 0 0 32073.dat
1 72 160 -40 -25 -1 0 0 0 1 0 0 0 -1 32123a.dat
1 72 160 -40 -115 -1 0 0 0 1 0 0 0 -1 32123a.dat
1 72 240 40 -80 0 0 -1 1 0 0 0 -1 0 32316.dat
1 72 290 40 -60 0 0 -1 1 0 0 0 -1 0 43857.dat
1 0 300 40 -50 0 0 1 0 1 0 -1 0 0 2780.dat
1 1 280 40 -80 0 0 1 0 1 0 -1 0 0 6558.dat
1 0 200 40 -90 0 0 1 0 1 0 -1 0 0 2780.dat
1 72 160 30 -60 1 0 0 0 0 1 0 -1 0 43857.dat
1 0 160 40 -70 0 0 1 0 1 0 -1 0 0 32073.dat
1 72 160 40 -25 -1 0 0 0 1 0 0 0 -1 32123a.dat
1 72 160 40 -115 -1 0 0 0 1 0 0 0 -1 32123a.dat
1 71 160 0 -80 1 0 0 0 0 1 0 -1 0 32525.dat
1 71 160 0 -40 1 0 0 0 0 1 0 -1 0 32525.dat
1 1 120 0 -20 0 0 1 -1 0 0 0 -1 0 60484.dat
1 1 160 -20 -40 0 0 1 0 1 0 -1 0 0 6558.dat
1 1 160 20 -40 0 0 1 0 1 0 -1 0 0 6558.dat
1 72 180 0 -60 0 0 -1 1 0 0 0 -1 0 32523.dat
1 0 200 0 -70 0 0 1 0 1 0 -1 0 0 2780.dat
1 0 180 0 -70 0 0 1 0 1 0 -1 0 0 2780.dat
1 1 160 0 -60 0 0 1 0 1 0 -1 0 0 6558.dat
1 72 280 0 -60 0 0 1 -1 0 0 0 -1 0 60484.dat
1 72 240 0 -80 0 0 -1 1 0 0 0 -1 0 32524.dat
1 0 320 -20 -50 0 0 1 0 1 0 -1 0 0 2780.dat
1 0 320 20 -50 0 0 1 0 1 0 -1 0 0 2780.dat
1 1 300 0 -60 0 0 1 0 1 0 -1 0 0 6558.dat
1 0 280 0 -70 0 0 1 0 1 0 -1 0 0 2780.dat
1 1 140 0 0 0 0 1 0 1 0 -1 0 0 6558.dat
1 1 120 0 0 0 0 1 0 1 0 -1 0 0 6558.dat
1 72 300 -20 0 0 0 -1 1 0 0 0 -1 0 32184.dat
1 72 300 20 0 0 0 -1 1 0 0 0 -1 0 32184.dat
1 0 300 0 20 0 1 0 1 0 0 0 0 -1 3707.dat
1 72 300 -40 20 -1 0 0 0 0 1 0 1 0 3713.dat
1 72 300 0 20 -1 0 0 0 0 1 0 1 0 3713.dat
1 72 300 40 20 -1 0 0 0 0 1 0 1 0 3713.dat
1 72 300 -75 20 -1 0 0 0 0 1 0 1 0 32123a.dat
1 72 300 75 20 -1 0 0 0 0 1 0 1 0 32123a.dat
1 0 300 0 -20 0 1 0 1 0 0 0 0 -1 3707.dat
1 72 300 -40 -20 -1 0 0 0 0 1 0 1 0 3713.dat
1 72 300 0 -20 -1 0 0 0 0 1 0 1 0 3713.dat
1 72 300 40 -20 -1 0 0 0 0 1 0 1 0 3713.dat
1 72 300 -75 -20 -1 0 0 0 0 1 0 1 0 32123a.dat
1 72 300 75 -20 -1 0 0 0 0 1 0 1 0 32123a.dat
1 0 200 -20 0 -1 0 0 0 1 0 0 0 -1 23948.dat
1 72 285 -20 0 0 0 -1 0 1 0 1 0 0 32123a.dat
1 72 155 -20 0 0 0 -1 0 1 0 1 0 0 32123a.dat
1 0 200 20 0 -1 0 0 0 1 0 0 0 -1 23948.dat
1 72 285 20 0 0 0 -1 0 1 0 1 0 0 32123a.dat
1 72 155 20 0 0 0 -1 0 1 0 1 0 0 32123a.dat
1 14 200.443 0 0 -1 0 0 0 0 -1 0 -1 0 39793.dat
1 0 220.443 0 0 0 0 1 0 1 0 -1 0 0 44294.dat
1 72 220.443 0 65 -1 0 0 0 1 0 0 0 -1 32123a.dat
1 25 210.177 -38.66 30 -0.9665 0 -0.2567 0.2567 0 -0.9665 0 -1 0 32316.dat
1 72 199.91 -77.32 15 -1 0 0 0 1 0 0 0 -1 32123a.dat
1 72 199.91 -77.32 45 -1 0 0 0 1 0 0 0 -1 32123a.dat
1 25 210.177 -38.66 -30 -0.9665 0 -0.2567 0.2567 0 -0.9665 0 -1 0 32316.dat
1 72 199.91 -77.32 -15 -1 0 0 0 1 0 0 0 -1 32123a.dat
1 72 199.91 -77.32 -45 -1 0 0 0 1 0 0 0 -1 32123a.dat
1 0 199.91 -77.32 0 0 0 1 0 1 0 -1 0 0 32073.dat
1 4 160 -80 0 -0.067 0 -0.9978 0.9978 0 -0.067 0 -1 0 32524.dat
1 0 160 -80 0 0 0 1 0 1 0 -1 0 0 3737.dat
1 72 160 -80 20 -1 0 0 0 1 0 0 0 -1 3713.dat
1 72 160 -80 -20 -1 0 0 0 1 0 0 0 -1 3713.dat
1 72 160 -80 95 -1 0 0 0 1 0 0 0 -1 32123a.dat
1 72 160 -80 -95 -1 0 0 0 1 0 0 0 -1 32123a.dat
1 71 160 -120 55 -1 0 0 0 0 1 0 1 0 32056.dat
1 71 160 -120 65 -1 0 0 0 0 1 0 1 0 32056.dat
1 1 160 -100 60 0 0 -1 0 1 0 1 0 0 6558.dat
1 71 160 -120 -55 -1 0 0 0 0 1 0 1 0 32056.dat
1 71 160 -120 -65 -1 0 0 0 0 1 0 1 0 32056.dat
1 1 160 -100 -60 0 0 1 0 1 0 -1 0 0 6558.dat
1 0 120 -120 0 0 0 1 0 1 0 -1 0 0 3707.dat
1 72 120 -120 75 -1 0 0 0 1 0 0 0 -1 32123a.dat
1 72 120 -120 -75 -1 0 0 0 1 0 0 0 -1 32123a.dat
1 4 90.1573 -84.69 15 -0.067 0 -0.9978 0.9978 0 -0.067 0 -1 0 32449.dat
1 4 90.1573 -84.69 -15 -0.067 0 -0.9978 0.9978 0 -0.067 0 -1 0 32449.dat
1 0 120.09 -82.68 0 0 -0.067 0.9978 0 0.9978 0.067 -1 0 0 4519.dat
1 72 120.09 -82.68 25 -0.9978 -0.067 0 -0.067 0.9978 0 0 0 -1 32123a.dat
1 72 120.09 -82.68 -25 -0.9978 -0.067 0 -0.067 0.9978 0 0 0 -1 32123a.dat
1 4 100.135 -84.02 10 0 -0.067 0.9978 0 0.9978 0.067 -1 0 0 32054.dat
1 0 60.2247 -86.7 0 0 -0.067 0.9978 0 0.9978 0.067 -1 0 0 32062.dat
1 71 60.2247 -86.7 0 -0.9978 -0.067 0 -0.067 0.9978 0 0 0 -1 42610.dat
1 0 60.2247 -86.7 0 -0.9978 -0.067 0 -0.067 0.9978 0 0 0 -1 50945_nominal.dat
1 72 220.443 0 -65 -1 0 0 0 1 0 0 0 -1 32123a.dat
1 25 210.177 38.66 50 0.9665 0 -0.2567 0.2567 0 0.9665 0 -1 0 32316.dat
1 72 199.91 77.32 20 -1 0 0 0 1 0 0 0 -1 3713.dat
1 72 199.91 77.32 35 -1 0 0 0 1 0 0 0 -1 32123a.dat
1 72 199.91 77.32 65 -1 0 0 0 1 0 0 0 -1 32123a.dat
1 25 210.177 38.66 -50 0.9665 0 -0.2567 0.2567 0 0.9665 0 -1 0 32316.dat
1 72 199.91 77.32 -20 -1 0 0 0 1 0 0 0 -1 3713.dat
1 72 199.91 77.32 -35 -1 0 0 0 1 0 0 0 -1 32123a.dat
1 72 199.91 77.32 -65 -1 0 0 0 1 0 0 0 -1 32123a.dat
1 0 199.91 77.32 0 0 0 1 0 1 0 -1 0 0 44294.dat
1 4 160 80 0 0.067 0 -0.9978 0.9978 0 0.067 0 -1 0 32524.dat
1 0 160 80 0 0 0 1 0 1 0 -1 0 0 3737.dat
1 72 160 80 20 -1 0 0 0 1 0 0 0 -1 3713.dat
1 72 160 80 -20 -1 0 0 0 1 0 0 0 -1 3713.dat
1 72 160 80 95 -1 0 0 0 1 0 0 0 -1 32123a.dat
1 72 160 80 -95 -1 0 0 0 1 0 0 0 -1 32123a.dat
1 71 160 120 55 -1 0 0 0 0 -1 0 -1 0 32056.dat
1 71 160 120 65 -1 0 0 0 0 -1 0 -1 0 32056.dat
1 1 160 100 60 0 0 -1 0 1 0 1 0 0 6558.dat
1 71 160 120 -55 -1 0 0 0 0 -1 0 -1 0 32056.dat
1 71 160 120 -65 -1 0 0 0 0 -1 0 -1 0 32056.dat
1 1 160 100 -60 0 0 1 0 1 0 -1 0 0 6558.dat
1 0 120 120 0 0 0 1 0 1 0 -1 0 0 3707.dat
1 72 120 120 75 -1 0 0 0 1 0 0 0 -1 32123a.dat
1 72 120 120 -75 -1 0 0 0 1 0 0 0 -1 32123a.dat
1 4 90.1573 84.69 15 0.067 0 -0.9978 0.9978 0 0.067 0 -1 0 32449.dat
1 4 90.1573 84.69 -15 0.067 0 -0.9978 0.9978 0 0.067 0 -1 0 32449.dat
1 0 120.09 82.68 0 0 0.067 0.9978 0 0.9978 -0.067 -1 0 0 4519.dat
1 72 120.09 82.68 25 -0.9978 0.067 0 0.067 0.9978 0 0 0 -1 32123a.dat
1 72 120.09 82.68 -25 -0.9978 0.067 0 0.067 0.9978 0 0 0 -1 32123a.dat
1 4 100.135 84.02 10 0 0.067 0.9978 0 0.9978 -0.067 -1 0 0 32054.dat
1 0 60.2247 86.7 0 0 0.067 0.9978 0 0.9978 -0.067 -1 0 0 32062.dat
1 71 60.2247 86.7 0 -0.9978 0.067 0 0.067 0.9978 0 0 0 -1 42610.dat
1 0 60.2247 86.7 0 -0.9978 0.067 0 0.067 0.9978 0 0 0 -1 50945_nominal.dat
1 22 240.443 0 15 0 0 -1 1 0 0 0 -1 0 41677.dat
1 22 240.443 0 -15 0 0 -1 1 0 0 0 -1 0 41677.dat
1 72 240.443 0 0 0 0 -1 0 1 0 1 0 0 32013.dat
1 0 240.443 0 0 0 0 1 0 1 0 -1 0 0 4519.dat
1 72 240.443 0 25 -1 0 0 0 1 0 0 0 -1 32123a.dat
1 72 240.443 0 -25 -1 0 0 0 1 0 0 0 -1 32123a.dat
1 0 410.443 0 0 -1 0 0 0 1 0 0 0 -1 50451.dat
1 71 0 0 360 0 0 1 1 0 0 0 1 0 64179.dat
1 71 0 100 360 0 0 1 1 0 0 0 1 0 64179.dat
1 71 0 200 360 0 0 1 1 0 0 0 1 0 64179.dat
1 0 -40 50 360 0 0 1 1 0 0 0 1 0 2780.dat
1 0 0 50 360 0 0 1 1 0 0 0 1 0 2780.dat
1 0 40 50 360 0 0 1 1 0 0 0 1 0 2780.dat
1 0 -40 150 360 0 0 1 1 0 0 0 1 0 2780.dat
1 0 0 150 360 0 0 1 1 0 0 0 1 0 2780.dat
1 0 40 150 360 0 0 1 1 0 0 0 1 0 2780.dat
1 15 -100 0 420 0 1 0 0 0 -1 -1 0 0 95658.dat
1 0 -120 210 440 0 0 1 1 0 0 0 1 0 2780.dat
1 0 -120 210 420 0 0 1 1 0 0 0 1 0 2780.dat
1 0 -120 210 400 0 0 1 1 0 0 0 1 0 2780.dat
1 0 -120 220 420 -1 0 0 0 1 0 0 0 -1 32316.dat
1 0 -120 230 460 0 0 1 1 0 0 0 1 0 2780.dat
1 0 -120 230 380 0 0 1 1 0 0 0 1 0 2780.dat
1 0 -120 240 420 -1 0 0 0 1 0 0 0 -1 32316.dat
1 1 -160 40 400 0 0 1 0 1 0 -1 0 0 6558.dat
1 0 -160 80 410 0 0 1 0 1 0 -1 0 0 2780.dat
1 0 -160 60 400 1 0 0 0 0 1 0 -1 0 32523.dat
1 0 -160 60 390 0 0 1 0 1 0 -1 0 0 2780.dat
1 0 -60 40 380 0 0 1 -1 0 0 0 -1 0 32525.dat
1 0 -100 60 380 0 0 1 -1 0 0 0 -1 0 32524.dat
1 0 -100 0 385 0 0 1 0 1 0 -1 0 0 44294.dat
1 72 -100 0 385 -1 0 0 0 1 0 0 0 -1 32123a.dat
1 72 -100 0 375 -1 0 0 0 1 0 0 0 -1 32123a.dat
1 72 -100 0 360 -1 0 0 0 1 0 0 0 -1 3713.dat
1 14 -100 0 340 0 1 0 1 0 0 0 0 -1 3648b.dat
1 72 -100 0 325 -1 0 0 0 1 0 0 0 -1 32123a.dat
1 0 -60 40 370 0 0 1 0 1 0 -1 0 0 2780.dat
1 0 -20 40 370 0 0 1 0 1 0 -1 0 0 2780.dat
1 0 20 40 370 0 0 1 0 1 0 -1 0 0 2780.dat
1 0 -60 60 370 0 0 1 0 1 0 -1 0 0 2780.dat
1 71 0 0 340 1 0 0 0 0 -1 0 1 0 18939.dat
1 4 -40 -20 360 -1 0 0 0 1 0 0 0 -1 32054.dat
1 4 40 20 360 1 0 0 0 1 0 0 0 1 32054.dat
1 0 -40 240 360 0 0 1 1 0 0 0 1 0 2780.dat
1 0 40 240 360 0 0 1 1 0 0 0 1 0 2780.dat
1 71 40 60 440 -1 0 0 0 1 0 0 0 -1 64179.dat
1 0 0 80 520 -1 0 0 0 1 0 0 0 -1 32278.dat
1 0 80 80 520 -1 0 0 0 1 0 0 0 -1 32278.dat
1 0 80 70 500 0 0 1 1 0 0 0 1 0 2780.dat
1 0 80 70 460 0 0 1 1 0 0 0 1 0 2780.dat
1 0 80 70 420 0 0 1 1 0 0 0 1 0 2780.dat
1 0 80 70 380 0 0 1 1 0 0 0 1 0 2780.dat
1 0 0 70 380 0 0 1 1 0 0 0 1 0 2780.dat
1 0 80 60 560 -1 0 0 0 1 0 0 0 -1 32316.dat
1 0 80 70 560 0 0 1 1 0 0 0 1 0 2780.dat
1 0 80 70 540 0 0 1 1 0 0 0 1 0 2780.dat
1 71 0 0 460 0 1 0 1 0 0 0 0 -1 64179.dat
1 1 0 60 460 0 0 -1 1 0 0 0 -1 0 6558.dat
1 1 0 60 420 0 0 -1 1 0 0 0 -1 0 6558.dat
1 0 0 70 500 0 0 1 1 0 0 0 1 0 2780.dat
1 0 40 60 660 0 0 1 0 1 0 -1 0 0 32316.dat
1 0 0 70 660 0 0 1 1 0 0 0 1 0 2780.dat
1 0 80 70 660 0 0 1 1 0 0 0 1 0 2780.dat
1 0 0 100 640 1 0 0 0 -1 0 0 0 -1 55615.dat
1 0 80 100 620 1 0 0 0 -1 0 0 0 -1 55615.dat
1 72 80 30 560 0 1 0 0 0 1 1 0 0 geekservo.dat
1 1 80 40 600 0 0 1 -1 0 0 0 -1 0 6558.dat
1 1 80 40 520 0 0 1 -1 0 0 0 -1 0 6558.dat
1 0 20 60 370 0 0 1 0 1 0 -1 0 0 2780.dat
1 0 60 60 370 0 0 1 0 1 0 -1 0 0 2780.dat
1 0 0 240 640 0 0 1 0 1 0 -1 0 0 55615.dat
1 0 -20 160 640 0 1 0 0 0 1 1 0 0 40490.dat
1 0 -10 100 640 1 0 0 0 1 0 0 0 1 2780.dat
1 0 -10 140 640 1 0 0 0 1 0 0 0 1 2780.dat
1 0 100 180 620 0 1 0 0 0 1 1 0 0 40490.dat
1 0 90 100 620 1 0 0 0 1 0 0 0 1 2780.dat
1 0 90 140 620 1 0 0 0 1 0 0 0 1 2780.dat
1 0 90 260 620 1 0 0 0 1 0 0 0 1 2780.dat
1 0 0 20 450.417 1 0 0 0 -1 0 0 0 -1 6536.dat
1 72 0 0 465.417 -1 0 0 0 1 0 0 0 -1 32123a.dat
1 72 0 0 435.417 -1 0 0 0 1 0 0 0 -1 32123a.dat
1 0 10 20 450.417 1 0 0 0 1 0 0 0 1 4519.dat
1 72 -15 20 450.417 0 0 1 0 1 0 -1 0 0 32123a.dat
1 72 35 20 450.417 0 0 1 0 1 0 -1 0 0 32123a.dat
1 0 35 30 570 0 1 0 0.9965 0 -0.0833 -0.0833 0 -0.9965 41677.dat
1 0 20 28.3333 550.07 1 0 0 0 1 0 0 0 1 32062.dat
1 72 5 28.3333 550.07 0 0 1 0 1 0 -1 0 0 32123a.dat
1 14 20 25 510.209 0 1 0 -0.9965 0 0.0833 0.0833 0 0.9965 32524.dat
1 71 0 0 340 1 0 0 0 0 -1 0 1 0 18938.dat
1 1 0 0 300 1 0 0 0 0 -1 0 1 0 64179.dat
1 1 0 0 120 0 1 0 0 0 -1 -1 0 0 39793.dat
1 1 -100 0 220 0 1 0 1 0 0 0 0 -1 64179.dat
1 72 -80 -40 240 0 1 0 1 0 0 0 0 -1 32316.dat
1 72 -60 -40 290 0 1 0 1 0 0 0 0 -1 43857.dat
1 0 -50 -40 300 1 0 0 0 1 0 0 0 1 2780.dat
1 1 -80 -40 280 -1 0 0 0 1 0 0 0 -1 6558.dat
1 0 -90 -40 200 1 0 0 0 1 0 0 0 1 2780.dat
1 72 -60 -30 160 0 1 0 0 0 1 1 0 0 43857.dat
1 0 -70 -40 160 1 0 0 0 1 0 0 0 1 32073.dat
1 72 -25 -40 160 0 0 1 0 1 0 -1 0 0 32123a.dat
1 72 -115 -40 160 0 0 1 0 1 0 -1 0 0 32123a.dat
1 72 -80 40 240 0 1 0 1 0 0 0 0 -1 32316.dat
1 72 -60 40 290 0 1 0 1 0 0 0 0 -1 43857.dat
1 0 -50 40 300 1 0 0 0 1 0 0 0 1 2780.dat
1 1 -80 40 280 -1 0 0 0 1 0 0 0 -1 6558.dat
1 0 -90 40 200 1 0 0 0 1 0 0 0 1 2780.dat
1 72 -60 30 160 0 1 0 0 0 1 1 0 0 43857.dat
1 0 -70 40 160 1 0 0 0 1 0 0 0 1 32073.dat
1 72 -25 40 160 0 0 1 0 1 0 -1 0 0 32123a.dat
1 72 -115 40 160 0 0 1 0 1 0 -1 0 0 32123a.dat
1 71 -80 0 160 0 1 0 0 0 1 1 0 0 32525.dat
1 71 -40 0 160 0 1 0 0 0 1 1 0 0 32525.dat
1 1 -20 0 120 0 1 0 -1 0 0 0 0 1 60484.dat
1 1 -40 -20 160 -1 0 0 0 1 0 0 0 -1 6558.dat
1 1 -40 20 160 -1 0 0 0 1 0 0 0 -1 6558.dat
1 72 -60 0 180 0 1 0 1 0 0 0 0 -1 32523.dat
1 0 -70 0 200 1 0 0 0 1 0 0 0 1 2780.dat
1 0 -70 0 180 1 0 0 0 1 0 0 0 1 2780.dat
1 1 -60 0 160 -1 0 0 0 1 0 0 0 -1 6558.dat
1 72 -60 0 280 0 1 0 -1 0 0 0 0 1 60484.dat
1 72 -80 0 240 0 1 0 1 0 0 0 0 -1 32524.dat
1 0 -50 -20 320 1 0 0 0 1 0 0 0 1 2780.dat
1 0 -50 20 320 1 0 0 0 1 0 0 0 1 2780.dat
1 1 -60 0 300 -1 0 0 0 1 0 0 0 -1 6558.dat
1 0 -70 0 280 1 0 0 0 1 0 0 0 1 2780.dat
1 1 100 0 220 0 1 0 1 0 0 0 0 -1 64179.dat
1 72 80 -40 240 0 1 0 1 0 0 0 0 -1 32316.dat
1 72 60 -40 290 0 1 0 1 0 0 0 0 -1 43857.dat
1 0 50 -40 300 1 0 0 0 1 0 0 0 1 2780.dat
1 1 80 -40 280 1 0 0 0 1 0 0 0 1 6558.dat
1 0 90 -40 200 1 0 0 0 1 0 0 0 1 2780.dat
1 72 60 -30 160 0 1 0 0 0 1 1 0 0 43857.dat
1 0 70 -40 160 1 0 0 0 1 0 0 0 1 32073.dat
1 72 25 -40 160 0 0 1 0 1 0 -1 0 0 32123a.dat
1 72 115 -40 160 0 0 1 0 1 0 -1 0 0 32123a.dat
1 72 80 40 240 0 1 0 1 0 0 0 0 -1 32316.dat
1 72 60 40 290 0 1 0 1 0 0 0 0 -1 43857.dat
1 0 50 40 300 1 0 0 0 1 0 0 0 1 2780.dat
1 1 80 40 280 1 0 0 0 1 0 0 0 1 6558.dat
1 0 90 40 200 1 0 0 0 1 0 0 0 1 2780.dat
1 72 60 30 160 0 1 0 0 0 1 1 0 0 43857.dat
1 0 70 40 160 1 0 0 0 1 0 0 0 1 32073.dat
1 72 25 40 160 0 0 1 0 1 0 -1 0 0 32123a.dat
1 72 115 40 160 0 0 1 0 1 0 -1 0 0 32123a.dat
1 71 80 0 160 0 1 0 0 0 1 1 0 0 32525.dat
1 71 40 0 160 0 1 0 0 0 1 1 0 0 32525.dat
1 1 20 0 120 0 1 0 -1 0 0 0 0 1 60484.dat
1 1 40 -20 160 1 0 0 0 1 0 0 0 1 6558.dat
1 1 40 20 160 1 0 0 0 1 0 0 0 1 6558.dat
1 72 60 0 180 0 1 0 1 0 0 0 0 -1 32523.dat
1 0 70 0 200 1 0 0 0 1 0 0 0 1 2780.dat
1 0 70 0 180 1 0 0 0 1 0 0 0 1 2780.dat
1 1 60 0 160 1 0 0 0 1 0 0 0 1 6558.dat
1 72 60 0 280 0 1 0 -1 0 0 0 0 1 60484.dat
1 72 80 0 240 0 1 0 1 0 0 0 0 -1 32524.dat
1 0 50 -20 320 1 0 0 0 1 0 0 0 1 2780.dat
1 0 50 20 320 1 0 0 0 1 0 0 0 1 2780.dat
1 1 60 0 300 1 0 0 0 1 0 0 0 1 6558.dat
1 0 70 0 280 1 0 0 0 1 0 0 0 1 2780.dat
1 1 0 0 140 1 0 0 0 1 0 0 0 1 6558.dat
1 1 0 0 120 1 0 0 0 1 0 0 0 1 6558.dat
1 72 0 -20 300 0 1 0 1 0 0 0 0 -1 32184.dat
1 72 0 20 300 0 1 0 1 0 0 0 0 -1 32184.dat
1 0 -20 0 300 0 0 1 1 0 0 0 1 0 3707.dat
1 72 -20 -40 300 0 -1 0 0 0 1 -1 0 0 3713.dat
1 72 -20 0 300 0 -1 0 0 0 1 -1 0 0 3713.dat
1 72 -20 40 300 0 -1 0 0 0 1 -1 0 0 3713.dat
1 72 -20 -75 300 0 -1 0 0 0 1 -1 0 0 32123a.dat
1 72 -20 75 300 0 -1 0 0 0 1 -1 0 0 32123a.dat
1 0 20 0 300 0 0 1 1 0 0 0 1 0 3707.dat
1 72 20 -40 300 0 -1 0 0 0 1 -1 0 0 3713.dat
1 72 20 0 300 0 -1 0 0 0 1 -1 0 0 3713.dat
1 72 20 40 300 0 -1 0 0 0 1 -1 0 0 3713.dat
1 72 20 -75 300 0 -1 0 0 0 1 -1 0 0 32123a.dat
1 72 20 75 300 0 -1 0 0 0 1 -1 0 0 32123a.dat
1 0 0 -20 200 0 0 1 0 1 0 -1 0 0 23948.dat
1 72 0 -20 285 -1 0 0 0 1 0 0 0 -1 32123a.dat
1 72 0 -20 155 -1 0 0 0 1 0 0 0 -1 32123a.dat
1 0 0 20 200 0 0 1 0 1 0 -1 0 0 23948.dat
1 72 0 20 285 -1 0 0 0 1 0 0 0 -1 32123a.dat
1 72 0 20 155 -1 0 0 0 1 0 0 0 -1 32123a.dat
1 14 0 0 200.443 0 1 0 0 0 -1 -1 0 0 39793.dat
1 0 0 0 220.443 1 0 0 0 1 0 0 0 1 44294.dat
1 72 -65 0 220.443 0 0 1 0 1 0 -1 0 0 32123a.dat
1 25 -30 -38.66 210.177 0 1 0 0.2567 0 -0.9665 -0.9665 0 -0.2567 32316.dat
1 72 -15 -77.32 199.91 0 0 1 0 1 0 -1 0 0 32123a.dat
1 72 -45 -77.32 199.91 0 0 1 0 1 0 -1 0 0 32123a.dat
1 25 30 -38.66 210.177 0 1 0 0.2567 0 -0.9665 -0.9665 0 -0.2567 32316.dat
1 72 15 -77.32 199.91 0 0 1 0 1 0 -1 0 0 32123a.dat
1 72 45 -77.32 199.91 0 0 1 0 1 0 -1 0 0 32123a.dat
1 0 0 -77.32 199.91 1 0 0 0 1 0 0 0 1 32073.dat
1 4 0 -80 160 0 1 0 0.9978 0 -0.067 -0.067 0 -0.9978 32524.dat
1 0 0 -80 160 1 0 0 0 1 0 0 0 1 3737.dat
1 72 -20 -80 160 0 0 1 0 1 0 -1 0 0 3713.dat
1 72 20 -80 160 0 0 1 0 1 0 -1 0 0 3713.dat
1 72 -95 -80 160 0 0 1 0 1 0 -1 0 0 32123a.dat
1 72 95 -80 160 0 0 1 0 1 0 -1 0 0 32123a.dat
1 71 -55 -120 160 0 -1 0 0 0 1 -1 0 0 32056.dat
1 71 -65 -120 160 0 -1 0 0 0 1 -1 0 0 32056.dat
1 1 -60 -100 160 -1 0 0 0 1 0 0 0 -1 6558.dat
1 71 55 -120 160 0 -1 0 0 0 1 -1 0 0 32056.dat
1 71 65 -120 160 0 -1 0 0 0 1 -1 0 0 32056.dat
1 1 60 -100 160 1 0 0 0 1 0 0 0 1 6558.dat
1 0 0 -120 120 1 0 0 0 1 0 0 0 1 3707.dat
1 72 -75 -120 120 0 0 1 0 1 0 -1 0 0 32123a.dat
1 72 75 -120 120 0 0 1 0 1 0 -1 0 0 32123a.dat
1 4 -15 -84.69 90.1573 0 1 0 0.9978 0 -0.067 -0.067 0 -0.9978 32449.dat
1 4 15 -84.69 90.1573 0 1 0 0.9978 0 -0.067 -0.067 0 -0.9978 32449.dat
1 0 0 -82.68 120.09 1 0 0 0 0.9978 0.067 0 -0.067 0.9978 4519.dat
1 72 -25 -82.68 120.09 0 0 1 -0.067 0.9978 0 -0.9978 -0.067 0 32123a.dat
1 72 25 -82.68 120.09 0 0 1 -0.067 0.9978 0 -0.9978 -0.067 0 32123a.dat
1 4 -10 -84.02 100.135 1 0 0 0 0.9978 0.067 0 -0.067 0.9978 32054.dat
1 0 0 -86.7 60.2247 1 0 0 0 0.9978 0.067 0 -0.067 0.9978 32062.dat
1 71 0 -86.7 60.2247 0 0 1 -0.067 0.9978 0 -0.9978 -0.067 0 42610.dat
1 0 0 -86.7 60.2247 0 0 1 -0.067 0.9978 0 -0.9978 -0.067 0 50945_nominal.dat
1 72 65 0 220.443 0 0 1 0 1 0 -1 0 0 32123a.dat
1 25 -50 38.66 210.177 0 1 0 0.2567 0 0.9665 0.9665 0 -0.2567 32316.dat
1 72 -20 77.32 199.91 0 0 1 0 1 0 -1 0 0 3713.dat
1 72 -35 77.32 199.91 0 0 1 0 1 0 -1 0 0 32123a.dat
1 72 -65 77.32 199.91 0 0 1 0 1 0 -1 0 0 32123a.dat
1 25 50 38.66 210.177 0 1 0 0.2567 0 0.9665 0.9665 0 -0.2567 32316.dat
1 72 20 77.32 199.91 0 0 1 0 1 0 -1 0 0 3713.dat
1 72 35 77.32 199.91 0 0 1 0 1 0 -1 0 0 32123a.dat
1 72 65 77.32 199.91 0 0 1 0 1 0 -1 0 0 32123a.dat
1 0 0 77.32 199.91 1 0 0 0 1 0 0 0 1 44294.dat
1 4 0 80 160 0 1 0 0.9978 0 0.067 0.067 0 -0.9978 32524.dat
1 0 0 80 160 1 0 0 0 1 0 0 0 1 3737.dat
1 72 -20 80 160 0 0 1 0 1 0 -1 0 0 3713.dat
1 72 20 80 160 0 0 1 0 1 0 -1 0 0 3713.dat
1 72 -95 80 160 0 0 1 0 1 0 -1 0 0 32123a.dat
1 72 95 80 160 0 0 1 0 1 0 -1 0 0 32123a.dat
1 71 -55 120 160 0 1 0 0 0 -1 -1 0 0 32056.dat
1 71 -65 120 160 0 1 0 0 0 -1 -1 0 0 32056.dat
1 1 -60 100 160 -1 0 0 0 1 0 0 0 -1 6558.dat
1 71 55 120 160 0 1 0 0 0 -1 -1 0 0 32056.dat
1 71 65 120 160 0 1 0 0 0 -1 -1 0 0 32056.dat
1 1 60 100 160 1 0 0 0 1 0 0 0 1 6558.dat
1 0 0 120 120 1 0 0 0 1 0 0 0 1 3707.dat
1 72 -75 120 120 0 0 1 0 1 0 -1 0 0 32123a.dat
1 72 75 120 120 0 0 1 0 1 0 -1 0 0 32123a.dat
1 4 -15 84.69 90.1573 0 1 0 0.9978 0 0.067 0.067 0 -0.9978 32449.dat
1 4 15 84.69 90.1573 0 1 0 0.9978 0 0.067 0.067 0 -0.9978 32449.dat
1 0 0 82.68 120.09 1 0 0 0 0.9978 -0.067 0 0.067 0.9978 4519.dat
1 72 -25 82.68 120.09 0 0 1 0.067 0.9978 0 -0.9978 0.067 0 32123a.dat
1 72 25 82.68 120.09 0 0 1 0.067 0.9978 0 -0.9978 0.067 0 32123a.dat
1 4 -10 84.02 100.135 1 0 0 0 0.9978 -0.067 0 0.067 0.9978 32054.dat
1 0 0 86.7 60.2247 1 0 0 0 0.9978 -0.067 0 0.067 0.9978 32062.dat
1 71 0 86.7 60.2247 0 0 1 0.067 0.9978 0 -0.9978 0.067 0 42610.dat
1 0 0 86.7 60.2247 0 0 1 0.067 0.9978 0 -0.9978 0.067 0 50945_nominal.dat
1 22 -15 0 240.443 0 1 0 1 0 0 0 0 -1 41677.dat
1 22 15 0 240.443 0 1 0 1 0 0 0 0 -1 41677.dat
1 72 0 0 240.443 -1 0 0 0 1 0 0 0 -1 32013.dat
1 0 0 0 240.443 1 0 0 0 1 0 0 0 1 4519.dat
1 72 -25 0 240.443 0 0 1 0 1 0 -1 0 0 32123a.dat
1 72 25 0 240.443 0 0 1 0 1 0 -1 0 0 32123a.dat
1 0 0 0 410.443 0 0 1 0 1 0 -1 0 0 50451.dat
1 71 0 0 -360 0 0 -1 1 0 0 0 -1 0 64179.dat
1 71 0 100 -360 0 0 -1 1 0 0 0 -1 0 64179.dat
1 71 0 200 -360 0 0 -1 1 0 0 0 -1 0 64179.dat
1 0 40 50 -360 0 0 -1 1 0 0 0 -1 0 2780.dat
1 0 0 50 -360 0 0 -1 1 0 0 0 -1 0 2780.dat
1 0 -40 50 -360 0 0 -1 1 0 0 0 -1 0 2780.dat
1 0 40 150 -360 0 0 -1 1 0 0 0 -1 0 2780.dat
1 0 0 150 -360 0 0 -1 1 0 0 0 -1 0 2780.dat
1 0 -40 150 -360 0 0 -1 1 0 0 0 -1 0 2780.dat
1 15 100 0 -420 0 -1 0 0 0 -1 1 0 0 95658.dat
1 0 120 210 -440 0 0 -1 1 0 0 0 -1 0 2780.dat
1 0 120 210 -420 0 0 -1 1 0 0 0 -1 0 2780.dat
1 0 120 210 -400 0 0 -1 1 0 0 0 -1 0 2780.dat
1 0 120 220 -420 1 0 0 0 1 0 0 0 1 32316.dat
1 0 120 230 -460 0 0 -1 1 0 0 0 -1 0 2780.dat
1 0 120 230 -380 0 0 -1 1 0 0 0 -1 0 2780.dat
1 0 120 240 -420 1 0 0 0 1 0 0 0 1 32316.dat
1 1 160 40 -400 0 0 -1 0 1 0 1 0 0 6558.dat
1 0 160 80 -410 0 0 -1 0 1 0 1 0 0 2780.dat
1 0 160 60 -400 -1 0 0 0 0 1 0 1 0 32523.dat
1 0 160 60 -390 0 0 -1 0 1 0 1 0 0 2780.dat
1 0 60 40 -380 0 0 -1 -1 0 0 0 1 0 32525.dat
1 0 100 60 -380 0 0 -1 -1 0 0 0 1 0 32524.dat
1 0 100 0 -385 0 0 -1 0 1 0 1 0 0 44294.dat
1 72 100 0 -385 1 0 0 0 1 0 0 0 1 32123a.dat
1 72 100 0 -375 1 0 0 0 1 0 0 0 1 32123a.dat
1 72 100 0 -360 1 0 0 0 1 0 0 0 1 3713.dat
1 14 100 0 -340 0 -1 0 1 0 0 0 0 1 3648b.dat
1 72 100 0 -325 1 0 0 0 1 0 0 0 1 32123a.dat
1 0 60 40 -370 0 0 -1 0 1 0 1 0 0 2780.dat
1 0 20 40 -370 0 0 -1 0 1 0 1 0 0 2780.dat
1 0 -20 40 -370 0 0 -1 0 1 0 1 0 0 2780.dat
1 0 60 60 -370 0 0 -1 0 1 0 1 0 0 2780.dat
1 71 0 0 -340 -1 0 0 0 0 -1 0 -1 0 18939.dat
1 4 40 -20 -360 1 0 0 0 1 0 0 0 1 32054.dat
1 4 -40 20 -360 -1 0 0 0 1 0 0 0 -1 32054.dat
1 0 40 240 -360 0 0 -1 1 0 0 0 -1 0 2780.dat
1 0 -40 240 -360 0 0 -1 1 0 0 0 -1 0 2780.dat
1 71 -40 60 -440 1 0 0 0 1 0 0 0 1 64179.dat
1 0 0 80 -520 1 0 0 0 1 0 0 0 1 32278.dat
1 0 -80 80 -520 1 0 0 0 1 0 0 0 1 32278.dat
1 0 -80 70 -500 0 0 -1 1 0 0 0 -1 0 2780.dat
1 0 -80 70 -460 0 0 -1 1 0 0 0 -1 0 2780.dat
1 0 -80 70 -420 0 0 -1 1 0 0 0 -1 0 2780.dat
1 0 -80 70 -380 0 0 -1 1 0 0 0 -1 0 2780.dat
1 0 0 70 -380 0 0 -1 1 0 0 0 -1 0 2780.dat
1 0 -80 60 -560 1 0 0 0 1 0 0 0 1 32316.dat
1 0 -80 70 -560 0 0 -1 1 0 0 0 -1 0 2780.dat
1 0 -80 70 -540 0 0 -1 1 0 0 0 -1 0 2780.dat
1 71 0 0 -460 0 -1 0 1 0 0 0 0 1 64179.dat
1 1 0 60 -460 0 0 1 1 0 0 0 1 0 6558.dat
1 1 0 60 -420 0 0 1 1 0 0 0 1 0 6558.dat
1 0 0 70 -500 0 0 -1 1 0 0 0 -1 0 2780.dat
1 0 -40 60 -660 0 0 -1 0 1 0 1 0 0 32316.dat
1 0 0 70 -660 0 0 -1 1 0 0 0 -1 0 2780.dat
1 0 -80 70 -660 0 0 -1 1 0 0 0 -1 0 2780.dat
1 0 0 100 -640 -1 0 0 0 -1 0 0 0 1 55615.dat
1 0 -80 100 -620 -1 0 0 0 -1 0 0 0 1 55615.dat
1 72 -80 30 -560 0 -1 0 0 0 1 -1 0 0 geekservo.dat
1 1 -80 40 -600 0 0 -1 -1 0 0 0 1 0 6558.dat
1 1 -80 40 -520 0 0 -1 -1 0 0 0 1 0 6558.dat
1 0 -20 60 -370 0 0 -1 0 1 0 1 0 0 2780.dat
1 0 -60 60 -370 0 0 -1 0 1 0 1 0 0 2780.dat
1 0 0 240 -640 0 0 -1 0 1 0 1 0 0 55615.dat
1 0 20 160 -640 0 -1 0 0 0 1 -1 0 0 40490.dat
1 0 10 100 -640 -1 0 0 0 1 0 0 0 -1 2780.dat
1 0 10 140 -640 -1 0 0 0 1 0 0 0 -1 2780.dat
1 0 -100 180 -620 0 -1 0 0 0 1 -1 0 0 40490.dat
1 0 -90 100 -620 -1 0 0 0 1 0 0 0 -1 2780.dat
1 0 -90 140 -620 -1 0 0 0 1 0 0 0 -1 2780.dat
1 0 -90 260 -620 -1 0 0 0 1 0 0 0 -1 2780.dat
1 0 0 20 -450.417 -1 0 0 0 -1 0 0 0 1 6536.dat
1 72 0 0 -465.417 1 0 0 0 1 0 0 0 1 32123a.dat
1 72 0 0 -435.417 1 0 0 0 1 0 0 0 1 32123a.dat
1 0 -10 20 -450.417 -1 0 0 0 1 0 0 0 -1 4519.dat
1 72 15 20 -450.417 0 0 -1 0 1 0 1 0 0 32123a.dat
1 72 -35 20 -450.417 0 0 -1 0 1 0 1 0 0 32123a.dat
1 0 -35 30 -570 0 -1 0 0.9965 0 -0.0833 0.0833 0 0.9965 41677.dat
1 0 -20 28.3333 -550.07 -1 0 0 0 1 0 0 0 -1 32062.dat
1 72 -5 28.3333 -550.07 0 0 -1 0 1 0 1 0 0 32123a.dat
1 14 -20 25 -510.209 0 -1 0 -0.9965 0 0.0833 -0.0833 0 -0.9965 32524.dat
1 71 0 0 -340 -1 0 0 0 0 -1 0 -1 0 18938.dat
1 1 0 0 -300 -1 0 0 0 0 -1 0 -1 0 64179.dat
1 1 0 0 -120 0 -1 0 0 0 -1 1 0 0 39793.dat
1 1 100 0 -220 0 -1 0 1 0 0 0 0 1 64179.dat
1 72 80 -40 -240 0 -1 0 1 0 0 0 0 1 32316.dat
1 72 60 -40 -290 0 -1 0 1 0 0 0 0 1 43857.dat
1 0 50 -40 -300 -1 0 0 0 1 0 0 0 -1 2780.dat
1 1 80 -40 -280 1 0 0 0 1 0 0 0 1 6558.dat
1 0 90 -40 -200 -1 0 0 0 1 0 0 0 -1 2780.dat
1 72 60 -30 -160 0 -1 0 0 0 1 -1 0 0 43857.dat
1 0 70 -40 -160 -1 0 0 0 1 0 0 0 -1 32073.dat
1 72 25 -40 -160 0 0 -1 0 1 0 1 0 0 32123a.dat
1 72 115 -40 -160 0 0 -1 0 1 0 1 0 0 32123a.dat
1 72 80 40 -240 0 -1 0 1 0 0 0 0 1 32316.dat
1 72 60 40 -290 0 -1 0 1 0 0 0 0 1 43857.dat
1 0 50 40 -300 -1 0 0 0 1 0 0 0 -1 2780.dat
1 1 80 40 -280 1 0 0 0 1 0 0 0 1 6558.dat
1 0 90 40 -200 -1 0 0 0 1 0 0 0 -1 2780.dat
1 72 60 30 -160 0 -1 0 0 0 1 -1 0 0 43857.dat
1 0 70 40 -160 -1 0 0 0 1 0 0 0 -1 32073.dat
1 72 25 40 -160 0 0 -1 0 1 0 1 0 0 32123a.dat
1 72 115 40 -160 0 0 -1 0 1 0 1 0 0 32123a.dat
1 71 80 0 -160 0 -1 0 0 0 1 -1 0 0 32525.dat
1 71 40 0 -160 0 -1 0 0 0 1 -1 0 0 32525.dat
1 1 20 0 -120 0 -1 0 -1 0 0 0 0 -1 60484.dat
1 1 40 -20 -160 1 0 0 0 1 0 0 0 1 6558.dat
1 1 40 20 -160 1 0 0 0 1 0 0 0 1 6558.dat
1 72 60 0 -180 0 -1 0 1 0 0 0 0 1 32523.dat
1 0 70 0 -200 -1 0 0 0 1 0 0 0 -1 2780.dat
1 0 70 0 -180 -1 0 0 0 1 0 0 0 -1 2780.dat
1 1 60 0 -160 1 0 0 0 1 0 0 0 1 6558.dat
1 72 60 0 -280 0 -1 0 -1 0 0 0 0 -1 60484.dat
1 72 80 0 -240 0 -1 0 1 0 0 0 0 1 32524.dat
1 0 50 -20 -320 -1 0 0 0 1 0 0 0 -1 2780.dat
1 0 50 20 -320 -1 0 0 0 1 0 0 0 -1 2780.dat
1 1 60 0 -300 1 0 0 0 1 0 0 0 1 6558.dat
1 0 70 0 -280 -1 0 0 0 1 0 0 0 -1 2780.dat
1 1 -100 0 -220 0 -1 0 1 0 0 0 0 1 64179.dat
1 72 -80 -40 -240 0 -1 0 1 0 0 0 0 1 32316.dat
1 72 -60 -40 -290 0 -1 0 1 0 0 0 0 1 43857.dat
1 0 -50 -40 -300 -1 0 0 0 1 0 0 0 -1 2780.dat
1 1 -80 -40 -280 -1 0 0 0 1 0 0 0 -1 6558.dat
1 0 -90 -40 -200 -1 0 0 0 1 0 0 0 -1 2780.dat
1 72 -60 -30 -160 0 -1 0 0 0 1 -1 0 0 43857.dat
1 0 -70 -40 -160 -1 0 0 0 1 0 0 0 -1 32073.dat
1 72 -25 -40 -160 0 0 -1 0 1 0 1 0 0 32123a.dat
1 72 -115 -40 -160 0 0 -1 0 1 0 1 0 0 32123a.dat
1 72 -80 40 -240 0 -1 0 1 0 0 0 0 1 32316.dat
1 72 -60 40 -290 0 -1 0 1 0 0 0 0 1 43857.dat
1 0 -50 40 -300 -1 0 0 0 1 0 0 0 -1 2780.dat
1 1 -80 40 -280 -1 0 0 0 1 0 0 0 -1 6558.dat
1 0 -90 40 -200 -1 0 0 0 1 0 0 0 -1 2780.dat
1 72 -60 30 -160 0 -1 0 0 0 1 -1 0 0 43857.dat
1 0 -70 40 -160 -1 0 0 0 1 0 0 0 -1 32073.dat
1 72 -25 40 -160 0 0 -1 0 1 0 1 0 0 32123a.dat
1 72 -115 40 -160 0 0 -1 0 1 0 1 0 0 32123a.dat
1 71 -80 0 -160 0 -1 0 0 0 1 -1 0 0 32525.dat
1 71 -40 0 -160 0 -1 0 0 0 1 -1 0 0 32525.dat
1 1 -20 0 -120 0 -1 0 -1 0 0 0 0 -1 60484.dat
1 1 -40 -20 -160 -1 0 0 0 1 0 0 0 -1 6558.dat
1 1 -40 20 -160 -1 0 0 0 1 0 0 0 -1 6558.dat
1 72 -60 0 -180 0 -1 0 1 0 0 0 0 1 32523.dat
1 0 -70 0 -200 -1 0 0 0 1 0 0 0 -1 2780.dat
1 0 -70 0 -180 -1 0 0 0 1 0 0 0 -1 2780.dat
1 1 -60 0 -160 -1 0 0 0 1 0 0 0 -1 6558.dat
1 72 -60 0 -280 0 -1 0 -1 0 0 0 0 -1 60484.dat
1 72 -80 0 -240 0 -1 0 1 0 0 0 0 1 32524.dat
1 0 -50 -20 -320 -1 0 0 0 1 0 0 0 -1 2780.dat
1 0 -50 20 -320 -1 0 0 0 1 0 0 0 -1 2780.dat
1 1 -60 0 -300 -1 0 0 0 1 0 0 0 -1 6558.dat
1 0 -70 0 -280 -1 0 0 0 1 0 0 0 -1 2780.dat
1 1 0 0 -140 -1 0 0 0 1 0 0 0 -1 6558.dat
1 1 0 0 -120 -1 0 0 0 1 0 0 0 -1 6558.dat
1 72 0 -20 -300 0 -1 0 1 0 0 0 0 1 32184.dat
1 72 0 20 -300 0 -1 0 1 0 0 0 0 1 32184.dat
1 0 20 0 -300 0 0 -1 1 0 0 0 -1 0 3707.dat
1 72 20 -40 -300 0 1 0 0 0 1 1 0 0 3713.dat
1 72 20 0 -300 0 1 0 0 0 1 1 0 0 3713.dat
1 72 20 40 -300 0 1 0 0 0 1 1 0 0 3713.dat
1 72 20 -75 -300 0 1 0 0 0 1 1 0 0 32123a.dat
1 72 20 75 -300 0 1 0 0 0 1 1 0 0 32123a.dat
1 0 -20 0 -300 0 0 -1 1 0 0 0 -1 0 3707.dat
1 72 -20 -40 -300 0 1 0 0 0 1 1 0 0 3713.dat
1 72 -20 0 -300 0 1 0 0 0 1 1 0 0 3713.dat
1 72 -20 40 -300 0 1 0 0 0 1 1 0 0 3713.dat
1 72 -20 -75 -300 0 1 0 0 0 1 1 0 0 32123a.dat
1 72 -20 75 -300 0 1 0 0 0 1 1 0 0 32123a.dat
1 0 0 -20 -200 0 0 -1 0 1 0 1 0 0 23948.dat
1 72 0 -20 -285 1 0 0 0 1 0 0 0 1 32123a.dat
1 72 0 -20 -155 1 0 0 0 1 0 0 0 1 32123a.dat
1 0 0 20 -200 0 0 -1 0 1 0 1 0 0 23948.dat
1 72 0 20 -285 1 0 0 0 1 0 0 0 1 32123a.dat
1 72 0 20 -155 1 0 0 0 1 0 0 0 1 32123a.dat
1 14 0 0 -200.443 0 -1 0 0 0 -1 1 0 0 39793.dat
1 0 0 0 -220.443 -1 0 0 0 1 0 0 0 -1 44294.dat
1 72 65 0 -220.443 0 0 -1 0 1 0 1 0 0 32123a.dat
1 25 30 -38.66 -210.177 0 -1 0 0.2567 0 -0.9665 0.9665 0 0.2567 32316.dat
1 72 15 -77.32 -199.91 0 0 -1 0 1 0 1 0 0 32123a.dat
1 72 45 -77.32 -199.91 0 0 -1 0 1 0 1 0 0 32123a.dat
1 25 -30 -38.66 -210.177 0 -1 0 0.2567 0 -0.9665 0.9665 0 0.2567 32316.dat
1 72 -15 -77.32 -199.91 0 0 -1 0 1 0 1 0 0 32123a.dat
1 72 -45 -77.32 -199.91 0 0 -1 0 1 0 1 0 0 32123a.dat
1 0 0 -77.32 -199.91 -1 0 0 0 1 0 0 0 -1 32073.dat
1 4 0 -80 -160 0 -1 0 0.9978 0 -0.067 0.067 0 0.9978 32524.dat
1 0 0 -80 -160 -1 0 0 0 1 0 0 0 -1 3737.dat
1 72 20 -80 -160 0 0 -1 0 1 0 1 0 0 3713.dat
1 72 -20 -80 -160 0 0 -1 0 1 0 1 0 0 3713.dat
1 72 95 -80 -160 0 0 -1 0 1 0 1 0 0 32123a.dat
1 72 -95 -80 -160 0 0 -1 0 1 0 1 0 0 32123a.dat
1 71 55 -120 -160 0 1 0 0 0 1 1 0 0 32056.dat
1 71 65 -120 -160 0 1 0 0 0 1 1 0 0 32056.dat
1 1 60 -100 -160 1 0 0 0 1 0 0 0 1 6558.dat
1 71 -55 -120 -160 0 1 0 0 0 1 1 0 0 32056.dat
1 71 -65 -120 -160 0 1 0 0 0 1 1 0 0 32056.dat
1 1 -60 -100 -160 -1 0 0 0 1 0 0 0 -1 6558.dat
1 0 0 -120 -120 -1 0 0 0 1 0 0 0 -1 3707.dat
1 72 75 -120 -120 0 0 -1 0 1 0 1 0 0 32123a.dat
1 72 -75 -120 -120 0 0 -1 0 1 0 1 0 0 32123a.dat
1 4 15 -84.69 -90.1573 0 -1 0 0.9978 0 -0.067 0.067 0 0.9978 32449.dat
1 4 -15 -84.69 -90.1573 0 -1 0 0.9978 0 -0.067 0.067 0 0.9978 32449.dat
1 0 0 -82.68 -120.09 -1 0 0 0 0.9978 0.067 0 0.067 -0.9978 4519.dat
1 72 25 -82.68 -120.09 0 0 -1 -0.067 0.9978 0 0.9978 0.067 0 32123a.dat
1 72 -25 -82.68 -120.09 0 0 -1 -0.067 0.9978 0 0.9978 0.067 0 32123a.dat
1 4 10 -84.02 -100.135 -1 0 0 0 0.9978 0.067 0 0.067 -0.9978 32054.dat
1 0 0 -86.7 -60.2247 -1 0 0 0 0.9978 0.067 0 0.067 -0.9978 32062.dat
1 71 0 -86.7 -60.2247 0 0 -1 -0.067 0.9978 0 0.9978 0.067 0 42610.dat
1 0 0 -86.7 -60.2247 0 0 -1 -0.067 0.9978 0 0.9978 0.067 0 50945_nominal.dat
1 72 -65 0 -220.443 0 0 -1 0 1 0 1 0 0 32123a.dat
1 25 50 38.66 -210.177 0 -1 0 0.2567 0 0.9665 -0.9665 0 0.2567 32316.dat
1 72 20 77.32 -199.91 0 0 -1 0 1 0 1 0 0 3713.dat
1 72 35 77.32 -199.91 0 0 -1 0 1 0 1 0 0 32123a.dat
1 72 65 77.32 -199.91 0 0 -1 0 1 0 1 0 0 32123a.dat
1 25 -50 38.66 -210.177 0 -1 0 0.2567 0 0.9665 -0.9665 0 0.2567 32316.dat
1 72 -20 77.32 -199.91 0 0 -1 0 1 0 1 0 0 3713.dat
1 72 -35 77.32 -199.91 0 0 -1 0 1 0 1 0 0 32123a.dat
1 72 -65 77.32 -199.91 0 0 -1 0 1 0 1 0 0 32123a.dat
1 0 0 77.32 -199.91 -1 0 0 0 1 0 0 0 -1 44294.dat
1 4 0 80 -160 0 -1 0 0.9978 0 0.067 -0.067 0 0.9978 32524.dat
1 0 0 80 -160 -1 0 0 0 1 0 0 0 -1 3737.dat
1 72 20 80 -160 0 0 -1 0 1 0 1 0 0 3713.dat
1 72 -20 80 -160 0 0 -1 0 1 0 1 0 0 3713.dat
1 72 95 80 -160 0 0 -1 0 1 0 1 0 0 32123a.dat
1 72 -95 80 -160 0 0 -1 0 1 0 1 0 0 32123a.dat
1 71 55 120 -160 0 -1 0 0 0 -1 1 0 0 32056.dat
1 71 65 120 -160 0 -1 0 0 0 -1 1 0 0 32056.dat
1 1 60 100 -160 1 0 0 0 1 0 0 0 1 6558.dat
1 71 -55 120 -160 0 -1 0 0 0 -1 1 0 0 32056.dat
1 71 -65 120 -160 0 -1 0 0 0 -1 1 0 0 32056.dat
1 1 -60 100 -160 -1 0 0 0 1 0 0 0 -1 6558.dat
1 0 0 120 -120 -1 0 0 0 1 0 0 0 -1 3707.dat
1 72 75 120 -120 0 0 -1 0 1 0 1 0 0 32123a.dat
1 72 -75 120 -120 0 0 -1 0 1 0 1 0 0 32123a.dat
1 4 15 84.69 -90.1573 0 -1 0 0.9978 0 0.067 -0.067 0 0.9978 32449.dat
1 4 -15 84.69 -90.1573 0 -1 0 0.9978 0 0.067 -0.067 0 0.9978 32449.dat
1 0 0 82.68 -120.09 -1 0 0 0 0.9978 -0.067 0 -0.067 -0.9978 4519.dat
1 72 25 82.68 -120.09 0 0 -1 0.067 0.9978 0 0.9978 -0.067 0 32123a.dat
1 72 -25 82.68 -120.09 0 0 -1 0.067 0.9978 0 0.9978 -0.067 0 32123a.dat
1 4 10 84.02 -100.135 -1 0 0 0 0.9978 -0.067 0 -0.067 -0.9978 32054.dat
1 0 0 86.7 -60.2247 -1 0 0 0 0.9978 -0.067 0 -0.067 -0.9978 32062.dat
1 71 0 86.7 -60.2247 0 0 -1 0.067 0.9978 0 0.9978 -0.067 0 42610.dat
1 0 0 86.7 -60.2247 0 0 -1 0.067 0.9978 0 0.9978 -0.067 0 50945_nominal.dat
1 22 15 0 -240.443 0 -1 0 1 0 0 0 0 1 41677.dat
1 22 -15 0 -240.443 0 -1 0 1 0 0 0 0 1 41677.dat
1 72 0 0 -240.443 1 0 0 0 1 0 0 0 1 32013.dat
1 0 0 0 -240.443 -1 0 0 0 1 0 0 0 -1 4519.dat
1 72 25 0 -240.443 0 0 -1 0 1 0 1 0 0 32123a.dat
1 72 -25 0 -240.443 0 0 -1 0 1 0 1 0 0 32123a.dat
1 0 0 0 -410.443 0 0 -1 0 1 0 1 0 0 50451.dat
0 STEP
1 16 0 0 0 1 0 0 0 1 0 0 0 1 cube56.dat
0 STEP
