0 矩形框架接口试验，未通过
0 Name: model.ldr
0 Author: quadcuber

1 71 -360 0 0 0 -1 0 1 0 0 0 0 1 64179.dat
1 71 -360 100 0 0 -1 0 1 0 0 0 0 1 64179.dat
1 71 -360 200 0 0 -1 0 1 0 0 0 0 1 64179.dat
1 0 -360 50 -40 0 -1 0 1 0 0 0 0 1 2780.dat
1 0 -360 50 0 0 -1 0 1 0 0 0 0 1 2780.dat
1 0 -360 50 40 0 -1 0 1 0 0 0 0 1 2780.dat
1 0 -360 150 -40 0 -1 0 1 0 0 0 0 1 2780.dat
1 0 -360 150 0 0 -1 0 1 0 0 0 0 1 2780.dat
1 0 -360 150 40 0 -1 0 1 0 0 0 0 1 2780.dat
1 15 -420 0 -100 1 0 0 0 0 -1 0 1 0 95658.dat
1 0 -440 210 -120 0 -1 0 1 0 0 0 0 1 2780.dat
1 0 -420 210 -120 0 -1 0 1 0 0 0 0 1 2780.dat
1 0 -400 210 -120 0 -1 0 1 0 0 0 0 1 2780.dat
1 0 -420 220 -120 0 0 1 0 1 0 -1 0 0 32316.dat
1 0 -460 230 -120 0 -1 0 1 0 0 0 0 1 2780.dat
1 0 -380 230 -120 0 -1 0 1 0 0 0 0 1 2780.dat
1 0 -420 240 -120 0 0 1 0 1 0 -1 0 0 32316.dat
1 1 -400 40 -160 1 0 0 0 1 0 0 0 1 6558.dat
1 0 -410 80 -160 1 0 0 0 1 0 0 0 1 2780.dat
1 0 -400 60 -160 0 1 0 0 0 1 1 0 0 32523.dat
1 0 -390 60 -160 1 0 0 0 1 0 0 0 1 2780.dat
1 0 -380 40 -60 0 1 0 -1 0 0 0 0 1 32525.dat
1 0 -380 60 -100 0 1 0 -1 0 0 0 0 1 32524.dat
1 0 -385 0 -100 1 0 0 0 1 0 0 0 1 44294.dat
1 72 -385 0 -100 0 0 1 0 1 0 -1 0 0 32123a.dat
1 72 -375 0 -100 0 0 1 0 1 0 -1 0 0 32123a.dat
1 72 -360 0 -100 0 0 1 0 1 0 -1 0 0 3713.dat
1 14 -340 0 -100 0 0 1 1 0 0 0 1 0 3648b.dat
1 72 -325 0 -100 0 0 1 0 1 0 -1 0 0 32123a.dat
1 0 -370 40 -60 1 0 0 0 1 0 0 0 1 2780.dat
1 0 -370 40 -20 1 0 0 0 1 0 0 0 1 2780.dat
1 0 -370 40 20 1 0 0 0 1 0 0 0 1 2780.dat
1 0 -370 60 -60 1 0 0 0 1 0 0 0 1 2780.dat
1 71 -340 0 0 0 -1 0 0 0 -1 1 0 0 18939.dat
1 4 -360 -20 -40 0 0 1 0 1 0 -1 0 0 32054.dat
1 4 -360 20 40 0 0 -1 0 1 0 1 0 0 32054.dat
1 71 -440 60 40 0 0 1 0 1 0 -1 0 0 64179.dat
1 0 -520 80 0 0 0 1 0 1 0 -1 0 0 32278.dat
1 0 -520 80 80 0 0 1 0 1 0 -1 0 0 32278.dat
1 0 -500 70 80 0 -1 0 1 0 0 0 0 1 2780.dat
1 0 -460 70 80 0 -1 0 1 0 0 0 0 1 2780.dat
1 0 -420 70 80 0 -1 0 1 0 0 0 0 1 2780.dat
1 0 -380 70 80 0 -1 0 1 0 0 0 0 1 2780.dat
1 0 -380 70 0 0 -1 0 1 0 0 0 0 1 2780.dat
1 0 -560 60 80 0 0 1 0 1 0 -1 0 0 32316.dat
1 0 -560 70 80 0 -1 0 1 0 0 0 0 1 2780.dat
1 0 -540 70 80 0 -1 0 1 0 0 0 0 1 2780.dat
1 71 -460 0 0 0 0 1 1 0 0 0 1 0 64179.dat
1 1 -460 60 0 0 1 0 1 0 0 0 0 -1 6558.dat
1 1 -420 60 0 0 1 0 1 0 0 0 0 -1 6558.dat
1 0 -500 70 0 0 -1 0 1 0 0 0 0 1 2780.dat
1 0 -660 60 40 1 0 0 0 1 0 0 0 1 32316.dat
1 0 -660 70 0 0 -1 0 1 0 0 0 0 1 2780.dat
1 0 -660 70 80 0 -1 0 1 0 0 0 0 1 2780.dat
1 0 -640 100 0 0 0 1 0 -1 0 1 0 0 55615.dat
1 0 -620 100 80 0 0 1 0 -1 0 1 0 0 55615.dat
1 72 -560 30 80 -1 0 0 0 0 1 0 1 0 geekservo.dat
1 1 -600 40 80 0 1 0 -1 0 0 0 0 1 6558.dat
1 1 -520 40 80 0 1 0 -1 0 0 0 0 1 6558.dat
1 0 -370 60 20 1 0 0 0 1 0 0 0 1 2780.dat
1 0 -370 60 60 1 0 0 0 1 0 0 0 1 2780.dat
1 0 -640 160 -20 -1 0 0 0 0 1 0 1 0 40490.dat
1 0 -640 100 -10 0 0 -1 0 1 0 1 0 0 2780.dat
1 0 -640 140 -10 0 0 -1 0 1 0 1 0 0 2780.dat
1 0 -620 180 100 -1 0 0 0 0 1 0 1 0 40490.dat
1 0 -620 100 90 0 0 -1 0 1 0 1 0 0 2780.dat
1 0 -620 140 90 0 0 -1 0 1 0 1 0 0 2780.dat
1 0 -450.417 20 0 0 0 1 0 -1 0 1 0 0 6536.dat
1 0 -450.417 20 10 0 0 -1 0 1 0 1 0 0 4519.dat
1 72 -450.417 20 -15 1 0 0 0 1 0 0 0 1 32123a.dat
1 72 -450.417 20 35 1 0 0 0 1 0 0 0 1 32123a.dat
1 0 -570 30 35 0.0833 0 0.9965 0.9965 0 -0.0833 0 1 0 41677.dat
1 0 -550.07 28.3333 20 0 0 -1 0 1 0 1 0 0 32062.dat
1 72 -550.07 28.3333 5 1 0 0 0 1 0 0 0 1 32123a.dat
1 14 -510.209 25 20 -0.0833 0 -0.9965 -0.9965 0 0.0833 0 1 0 32524.dat
1 71 -340 0 0 0 -1 0 0 0 -1 1 0 0 18938.dat
0 STEP
1 1 -280 0 0 0 -1 0 0 0 -1 1 0 0 39794.dat
1 1 -160 0 0 0 -1 0 0 0 -1 1 0 0 39794.dat
1 1 -220 0 -80 0 0 1 1 0 0 0 1 0 64179.dat
1 0 -280 -40 -70 0 0 -1 0 1 0 1 0 0 2780.dat
1 0 -280 40 -70 0 0 -1 0 1 0 1 0 0 2780.dat
1 0 -160 -40 -70 0 0 -1 0 1 0 1 0 0 2780.dat
1 0 -160 40 -70 0 0 -1 0 1 0 1 0 0 2780.dat
1 1 -220 0 80 0 0 1 1 0 0 0 1 0 64179.dat
1 0 -280 -40 70 0 0 -1 0 1 0 1 0 0 2780.dat
1 0 -280 40 70 0 0 -1 0 1 0 1 0 0 2780.dat
1 0 -160 -40 70 0 0 -1 0 1 0 1 0 0 2780.dat
1 0 -160 40 70 0 0 -1 0 1 0 1 0 0 2780.dat
1 72 -320 0 -60 1 0 0 0 0 -1 0 1 0 39793.dat
1 0 -320 -20 -50 0 0 -1 0 1 0 1 0 0 2780.dat
1 0 -290 -20 -60 1 0 0 0 1 0 0 0 1 2780.dat
1 0 -320 20 -50 0 0 -1 0 1 0 1 0 0 2780.dat
1 0 -290 20 -60 1 0 0 0 1 0 0 0 1 2780.dat
1 72 -320 0 60 1 0 0 0 0 -1 0 1 0 39793.dat
1 0 -320 -20 50 0 0 -1 0 1 0 1 0 0 2780.dat
1 0 -290 -20 60 1 0 0 0 1 0 0 0 1 2780.dat
1 0 -320 20 50 0 0 -1 0 1 0 1 0 0 2780.dat
1 0 -290 20 60 1 0 0 0 1 0 0 0 1 2780.dat
0 STEP
