0 矩形骨架与双导轨候选；实物承载待测
0 Name: model.ldr
0 Author: quadcuber

1 0 -270 -40 -50 0 0 -1 0 1 0 1 0 0 2780.dat
1 1 -250 -40 -80 0 0 1 0 1 0 -1 0 0 6558.dat
1 0 -170 -40 -90 0 0 -1 0 1 0 1 0 0 2780.dat
1 0 -130 -40 -70 0 0 -1 0 1 0 1 0 0 32073.dat
1 72 -130 -40 -25 1 0 0 0 1 0 0 0 1 32123a.dat
1 72 -130 -40 -115 1 0 0 0 1 0 0 0 1 32123a.dat
1 0 -270 40 -50 0 0 -1 0 1 0 1 0 0 2780.dat
1 1 -250 40 -80 0 0 1 0 1 0 -1 0 0 6558.dat
1 0 -170 40 -90 0 0 -1 0 1 0 1 0 0 2780.dat
1 0 -130 40 -70 0 0 -1 0 1 0 1 0 0 32073.dat
1 72 -130 40 -25 1 0 0 0 1 0 0 0 1 32123a.dat
1 72 -130 40 -115 1 0 0 0 1 0 0 0 1 32123a.dat
1 1 -130 -20 -40 0 0 1 0 1 0 -1 0 0 6558.dat
1 1 -130 20 -40 0 0 1 0 1 0 -1 0 0 6558.dat
1 0 -170 0 -70 0 0 -1 0 1 0 1 0 0 2780.dat
1 0 -150 0 -70 0 0 -1 0 1 0 1 0 0 2780.dat
1 1 -130 0 -60 0 0 1 0 1 0 -1 0 0 6558.dat
1 0 -290 -20 -50 0 0 -1 0 1 0 1 0 0 2780.dat
1 0 -290 20 -50 0 0 -1 0 1 0 1 0 0 2780.dat
1 1 -270 0 -60 0 0 1 0 1 0 -1 0 0 6558.dat
1 0 -250 0 -70 0 0 -1 0 1 0 1 0 0 2780.dat
1 0 -270 -40 50 0 0 -1 0 1 0 1 0 0 2780.dat
1 1 -250 -40 80 0 0 -1 0 1 0 1 0 0 6558.dat
1 0 -170 -40 90 0 0 -1 0 1 0 1 0 0 2780.dat
1 0 -130 -40 70 0 0 -1 0 1 0 1 0 0 32073.dat
1 72 -130 -40 25 1 0 0 0 1 0 0 0 1 32123a.dat
1 72 -130 -40 115 1 0 0 0 1 0 0 0 1 32123a.dat
1 0 -270 40 50 0 0 -1 0 1 0 1 0 0 2780.dat
1 1 -250 40 80 0 0 -1 0 1 0 1 0 0 6558.dat
1 0 -170 40 90 0 0 -1 0 1 0 1 0 0 2780.dat
1 0 -130 40 70 0 0 -1 0 1 0 1 0 0 32073.dat
1 72 -130 40 25 1 0 0 0 1 0 0 0 1 32123a.dat
1 72 -130 40 115 1 0 0 0 1 0 0 0 1 32123a.dat
1 1 -130 -20 40 0 0 -1 0 1 0 1 0 0 6558.dat
1 1 -130 20 40 0 0 -1 0 1 0 1 0 0 6558.dat
1 0 -170 0 70 0 0 -1 0 1 0 1 0 0 2780.dat
1 0 -150 0 70 0 0 -1 0 1 0 1 0 0 2780.dat
1 1 -130 0 60 0 0 -1 0 1 0 1 0 0 6558.dat
1 0 -290 -20 50 0 0 -1 0 1 0 1 0 0 2780.dat
1 0 -290 20 50 0 0 -1 0 1 0 1 0 0 2780.dat
1 1 -270 0 60 0 0 -1 0 1 0 1 0 0 6558.dat
1 0 -250 0 70 0 0 -1 0 1 0 1 0 0 2780.dat
1 1 -110 0 0 0 0 -1 0 1 0 1 0 0 6558.dat
1 1 -90 0 0 0 0 -1 0 1 0 1 0 0 6558.dat
1 0 -270 0 -20 0 -1 0 1 0 0 0 0 1 3707.dat
1 72 -270 -40 -20 1 0 0 0 0 1 0 -1 0 3713.dat
1 72 -270 0 -20 1 0 0 0 0 1 0 -1 0 3713.dat
1 72 -270 40 -20 1 0 0 0 0 1 0 -1 0 3713.dat
1 72 -270 -75 -20 1 0 0 0 0 1 0 -1 0 32123a.dat
1 72 -270 75 -20 1 0 0 0 0 1 0 -1 0 32123a.dat
1 0 -270 0 20 0 -1 0 1 0 0 0 0 1 3707.dat
1 72 -270 -40 20 1 0 0 0 0 1 0 -1 0 3713.dat
1 72 -270 0 20 1 0 0 0 0 1 0 -1 0 3713.dat
1 72 -270 40 20 1 0 0 0 0 1 0 -1 0 3713.dat
1 72 -270 -75 20 1 0 0 0 0 1 0 -1 0 32123a.dat
1 72 -270 75 20 1 0 0 0 0 1 0 -1 0 32123a.dat
1 0 -170 -20 0 1 0 0 0 1 0 0 0 1 23948.dat
1 72 -255 -20 0 0 0 1 0 1 0 -1 0 0 32123a.dat
1 72 -125 -20 0 0 0 1 0 1 0 -1 0 0 32123a.dat
1 0 -170 20 0 1 0 0 0 1 0 0 0 1 23948.dat
1 72 -255 20 0 0 0 1 0 1 0 -1 0 0 32123a.dat
1 72 -125 20 0 0 0 1 0 1 0 -1 0 0 32123a.dat
1 14 -170.443 0 0 1 0 0 0 0 -1 0 1 0 39793.dat
1 0 -190.443 0 0 0 0 -1 0 1 0 1 0 0 44294.dat
1 72 -190.443 0 -65 1 0 0 0 1 0 0 0 1 32123a.dat
1 25 -180.177 -38.66 -30 0.9665 0 0.2567 0.2567 0 -0.9665 0 1 0 32316.dat
1 72 -169.91 -77.32 -15 1 0 0 0 1 0 0 0 1 32123a.dat
1 72 -169.91 -77.32 -45 1 0 0 0 1 0 0 0 1 32123a.dat
1 25 -180.177 -38.66 30 0.9665 0 0.2567 0.2567 0 -0.9665 0 1 0 32316.dat
1 72 -169.91 -77.32 15 1 0 0 0 1 0 0 0 1 32123a.dat
1 72 -169.91 -77.32 45 1 0 0 0 1 0 0 0 1 32123a.dat
1 0 -169.91 -77.32 0 0 0 -1 0 1 0 1 0 0 32073.dat
1 4 -130 -80 0 0.067 0 0.9978 0.9978 0 -0.067 0 1 0 32524.dat
1 0 -130 -80 0 0 0 -1 0 1 0 1 0 0 3737.dat
1 72 -130 -80 -20 1 0 0 0 1 0 0 0 1 3713.dat
1 72 -130 -80 20 1 0 0 0 1 0 0 0 1 3713.dat
1 72 -130 -80 -95 1 0 0 0 1 0 0 0 1 32123a.dat
1 72 -130 -80 95 1 0 0 0 1 0 0 0 1 32123a.dat
1 71 -130 -120 -55 1 0 0 0 0 1 0 -1 0 32056.dat
1 71 -130 -120 -65 1 0 0 0 0 1 0 -1 0 32056.dat
1 1 -130 -100 -60 0 0 1 0 1 0 -1 0 0 6558.dat
1 71 -130 -120 55 1 0 0 0 0 1 0 -1 0 32056.dat
1 71 -130 -120 65 1 0 0 0 0 1 0 -1 0 32056.dat
1 1 -130 -100 60 0 0 -1 0 1 0 1 0 0 6558.dat
1 0 -90 -120 0 0 0 -1 0 1 0 1 0 0 3707.dat
1 72 -90 -120 -75 1 0 0 0 1 0 0 0 1 32123a.dat
1 72 -90 -120 75 1 0 0 0 1 0 0 0 1 32123a.dat
1 4 -60.1573 -84.69 -15 0.067 0 0.9978 0.9978 0 -0.067 0 1 0 32449.dat
1 4 -60.1573 -84.69 15 0.067 0 0.9978 0.9978 0 -0.067 0 1 0 32449.dat
1 0 -90.0899 -82.68 0 0 0.067 -0.9978 0 0.9978 0.067 1 0 0 4519.dat
1 72 -90.0899 -82.68 -25 0.9978 0.067 0 -0.067 0.9978 0 0 0 1 32123a.dat
1 72 -90.0899 -82.68 25 0.9978 0.067 0 -0.067 0.9978 0 0 0 1 32123a.dat
1 4 -70.1348 -84.02 -10 0 0.067 -0.9978 0 0.9978 0.067 1 0 0 32054.dat
1 0 -30.2247 -86.7 0 0 0.067 -0.9978 0 0.9978 0.067 1 0 0 32062.dat
1 71 -30.2247 -86.7 0 0.9978 0.067 0 -0.067 0.9978 0 0 0 1 42610.dat
1 0 -30.2247 -86.7 0 0.9978 0.067 0 -0.067 0.9978 0 0 0 1 50945_nominal.dat
1 72 -190.443 0 65 1 0 0 0 1 0 0 0 1 32123a.dat
1 25 -180.177 38.66 -50 -0.9665 0 0.2567 0.2567 0 0.9665 0 1 0 32316.dat
1 72 -169.91 77.32 -20 1 0 0 0 1 0 0 0 1 3713.dat
1 72 -169.91 77.32 -35 1 0 0 0 1 0 0 0 1 32123a.dat
1 72 -169.91 77.32 -65 1 0 0 0 1 0 0 0 1 32123a.dat
1 25 -180.177 38.66 50 -0.9665 0 0.2567 0.2567 0 0.9665 0 1 0 32316.dat
1 72 -169.91 77.32 20 1 0 0 0 1 0 0 0 1 3713.dat
1 72 -169.91 77.32 35 1 0 0 0 1 0 0 0 1 32123a.dat
1 72 -169.91 77.32 65 1 0 0 0 1 0 0 0 1 32123a.dat
1 0 -169.91 77.32 0 0 0 -1 0 1 0 1 0 0 44294.dat
1 4 -130 80 0 -0.067 0 0.9978 0.9978 0 0.067 0 1 0 32524.dat
1 0 -130 80 0 0 0 -1 0 1 0 1 0 0 3737.dat
1 72 -130 80 -20 1 0 0 0 1 0 0 0 1 3713.dat
1 72 -130 80 20 1 0 0 0 1 0 0 0 1 3713.dat
1 72 -130 80 -95 1 0 0 0 1 0 0 0 1 32123a.dat
1 72 -130 80 95 1 0 0 0 1 0 0 0 1 32123a.dat
1 71 -130 120 -55 1 0 0 0 0 -1 0 1 0 32056.dat
1 71 -130 120 -65 1 0 0 0 0 -1 0 1 0 32056.dat
1 1 -130 100 -60 0 0 1 0 1 0 -1 0 0 6558.dat
1 71 -130 120 55 1 0 0 0 0 -1 0 1 0 32056.dat
1 71 -130 120 65 1 0 0 0 0 -1 0 1 0 32056.dat
1 1 -130 100 60 0 0 -1 0 1 0 1 0 0 6558.dat
1 0 -90 120 0 0 0 -1 0 1 0 1 0 0 3707.dat
1 72 -90 120 -75 1 0 0 0 1 0 0 0 1 32123a.dat
1 72 -90 120 75 1 0 0 0 1 0 0 0 1 32123a.dat
1 4 -60.1573 84.69 -15 -0.067 0 0.9978 0.9978 0 0.067 0 1 0 32449.dat
1 4 -60.1573 84.69 15 -0.067 0 0.9978 0.9978 0 0.067 0 1 0 32449.dat
1 0 -90.0899 82.68 0 0 -0.067 -0.9978 0 0.9978 -0.067 1 0 0 4519.dat
1 72 -90.0899 82.68 -25 0.9978 -0.067 0 0.067 0.9978 0 0 0 1 32123a.dat
1 72 -90.0899 82.68 25 0.9978 -0.067 0 0.067 0.9978 0 0 0 1 32123a.dat
1 4 -70.1348 84.02 -10 0 -0.067 -0.9978 0 0.9978 -0.067 1 0 0 32054.dat
1 0 -30.2247 86.7 0 0 -0.067 -0.9978 0 0.9978 -0.067 1 0 0 32062.dat
1 71 -30.2247 86.7 0 0.9978 -0.067 0 0.067 0.9978 0 0 0 1 42610.dat
1 0 -30.2247 86.7 0 0.9978 -0.067 0 0.067 0.9978 0 0 0 1 50945_nominal.dat
1 22 -210.443 0 -15 0 0 1 1 0 0 0 1 0 41677.dat
1 22 -210.443 0 15 0 0 1 1 0 0 0 1 0 41677.dat
1 72 -210.443 0 0 0 0 1 0 1 0 -1 0 0 32013.dat
1 0 -210.443 0 0 0 0 -1 0 1 0 1 0 0 4519.dat
1 72 -210.443 0 -25 1 0 0 0 1 0 0 0 1 32123a.dat
1 72 -210.443 0 25 1 0 0 0 1 0 0 0 1 32123a.dat
1 0 -380.443 0 0 1 0 0 0 1 0 0 0 1 50451.dat
0 STEP
