<svg xmlns="http://www.w3.org/2000/svg" width="1500" height="1000" viewBox="0 0 1500 1000">
<rect width="1500" height="1000" fill="white"/><g font-family="Noto Sans CJK SC, sans-serif" fill="#172535">
<text x="60" y="65" font-size="36" font-weight="700">每臂一组轮胎＋一个硬压头</text>
<text x="60" y="110" font-size="23">孔号从后端数；图示展开孔位，1 孔距 = 8mm，夹紧角约 3.64°。</text>
<text x="60" y="165" font-size="26">上侧：7 孔粗梁</text>
<rect x="185" y="200" width="730" height="70" rx="35" fill="#c94338"/>
<circle cx="220" cy="235" r="20" fill="white"/><text x="220" y="190" text-anchor="middle" font-size="22">1</text>
<circle cx="330" cy="235" r="20" fill="white"/><text x="330" y="190" text-anchor="middle" font-size="22">2</text>
<circle cx="440" cy="235" r="20" fill="white"/><text x="440" y="190" text-anchor="middle" font-size="22">3</text>
<circle cx="550" cy="235" r="20" fill="white"/><text x="550" y="190" text-anchor="middle" font-size="22">4</text>
<circle cx="660" cy="235" r="20" fill="white"/><text x="660" y="190" text-anchor="middle" font-size="22">5</text>
<circle cx="770" cy="235" r="20" fill="white"/><text x="770" y="190" text-anchor="middle" font-size="22">6</text>
<circle cx="880" cy="235" r="20" fill="white"/><text x="880" y="190" text-anchor="middle" font-size="22">7</text>
<rect x="635" y="280" width="510" height="32" rx="16" fill="#e78360"/>
<circle cx="660" cy="296" r="9" fill="white"/>
<circle cx="770" cy="296" r="9" fill="white"/>
<circle cx="880" cy="296" r="9" fill="white"/>
<circle cx="990" cy="296" r="9" fill="white"/>
<circle cx="1100" cy="296" r="9" fill="white"/>
<path d="M660 240 V320 M880 240 V320" stroke="#172535" stroke-width="8"/>
<text x="60" y="395" font-size="26">下侧：5 孔粗梁</text>
<rect x="295" y="430" width="510" height="70" rx="35" fill="#c94338"/>
<circle cx="330" cy="465" r="20" fill="white"/><text x="330" y="420" text-anchor="middle" font-size="22">1</text>
<circle cx="440" cy="465" r="20" fill="white"/><text x="440" y="420" text-anchor="middle" font-size="22">2</text>
<circle cx="550" cy="465" r="20" fill="white"/><text x="550" y="420" text-anchor="middle" font-size="22">3</text>
<circle cx="660" cy="465" r="20" fill="white"/><text x="660" y="420" text-anchor="middle" font-size="22">4</text>
<circle cx="770" cy="465" r="20" fill="white"/><text x="770" y="420" text-anchor="middle" font-size="22">5</text>
<rect x="635" y="510" width="510" height="32" rx="16" fill="#e78360"/>
<circle cx="660" cy="526" r="9" fill="white"/>
<circle cx="770" cy="526" r="9" fill="white"/>
<circle cx="880" cy="526" r="9" fill="white"/>
<circle cx="990" cy="526" r="9" fill="white"/>
<circle cx="1100" cy="526" r="9" fill="white"/>
<path d="M660 470 V550 M770 470 V550" stroke="#172535" stroke-width="8"/>
<text x="1000" y="225" font-size="23">薄梁前孔装轮毂</text>
<text x="1000" y="263" font-size="23">32002 短段穿薄梁</text>
<text x="1000" y="301" font-size="23">长段进入 42610</text>
<text x="850" y="608" font-size="23">薄梁第 3、4 孔 → 42003 两个圆孔</text>
<text x="60" y="690" font-size="29" font-weight="700">装配剖面（尺寸为 mm）</text>
<text x="60" y="742" font-size="24">上侧：4mm 薄梁 │ 8mm 轮毂，轮胎 14×6mm；轮毂与主臂中面对齐。</text>
<text x="60" y="791" font-size="24">下侧：魔方 ← 凸点端面 ┃ 6587 轴肩 │ 42003 │ 半轴套 │ 原长轴尾。</text>
<text x="60" y="854" font-size="24">推力由轴肩抵住块体承受；两个固定销防止块体转动。不要截短轴尾。</text>
<text x="60" y="923" font-size="24">轮毂可以滚动；硬凸点随主臂倾斜。夹紧保持与魔方表面接触需实测。</text>
</g></svg>